<?xml version="1.0" encoding="utf-8"?>
<!-- Generator: Adobe Illustrator 21.1.0, SVG Export Plug-In . SVG Version: 6.00 Build 0)  -->
<svg version="1.1" id="Layer_1" xmlns="http://www.w3.org/2000/svg" xmlns:xlink="http://www.w3.org/1999/xlink" x="0px" y="0px"
	 viewBox="0 0 70 70" style="enable-background:new 0 0 70 70;" xml:space="preserve">
<g>
	<path d="M38.8,37.4c-0.4-0.4-1-0.4-1.4,0s-0.4,1,0,1.4l9.9,9.9c0.2,0.2,0.5,0.3,0.7,0.3s0.5-0.1,0.7-0.3c0.4-0.4,0.4-1,0-1.4
		L38.8,37.4z"/>
	<path d="M31,32.5c0.2,0.2,0.5,0.3,0.7,0.3s0.5-0.1,0.7-0.3c0.4-0.4,0.4-1,0-1.4l-9.8-9.8c-0.4-0.4-1-0.4-1.4,0s-0.4,1,0,1.4
		L31,32.5z"/>
	<path d="M48.7,21.3c-0.4-0.4-1-0.4-1.4,0l-26,26c-0.4,0.4-0.4,1,0,1.4c0.2,0.2,0.5,0.3,0.7,0.3s0.5-0.1,0.7-0.3l26-26
		C49.1,22.3,49.1,21.7,48.7,21.3z"/>
	<path d="M35,70c6.9,0,13.5-2,19.2-5.8c2.5-1.6,4.8-3.6,6.8-5.8c0.4-0.4,0.3-1-0.1-1.4s-1-0.3-1.4,0.1c-1.9,2.1-4,3.9-6.4,5.5
		C47.7,66.1,41.5,68,35,68C16.8,68,2,53.2,2,35S16.8,2,35,2s33,14.8,33,33c0,5.3-1.2,10.4-3.7,15.1c-0.3,0.5-0.1,1.1,0.4,1.3
		c0.5,0.3,1.1,0.1,1.3-0.4c2.7-4.9,4-10.4,4-16C70,15.7,54.3,0,35,0S0,15.7,0,35S15.7,70,35,70z"/>
</g>
</svg>
