<?xml version="1.0" encoding="utf-8"?>
<!-- Generator: Adobe Illustrator 21.1.0, SVG Export Plug-In . SVG Version: 6.00 Build 0)  -->
<svg version="1.1" id="Layer_1" xmlns="http://www.w3.org/2000/svg" xmlns:xlink="http://www.w3.org/1999/xlink" x="0px" y="0px"
	 viewBox="0 0 88.5 57.8" style="enable-background:new 0 0 88.5 57.8;" xml:space="preserve">
<style type="text/css">
	.st0{fill:#FFFFFF;}
</style>
<path class="st0" d="M27.1,9.8c-1-1.3-2.9-1.5-4.2-0.5L1.1,26.6C0.4,27.1,0,28,0,28.9s0.4,1.8,1.1,2.4l21.8,17.3
	c0.6,0.4,1.2,0.6,1.9,0.6c0.9,0,1.8-0.4,2.4-1.1c1-1.3,0.8-3.2-0.5-4.2L7.8,28.9L26.6,14C27.9,13,28.1,11.1,27.1,9.8z M87.3,26.6
	L65.6,9.3c-1.3-1-3.2-0.8-4.2,0.5c-1,1.3-0.8,3.2,0.5,4.2l18.8,14.9L61.9,43.8c-1.3,1-1.5,2.9-0.5,4.2c0.6,0.7,1.5,1.1,2.4,1.1
	c0.7,0,1.3-0.2,1.9-0.6l21.8-17.3c0.7-0.6,1.1-1.4,1.1-2.4S88.1,27.1,87.3,26.6z M55.2,0.2c-1.5-0.6-3.3,0.2-3.9,1.7L31.5,53.8
	c-0.6,1.5,0.2,3.3,1.7,3.9c0.4,0.1,0.7,0.2,1.1,0.2c1.2,0,2.3-0.7,2.8-1.9L56.9,4.1C57.5,2.5,56.7,0.8,55.2,0.2z"/>
</svg>
