<?xml version="1.0" encoding="utf-8"?>
<!-- Generator: Adobe Illustrator 21.1.0, SVG Export Plug-In . SVG Version: 6.00 Build 0)  -->
<svg version="1.1" id="Layer_1" xmlns="http://www.w3.org/2000/svg" xmlns:xlink="http://www.w3.org/1999/xlink" x="0px" y="0px"
	 viewBox="0 0 87.7 89" style="enable-background:new 0 0 87.7 89;" xml:space="preserve">
<path d="M87.7,70.1V3c0-1.7-1.3-3-3-3H3C1.3,0,0,1.3,0,3v83c0,1.7,1.3,3,3,3c0.9,0,1.8-0.4,2.3-1.1l12-14.8h67.4
	C86.4,73.1,87.7,71.8,87.7,70.1z M81.7,67.1H15.9c-0.9,0-1.8,0.4-2.3,1.1L6,77.5V6h75.7V67.1z"/>
<rect x="40.9" y="30.7" width="6" height="25.3"/>
<rect x="40.9" y="17.7" width="6" height="7.3"/>
</svg>
