<?xml version="1.0" encoding="utf-8"?>
<!-- Generator: Adobe Illustrator 21.1.0, SVG Export Plug-In . SVG Version: 6.00 Build 0)  -->
<svg version="1.1" id="Layer_1" xmlns="http://www.w3.org/2000/svg" xmlns:xlink="http://www.w3.org/1999/xlink" x="0px" y="0px"
	 viewBox="0 0 57 72.4" style="enable-background:new 0 0 57 72.4;" xml:space="preserve">
<g>
	<path d="M0,31.4v37C0,69,0.3,69.6,0.8,70c0.3,0.2,0.8,0.4,1.2,0.4c0.2,0,0.4,0,0.6-0.1l17.3-5.8l17.3,7.7c0.3,0.1,0.5,0.2,0.8,0.2
		c0.2,0,0.3,0,0.5-0.1l0,0l17-4c0.9-0.2,1.5-1,1.5-1.9v-37c0-0.6-0.3-1.2-0.8-1.6c-0.5-0.4-1.1-0.5-1.7-0.4l-9.8,2.4
		c2-3.1,3.1-6.7,3.1-10.5c0-5.2-2-10-5.7-13.7c-7.5-7.5-19.8-7.5-27.3,0C9.4,11,7.7,19.3,10.5,26.3l-9.1,3.1C0.6,29.8,0,30.5,0,31.4
		z M22,61.1V40.2l5.1,5.1c0.4,0.4,0.9,0.6,1.4,0.6s1-0.2,1.4-0.6l6.1-6.1v28.1L22,61.1z M53,64.8l-13,3.1V35.2l0,0L53,32V64.8z
		 M17.7,8.5c3-3,6.9-4.5,10.8-4.5s7.9,1.5,10.8,4.5c2.9,2.9,4.5,6.7,4.5,10.8s-1.6,7.9-4.5,10.8L28.5,41L17.7,30.2
		c-1.1-1.1-1.9-2.2-2.6-3.5C11.8,20.7,12.9,13.3,17.7,8.5z M4,32.8l8.4-2.8c0.7,1.1,1.5,2.1,2.4,3l3.2,3.2v24.7L4,65.6L4,32.8z"/>
	<path d="M28.5,27.9c5,0,9-4,9-9s-4-9-9-9s-9,4-9,9S23.5,27.9,28.5,27.9z M28.5,13.9c2.8,0,5,2.2,5,5s-2.2,5-5,5s-5-2.2-5-5
		S25.7,13.9,28.5,13.9z"/>
</g>
</svg>
