<?xml version="1.0" encoding="utf-8"?>
<!-- Generator: Adobe Illustrator 21.1.0, SVG Export Plug-In . SVG Version: 6.00 Build 0)  -->
<svg version="1.1" id="Layer_1" xmlns="http://www.w3.org/2000/svg" xmlns:xlink="http://www.w3.org/1999/xlink" x="0px" y="0px"
	 viewBox="0 0 82 88" style="enable-background:new 0 0 82 88;" xml:space="preserve">
<path d="M34.9,0c-0.1,0-0.1,0-0.2,0c-1.1,0.2-1.9,1.2-1.7,2.3c0.1,0.6,0.5,1.2,1,1.5l4,2.4C16.8,7.7,0,25.4,0,47
	c0,22.6,18.4,41,41,41s41-18.4,41-41c0-10-3.5-19.2-9.5-26.3c-0.7-0.9-1.9-1.1-2.8-0.4c-0.9,0.7-1.1,1.9-0.4,2.8
	c0,0.1,0.1,0.1,0.2,0.2C74.8,29.7,78,38,78,47c0,20.5-16.5,37-37,37S4,67.5,4,47C4,27.8,18.7,12,37.5,10.2L34,12.3
	c-0.9,0.6-1.3,1.8-0.7,2.8c0.6,0.9,1.8,1.3,2.8,0.7l10-6C47,9.2,47.3,8,46.7,7c-0.2-0.3-0.4-0.5-0.7-0.7l-10-6
	C35.7,0.1,35.3,0,34.9,0z M41,20c-11.8,0-21.9,7.7-25.6,18.3c-0.4,1,0.1,2.2,1.1,2.6c1,0.4,2.2-0.1,2.6-1.1c0-0.1,0.1-0.2,0.1-0.3
	C22.3,30.6,30.9,24,41,24c12.7,0,23,10.3,23,23S53.7,70,41,70S18,59.8,18,47c0-1.1-0.8-2-1.9-2.1c-1.1,0-2,0.8-2.1,1.9
	c0,0.1,0,0.1,0,0.2c0,14.9,12.1,27,27,27s27-12.1,27-27S55.9,20,41,20z M40.8,30c-1,0.1-1.8,1-1.8,2v15c0,0.7,0.4,1.4,1,1.8l9,5
	c1,0.5,2.2,0.2,2.7-0.8s0.2-2.2-0.8-2.7l0,0l-8-4.4V32c0-1.1-0.9-2-2-2c0,0,0,0-0.1,0C40.9,30,40.8,30,40.8,30z"/>
</svg>
