<?xml version="1.0" encoding="utf-8"?>
<!-- Generator: Adobe Illustrator 21.1.0, SVG Export Plug-In . SVG Version: 6.00 Build 0)  -->
<svg version="1.1" id="Layer_1" xmlns="http://www.w3.org/2000/svg" xmlns:xlink="http://www.w3.org/1999/xlink" x="0px" y="0px"
	 viewBox="0 0 100 125" style="enable-background:new 0 0 100 125;" xml:space="preserve">
<style type="text/css">
	.st0{fill:#010101;}
</style>
<g>
	<polygon class="st0" points="100,62.8 0,62.8 0,50.3 100,50.3 	"/>
	<polygon class="st0" points="100,12.5 0,12.5 0,0 100,0 	"/>
	<path class="st0" d="M37.5,93.7c0,3.5-2.8,6.2-6.2,6.2c-3.5,0-6.3-2.8-6.3-6.2s2.8-6.2,6.3-6.2C34.7,87.5,37.5,90.3,37.5,93.7z"/>
	<polygon class="st0" points="62.5,37.5 0,37.5 0,25 62.5,25 	"/>
	<path class="st0" d="M12.5,93.7c0,3.5-2.8,6.2-6.2,6.2S0,97.2,0,93.7s2.8-6.2,6.2-6.2S12.5,90.3,12.5,93.7z"/>
	<path class="st0" d="M62.5,93.7c0,3.5-2.8,6.2-6.2,6.2S50,97.2,50,93.7s2.8-6.2,6.2-6.2S62.5,90.3,62.5,93.7z"/>
</g>
</svg>
