<?xml version="1.0" encoding="utf-8"?>
<!-- Generator: Adobe Illustrator 21.1.0, SVG Export Plug-In . SVG Version: 6.00 Build 0)  -->
<svg version="1.1" id="Layer_1" xmlns="http://www.w3.org/2000/svg" xmlns:xlink="http://www.w3.org/1999/xlink" x="0px" y="0px"
	 viewBox="0 0 72.8 86.3" style="enable-background:new 0 0 72.8 86.3;" xml:space="preserve">
<g>
	<path d="M58.8,28c7.7,0,14-6.3,14-14s-6.3-14-14-14s-14,6.3-14,14c0,2.5,0.7,4.8,1.8,6.8l-23,12.9c-2.5-2.4-5.9-3.8-9.6-3.8
		c-7.7,0-14,6.3-14,14s6.3,14,14,14c3.7,0,7.1-1.5,9.6-3.8L46,66.5c-0.8,1.8-1.3,3.7-1.3,5.8c0,7.7,6.3,14,14,14s14-6.3,14-14
		s-6.3-14-14-14c-3.5,0-6.6,1.3-9.1,3.4L27,49.1c0.6-1.6,1-3.4,1-5.2s-0.4-3.6-1-5.2l23.7-13.2C53,27.1,55.7,28,58.8,28z M58.8,6
		c4.4,0,8,3.6,8,8s-3.6,8-8,8s-8-3.6-8-8S54.3,6,58.8,6z M14,51.8c-4.4,0-8-3.6-8-8s3.6-8,8-8s8,3.6,8,8S18.5,51.8,14,51.8z
		 M58.8,64.2c4.4,0,8,3.6,8,8s-3.6,8-8,8s-8-3.6-8-8S54.3,64.2,58.8,64.2z"/>
</g>
</svg>
