<?xml version="1.0" encoding="utf-8"?>
<!-- Generator: Adobe Illustrator 18.0.0, SVG Export Plug-In . SVG Version: 6.00 Build 0)  -->
<!DOCTYPE svg PUBLIC "-//W3C//DTD SVG 1.1//EN" "http://www.w3.org/Graphics/SVG/1.1/DTD/svg11.dtd">
<svg version="1.1"
	 id="svg2241" xmlns:rdf="http://www.w3.org/1999/02/22-rdf-syntax-ns#" xmlns:dc="http://purl.org/dc/elements/1.1/" xmlns:cc="http://web.resource.org/cc/" xmlns:svg="http://www.w3.org/2000/svg" xmlns:inkscape="http://www.inkscape.org/namespaces/inkscape" xmlns:sodipodi="http://sodipodi.sourceforge.net/DTD/sodipodi-0.dtd" inkscape:output_extension="org.inkscape.output.svg.inkscape" sodipodi:docname="Somalia regions map Bakool.svg" sodipodi:version="0.32" inkscape:version="0.45" sodipodi:docbase="L:\Regionen in Somalia" sodipodi:modified="true"
	 xmlns="http://www.w3.org/2000/svg" xmlns:xlink="http://www.w3.org/1999/xlink" x="0px" y="0px" viewBox="0 0 841.9 595.3"
	 enable-background="new 0 0 841.9 595.3" xml:space="preserve">
<sodipodi:namedview  inkscape:cy="400.12648" inkscape:zoom="0.75488405" id="base" bordercolor="#666666" borderopacity="1.0" pagecolor="#ffffff" inkscape:cx="177.241" inkscape:window-x="-4" inkscape:window-height="792" inkscape:window-width="1152" inkscape:document-units="px" inkscape:pageshadow="2" inkscape:window-y="-4" inkscape:current-layer="g2292" inkscape:pageopacity="0.0">
	</sodipodi:namedview>
<g>
	<polygon fill="none" stroke="#6E6E6E" stroke-width="0.14" stroke-linejoin="round" stroke-miterlimit="10" points="404.7,412.9 
		404.7,412.9 403.9,413.5 403.3,414 402.9,414 401.3,415.2 400.5,415.7 399.9,416.1 399.5,416.4 399.1,416.6 398.6,416.7 
		398.2,417.2 397.1,418.1 396.4,418.3 395.8,418.6 395.4,418.7 394.8,419.3 394.4,419.6 393.8,419.8 393.4,419.8 392.4,420.6 
		393.7,418.7 393.8,418.6 393.8,418.3 394,418.3 394,418.1 394.3,418.1 394.3,417.8 394.4,417.8 394.4,417.7 394.4,417.5 
		394.7,417.5 394.7,417.2 394.8,417.2 394.8,417 395,417 395,416.7 395,416.6 395.3,416.6 395.3,416.4 395.4,416.4 395.4,416.1 
		395.7,416.1 395.7,416 395.7,415.7 395.8,415.7 395.8,415.5 396.1,415.5 396.1,415.2 396.2,415.2 396.2,415 396.8,414.1 
		398.2,413.7 399.2,413.5 403.7,413 	"/>
	<polygon fill="none" stroke="#6E6E6E" stroke-width="0.14" stroke-linejoin="round" stroke-miterlimit="10" points="358.9,359.9 
		359.7,361.2 359.7,363.4 359.7,363.5 359.7,363.8 359.7,364 359.7,364.3 359.7,364.5 359.7,364.8 359.7,364.9 359.7,365.1 
		359.7,365.4 359.7,365.5 359.7,365.8 359.7,368 358.4,370 360.3,371 363.1,372.7 365.1,372.7 369.9,372.6 371.5,373.2 371.9,375.7 
		371.9,375.8 371.9,376 371.9,376.3 372.8,380.6 372.2,383 372.2,383.2 372.2,383.5 372.2,383.6 372.2,383.9 371.9,383.9 
		371.9,384.1 371.9,384.2 371.9,384.6 371.9,384.7 371.8,385 371.8,385.2 371.8,385.5 371.8,385.6 371.8,385.8 371.5,386.1 
		371.5,386.2 371.5,386.5 371.5,386.7 371.5,387 371.3,387 371.3,387.2 371.3,387.3 370.9,389.6 371.5,391.9 371.3,394.4 
		371.3,394.5 370.5,399.4 370.3,402 370.5,404.2 370.5,404.3 370.5,404.7 370.5,404.8 370.5,405.1 370.5,405.3 370.5,405.4 
		370.8,405.7 370.8,405.9 370.8,406.2 370.8,406.3 370.8,406.6 370.8,406.8 370.8,406.9 370.8,407.3 370.8,407.4 370.9,407.7 
		370.9,407.9 370.9,408 370.9,408.3 370.9,408.5 370.9,408.8 370.9,408.9 370.9,409.3 371.2,411.1 371.3,411.6 364.7,414.9 
		345.5,424 344.7,424.3 334.6,428.6 334.5,428.9 325.4,433.6 325.2,433.8 313.7,439.9 313,439 311.1,437.8 309.4,435.9 309.3,435.9 
		309.3,435.8 309.1,435.8 309.1,435.6 308.9,435.6 308.9,435.3 308.7,435.3 308.7,435.2 308.4,435.2 308.4,434.9 308.3,434.9 
		308.1,434.7 307.9,434.6 307.7,434.3 307.4,434.1 307.3,433.8 307,433.6 306.9,433.3 306.7,433.3 306.7,433.2 306.4,433 306.3,433 
		306.3,432.7 306,432.7 306,432.6 305.9,432.6 305.9,432.3 305.6,432.3 305.6,432.1 305.5,432.1 305.5,431.8 305.3,431.8 
		305.3,431.6 305,431.6 305,431.5 304.9,431.5 304.6,431.2 304.6,431 304.5,431 304.5,430.7 304.2,430.7 304.2,430.6 304,430.6 
		304,430.4 303.9,430.4 303.9,430.1 303.6,430.1 303.5,430 303.2,429.7 303,429.7 303,429.5 302.9,429.5 302.9,429.2 302.6,429.2 
		302.6,429 302.5,429 302.5,428.9 302.2,428.9 302.2,428.6 302.1,428.6 302.1,428.4 301.8,428.4 301.8,428.1 301.6,428.1 301.6,428 
		301.5,428 301.5,427.7 301.2,427.7 301.2,427.5 301.1,427.5 300.8,427.4 300.8,427 300.6,427 300.6,426.9 300.4,426.9 300.4,426.6 
		300.2,426.6 300.1,426.4 299.8,426.3 299.6,426 297.9,424.3 296,423.2 296,422.9 295.8,422.9 293.8,421.7 297.7,398.5 297.8,397.4 
		298.7,392.2 298.7,391.9 300.6,380 303.5,380.1 312.1,381 317.9,380.4 317.9,379.5 317.9,374.1 317.9,373 318.5,357.5 328.7,361.2 
		334.5,359.9 337.9,355.7 340.3,351 341.7,349.6 341.9,349.6 344.7,348.3 347.1,348.3 355,351 	"/>
	<g>
		<text transform="matrix(1 0 0 1 405.9175 423.2859)"><tspan x="0" y="0" font-family="'HelveticaNeue'" font-size="5.0401">M</tspan><tspan x="4.4" y="0" font-family="'HelveticaNeue'" font-size="5.0401">og</tspan><tspan x="10.2" y="0" font-family="'HelveticaNeue'" font-size="5.0401">a</tspan><tspan x="12.9" y="0" font-family="'HelveticaNeue'" font-size="5.0401">dishu</tspan></text>
	</g>
	
		<polygon fill="none" stroke="#FFC000" stroke-width="0.14" stroke-linejoin="round" stroke-miterlimit="10" stroke-dasharray="0.56,0.42,0.14,0.42" points="
		404.7,412.8 404.7,412.8 403.9,413.5 403.2,413.8 403,413.9 401.3,415.1 400.5,415.6 399.8,416.2 399.6,416.3 399,416.6 
		398.6,416.9 398.3,417 397,418.1 396.6,418.2 395.8,418.5 395.5,418.8 394.8,419.2 394.4,419.5 393.9,419.7 393.5,419.8 
		392.4,420.6 392.5,420.6 393.7,418.7 393.7,418.5 393.9,418.5 393.9,418.4 394,418.2 394.1,418.1 394.1,417.9 394.3,417.9 
		394.3,417.8 394.4,417.6 394.5,417.5 394.7,417.5 394.7,417.3 394.7,417.2 394.8,417 394.8,416.9 394.9,416.9 394.9,416.7 
		395.1,416.6 395.2,416.6 395.4,416.4 395.5,416.3 395.5,416.2 395.6,416.2 395.6,416 395.6,415.9 395.8,415.7 395.8,415.6 
		395.9,415.6 396,415.4 396.2,415.3 396.2,415.1 396.3,415.1 396.3,415 396.8,414.1 398.3,413.6 399.3,413.5 403.6,412.9 	"/>
	<path fill-rule="evenodd" clip-rule="evenodd" fill="#203864" d="M394.8,420c0-2.5,2.3-4.6,5.1-4.6c2.8,0,5.1,2,5.1,4.6
		c0,2.5-2.3,4.6-5.1,4.6C397.1,424.6,394.8,422.5,394.8,420z"/>
	<path fill="none" stroke="#7F7F7F" stroke-width="1.02" stroke-miterlimit="8" d="M394.8,420c0-2.5,2.3-4.6,5.1-4.6
		c2.8,0,5.1,2,5.1,4.6c0,2.5-2.3,4.6-5.1,4.6C397.1,424.6,394.8,422.5,394.8,420z"/>
	<polygon fill="#FFFFFF" points="397.1,418.7 399.5,418.7 400.3,416.5 401.1,418.7 403.5,418.7 401.5,420.1 402.3,422.3 
		400.3,420.9 398.3,422.3 399.1,420.1 	"/>
	<g>
		<text transform="matrix(1 0 0 1 322.2632 400.7898)"><tspan x="0" y="0" font-family="'HelveticaNeue'" font-size="8.1749">Ba</tspan><tspan x="10" y="0" font-family="'HelveticaNeue'" font-size="8.1749">y</tspan></text>
	</g>
	<g>
		<text transform="matrix(1 0 0 1 273.3579 440.1882)"><tspan x="0" y="0" font-family="'HelveticaNeue'" font-size="6.6997">Mi</tspan><tspan x="7.3" y="0" font-family="'HelveticaNeue'" font-size="6.6997">d</tspan><tspan x="11.3" y="0" font-family="'HelveticaNeue'" font-size="6.6997">d</tspan><tspan x="15.2" y="0" font-family="'HelveticaNeue'" font-size="6.6997">l</tspan><tspan x="16.7" y="0" font-family="'HelveticaNeue'" font-size="6.6997">e</tspan><tspan x="20.3" y="0" font-family="'HelveticaNeue'" font-size="6.6997"> </tspan><tspan x="22.2" y="0" font-family="'HelveticaNeue'" font-size="6.6997">J</tspan><tspan x="25.7" y="0" font-family="'HelveticaNeue'" font-size="6.6997">u</tspan><tspan x="29.4" y="0" font-family="'HelveticaNeue'" font-size="6.6997">b</tspan><tspan x="33.4" y="0" font-family="'HelveticaNeue'" font-size="6.6997">a</tspan></text>
	</g>
	<g>
		<text transform="matrix(1 0 0 1 407.3111 418.573)"><tspan x="0" y="0" font-family="'HelveticaNeue'" font-size="8.1749">B</tspan><tspan x="5.6" y="0" font-family="'HelveticaNeue'" font-size="8.1749">a</tspan><tspan x="10" y="0" font-family="'HelveticaNeue'" font-size="8.1749">n</tspan><tspan x="14.6" y="0" font-family="'HelveticaNeue'" font-size="8.1749">adir</tspan></text>
	</g>
	<polygon fill="none" stroke="#6E6E6E" stroke-width="0.78" stroke-linejoin="round" stroke-miterlimit="8" points="413.4,91 
		413.4,91 413.8,91 414.1,91.3 414.3,91.3 414.1,91 413.7,90.9 413.4,90.7 413.4,90.4 413.8,90.4 415.1,91 416.7,91.9 417.2,92.6 
		417.9,92.6 418.9,92.6 419.4,92.9 418.5,118.6 414.8,117.9 414.7,117.9 387.3,115.3 380.3,123.9 379.3,124.9 377.9,126.9 
		373.2,147.3 373.2,167.4 369.5,166.2 368.5,165.8 367.4,165.3 367.1,165.3 366.5,165 365.4,164.7 364.5,164.4 362.3,163.5 
		361.3,163.1 360.3,162.8 358.7,162.2 358,162.1 357.5,161.8 357,161.8 355.5,161.2 352.8,160.2 350.7,159.3 350.4,159.3 349.4,159 
		349,158.5 348.8,158.5 345.8,155.2 345.4,154.5 345,154.1 342.7,151.8 342.3,151.3 341.3,150.3 341.2,149.9 339.2,147.8 
		337.9,146.3 337.8,146.3 337.5,145.8 337.1,145.7 335.8,145.7 335.5,145.7 335.4,145.3 334.4,145 333.9,145 333.2,144.7 
		332.7,144.6 331.8,143.8 331.7,143.8 331.1,143.2 330.3,142.4 329.7,141.2 329.3,140.1 329.1,139.7 329.1,139 328.8,138.6 
		328.7,138.3 327.9,137.8 327.7,137.4 327.3,137.1 326.7,136.8 326.7,136.4 326,136.3 325.4,136.3 325.3,136 324.9,134.4 
		324.9,134.3 325.6,133.2 327.7,129.1 333.1,122 339.8,111.7 341.2,110.5 343.2,110.7 350.7,115.3 354.5,109.6 357.5,103.9 
		358.3,104.7 359.3,105.4 360.3,106.1 361.6,106.5 361.9,106.5 363.6,107 364.7,106.8 366,106.8 366.9,107 367.4,107.3 367.9,107.3 
		368.4,107.4 368.8,107.4 369.8,107.4 370.2,107.4 370.6,107.4 370.8,107.3 371.3,107.3 371.8,106.8 371.9,106.5 373.3,106.4 
		374,106.4 374.2,106.1 375.2,105.9 375.4,105.9 375.6,106.1 376,106.1 376.2,106.1 376.6,106.1 376.9,105.9 377.1,106.1 
		377.6,106.1 377.9,106.1 378.4,106.4 379,106.4 379.7,106.5 381,106.4 381.8,106.4 382.4,106.1 383.7,105.4 383.7,105.3 
		383.8,105.3 383.8,105 383.8,104.8 383.7,104.8 383.5,104.8 383.2,105 383.1,105 383.2,104.8 383.7,104.7 383.8,104.7 384.5,104.2 
		385.5,103.9 385.9,103.4 386.2,103.1 386.5,102.8 386.6,102.7 388,102.4 388.8,102.2 389.3,101.8 390,101.6 390.9,101.1 
		391.7,100.7 392.2,100.5 392.6,99.8 392.9,99.1 393.6,98.7 394,98.2 395,97 395.3,97 396.1,97 397.1,97 397.4,97 397.8,97 
		398.1,97 399,97 399.5,97 399.8,96.7 400.2,96.1 400.5,95.9 401.2,95.9 401.4,95.9 401.7,95.9 401.7,95.6 401.9,95.2 402.8,95 
		403.2,94.8 403.4,94.5 403.6,94.1 403.8,93.9 404.1,93.3 404.2,93.3 404.2,93 405.1,93 405.5,92.9 406.5,92.4 406.9,92.4 
		407.2,92.1 408,91.5 408.4,91 409.6,90.7 409.9,90.7 410.3,89.9 410.4,89.8 410.4,89.5 410.7,89.5 411,89.5 411.3,89.5 411.4,89.3 
		411.7,89.3 411.8,89.5 412.7,90.2 413.1,90.4 413.3,90.4 413.3,90.9 	"/>
	<path fill="none" stroke="#6E6E6E" stroke-width="0.78" stroke-linejoin="round" stroke-miterlimit="8" d="M330.7,66h-0.1v-0.3
		l0.1-0.3h0.1L330.7,66z M326.4,67.7L326.4,67.7L327,67l0.3-0.3l0.1-0.9V66V67l-0.1,0.2L326.4,67.7z M325.6,67.1l0.3,0.6l0.4,0.6
		h0.1l0.3-0.2h0.1l0.1,0.6l1.3,1.4h0.9h0.6v0.2v0.3l0.1,0.2l0.4,0.3l0.3,0.1h0.1l0.6-0.1l0.4-0.3l0.4-0.2h0.1l-0.4,0.5l-0.3,0.1v0.6
		v0.3v0.2l0.1,0.5v0.2l0.1,0.8v0.8v0.9l0.3,0.5l0.6,1.1v0.5l0.3,0.2l0.1,0.3h0.1h0.3l-0.4-0.3l-0.1-0.2h0.1l0.9,0.2l0.1,0.3V78
		l0.3,0.9l0.3,0.8l0.3,0.5l0.6,1.1l0.6,0.9l0.4,0.5l0.6,1.5l0.4,0.6l0.7,0.9l0.1,0.5l0.4,0.5l0.1,0.2l1,1.2l1.4,1.5l0.7,0.9l1.7,2
		l0.7,0.6l2.4,2.1l0.7,0.9l0.3,0.2l0.9,0.3l0.6,0.5l1.6,1.5l0.4,0.2l0.1,0.3l0.4,0.3l0.3,0.5l0.6,0.5l0.4,0.5l0.4,0.2h0.4l0.1,0.3
		h0.4l1.1,1.1l0.7,0.5l0.1,0.2l0.4,0.5l0.6,0.6l-3,5.7l-3.8,5.7l-7.5-4.6l-2-0.2l-1.4,1.2l-6.7,10.3l-5.4,7.1l-2.1,4.1l-0.7,1.1v0.2
		l-0.3-1.2l-0.4-2.9v-0.8l-0.1-0.9l-0.4-1.1l-2.4-1.5l-0.6-0.3h-0.3l-0.3-0.3h-0.3v0.2l-0.1,0.2h-0.3h-0.6l-0.4-0.2l-0.4-0.5h-0.1
		l-0.1-1.1l-0.4-0.9L317,123l-0.4-1.4l-0.6-1.8l-0.4-1.1l-0.4-0.5l-0.1-0.3l-0.4-0.2l-0.4-0.5l-1.1-1.4l-2.3-1.8l-0.4-0.8l-0.4-0.3
		v-0.3l-0.7-1.2l-0.6-1.5l-0.4-1.4v-0.2l-0.4-1.8l-1-1.8l-0.3-0.8l-0.4-1.5l-0.1-0.2l-0.1-0.3l-0.7-0.2l-0.4-0.2l-0.1-0.3v-0.5
		l-0.1-0.6l-0.4-0.6V99l0.1-0.3l0.3-0.5l0.3-0.5l0.7-0.3l0.6-1.2l1-1.4l0.6-1.2l0.4-0.6l0.4-0.5l1-1.7l0.6-0.5l0.3-0.6l0.1-0.3
		l0.3-0.3l0.4-0.5l0.7-1.1l0.9-1.4l1-1.2l0.1-0.5l1.1-2l9.1-15.5L324,67h0.1h0.7h0.1v0.2h0.3h0.1V67l-0.1-0.5H325l-0.4-0.3l0.3-0.2
		l0.4,0.2l0.1,0.3l0.1,0.5V67.1z M331.1,68.3l-0.6,0.3v-0.3v-0.2l0.1-0.5h0.1h0.3l0.1,0.3l-0.1,0.2V68.3z"/>
	<polygon fill="none" stroke="#6E6E6E" stroke-width="0.78" stroke-linejoin="round" stroke-miterlimit="8" points="374.9,342.6 
		376.6,350.4 375.6,356.3 375.7,361.4 375.9,372.6 371.6,373.2 370.1,372.6 365.2,372.7 363.3,372.7 360.4,371 358.6,370 359.8,368 
		359.8,365.8 359.8,365.5 359.8,365.3 359.8,365 359.8,364.9 359.8,364.7 359.8,364.4 359.8,364.3 359.8,364 359.8,363.8 
		359.8,363.5 359.8,363.3 359.8,361.2 359,359.8 355.2,350.9 347.2,348.3 344.8,348.3 342,349.5 341.9,349.5 340.4,350.9 338,355.7 
		334.6,359.8 328.8,361.2 318.6,357.5 319.5,350.9 318,347.8 317.6,347.2 310.8,334.3 310.7,333.9 311,333.4 312.1,332.3 
		312.4,331.7 312.8,331.1 313.4,330.2 313.8,329.6 314.2,329.1 314.5,328.3 314.6,328 314.8,327.7 314.8,327.6 315.1,327.3 
		315.2,325.7 315.2,325.6 315.5,325.4 315.5,325.1 315.6,324.6 315.9,324.2 316.1,323.9 317.3,322.6 318.9,321.6 320.5,320.8 
		322.7,319.3 325.7,317.7 329.1,315.7 329.5,315.6 330.8,315.1 333.2,314.2 337.2,313 342.7,311.4 349.4,309.4 349.5,309.4 
		350.1,309.4 357.4,309.9 369.5,310.5 369.6,312.7 372.3,329.3 372.5,329.9 374.9,342.3 	"/>
	<polygon fill="none" stroke="#6E6E6E" stroke-width="0.78" stroke-linejoin="round" stroke-miterlimit="8" points="583.3,47.6 
		583.5,47.9 584.1,48.4 584.5,48.8 585.1,49 585.4,49.1 586.5,49.4 586.9,49.4 587.5,49.6 588.8,50 589.3,50.2 590.3,50.7 
		590.9,51.1 592.2,51.7 592.6,51.7 593.2,51.7 593.3,51.7 593.7,51.7 594.2,51.7 595.1,51.7 595.9,52.2 596,52.5 596.6,52.7 
		597.6,53 598.3,53.1 598.8,53.1 599.3,53 599.7,53 600,53.1 600,53.3 600.2,53.6 600,54 599.7,54.8 599.4,55.6 599.3,55.9 
		599,56.2 599.3,56.8 599,57.1 598.8,57.4 598.5,57.7 599,58.3 599,58.8 599,59.3 598.8,59.3 598.5,60 598.3,60.3 598,60.3 
		597.8,60.9 597.6,61.2 597.4,61.4 596.8,62.5 596.1,62.9 596,63.4 595.6,63.9 595.4,64.5 594.6,65.5 594.4,66 594.4,66.2 
		594.6,66.5 594.6,66.9 594.6,67.2 594.4,68.3 594.2,69.2 594.2,69.5 594,69.7 593.3,71.4 593.2,71.7 593,72.6 593,73.4 593,73.8 
		593,74 592.7,74.4 593,76.3 593,76.4 593.2,77.4 593.6,78 593.7,78.1 594,78.4 594.2,78.4 595,78.6 595.4,78.6 595.9,78.9 
		596.1,78.9 596.4,78.9 596.4,79.1 596.4,79.5 595.9,80.4 595.9,80.9 594.7,83 594.6,83.8 594.6,84.1 594.2,86.6 594.4,88.3 
		594.4,88.4 594.6,88.9 594.6,91.3 594.7,93.3 594.7,93.5 594.6,94.9 594.7,96.6 594.7,96.7 595.1,96.7 595.1,97 595.4,97.6 
		595.4,98.7 596,100.1 596,100.2 596,100.5 595.9,100.7 595.4,100.7 594.6,100.7 594.4,100.8 594.2,100.8 594,101.2 593.7,101.3 
		594,101.6 594,101.8 593.7,101.8 594,102.2 593.7,102.2 594,102.4 594,102.8 594,103.3 593.7,103.8 593.3,104.2 593.2,104.4 
		592.2,104.7 591.6,104.7 591.3,104.8 591.2,105 591.3,105.3 591.3,105.5 591.3,105.9 591.3,106.1 590.9,105.9 590.8,105.9 
		590.9,106.1 590.9,106.4 590.9,106.5 591.3,106.4 591.6,106.5 591.7,106.5 592,106.4 592.2,106.1 592.3,105.9 593.2,105.9 
		593.3,105.9 594.4,105.8 595,105.8 596.6,105.5 597.8,105.5 598.3,105.5 598.4,105.5 598.3,105.3 598.3,105 598,104.8 597.8,104.8 
		597.6,104.4 597,103.9 597,103.8 596.8,103.5 597,103.2 597.1,102.8 597.1,102.7 597,102.2 597,101.9 596.6,101.3 596.4,100.8 
		596.4,100.7 596.6,100.8 596.8,101.6 597.1,101.8 597.8,102.2 598,102.4 598.4,102.7 598.8,102.8 599.3,103.2 599.7,103.3 
		600.2,103.8 600.7,103.9 600.8,103.9 601.2,104.2 601.7,104.2 602.1,103.9 602.4,103.8 602.8,103.8 603.2,103.8 603.6,103.9 
		603.8,104.4 604.1,104.8 604.5,105 604.5,105.3 604.2,105.8 604.1,106.1 604.1,106.4 603.8,106.4 603.8,107 603.6,107 603.5,107.3 
		603.2,107.4 603.1,107.4 603.1,107.6 603.2,108.1 603.1,108.1 602.6,107.9 602.4,107.9 602.2,107.9 602.1,107.6 601.8,107.6 
		601.7,107.6 601.2,107.6 600.7,107.6 600.2,107.9 600,107.9 599.8,107.6 599.4,107.6 599.4,107.4 599.4,107.3 599.4,106.5 
		599.4,106.4 599.3,106.1 598.5,105.9 598.3,105.9 597.6,105.9 596.4,106.1 595.9,106.1 594,106.5 593.7,106.5 593.2,106.5 
		592.6,106.8 592,106.8 590.8,107.4 589.8,108.1 589.3,108.4 588.5,109 588.2,109.1 586.8,110.1 586.8,110.4 586.8,111.6 
		586.5,112.1 586.8,113.3 586.9,114.5 586.9,114.8 586.8,116.2 586.5,116.7 586.5,117.1 586.4,117.7 586.1,118.2 586.4,118.8 
		586.4,119.7 586.8,120.8 586.8,121 586.8,121.3 586.8,121.6 586.8,121.9 586.5,122.3 586.4,123 586.1,124.5 586.1,124.6 
		585.9,125.4 585.7,125.7 585.7,126.2 585.7,126.5 585.1,126.9 585.1,127.1 585,129.2 584.5,131.1 584.5,131.4 584.5,132.2 
		584.2,132.8 584.5,133.2 584.2,133.7 584.1,134 584.1,134.5 584,135.2 583.7,135.8 583.5,136.5 583.3,137.4 583.3,138 583.5,138.5 
		583.5,138.9 583.5,139.4 583.5,139.7 583.5,140.1 583.7,140.6 584,140.6 584.1,140.9 584.2,141.1 584.7,141.1 585,141.2 585,141.5 
		585,142 584.2,143.1 584.2,143.5 583.7,144.6 583.7,144.7 583.1,145.7 582.5,146.6 582.1,147.2 581.6,148.1 581.3,148.3 
		580.8,148.3 580.7,148.4 580.1,148.9 579.4,150 579.1,150.4 578.9,150.4 578.7,150.9 578.4,151.4 578.3,151.8 578,152.4 578,153 
		578,153.5 578.3,154 578.3,154.6 578.3,154.9 578,155.5 577.9,156.1 577.3,157 576.6,157.5 576,157.8 575.6,158.7 575.2,159.2 
		574.6,159.3 573.2,160.9 572.8,161.2 572.1,161.8 571.8,162.2 571.4,162.7 571.2,162.7 571.2,162.9 571.1,162.9 571.1,163.2 
		571.1,163.3 570.7,163.9 570.4,164.2 570.2,164.4 570.1,164.7 570.1,165 569.8,165.5 569.8,167 569.8,167.3 569.7,167.6 
		569.2,168.4 569,169.9 569,170.4 568.8,170.5 568.7,170.7 568.2,171 568,171.1 567.5,172.1 567.3,172.7 567,173.8 567.3,174.5 
		567.4,174.7 567.4,174.8 567.4,175.6 567.3,175.6 567.3,175.8 567,176.2 566.4,177.3 566,177.9 565.5,178.2 565.4,178.7 
		565.1,178.7 564.4,179.4 564.1,179.7 564,180.2 563.7,180.4 563.6,181.3 563.4,181.3 563.4,181.4 563.1,181.6 563,181.9 
		562.7,181.9 562.6,182.4 562.3,182.5 562.1,183.1 562.1,183.6 562.1,183.9 562,184 562,183.9 557.5,179.7 553.5,179 552.1,181.3 
		550.5,183.9 549.4,180.4 549.3,180.2 549.3,179.7 549.3,179.4 549.1,179.4 549.1,179.3 549.1,179 549.1,178.8 548.8,178.7 
		548.3,176.4 544.9,174.5 542.9,174.5 542.6,174.5 542.5,174.5 542.2,174.5 542,174.5 541.8,174.5 541.6,174.5 541.5,174.5 
		541.2,174.5 541.1,174.5 540.8,174.5 540.6,174.5 540.3,174.5 540.3,174.2 540.2,174.2 540.1,174.2 539.8,174.2 539.6,174.2 
		539.4,174.2 539.2,174.2 538.9,174.2 536.9,174.2 535.4,173.1 535.1,173 535,173 535,172.7 534.8,172.7 534.5,172.5 534.4,172.5 
		534.1,172.2 534,172.2 534,172.1 533.8,172.1 533.5,171.8 533.4,171.8 533.4,171.6 533.1,171.6 531.7,170.7 531.6,170.5 529.6,169 
		527.7,167.5 525.3,162.7 524.9,160.1 524.3,153.6 523.5,137.5 522.9,108.5 522.6,100.5 522.5,92.6 521.5,88.3 519.8,80.4 
		518.7,75.4 518.8,75.5 519.8,75.4 520.8,75.2 521.9,74.9 522.5,74.9 522.5,74.8 523.4,74.4 524.3,74.3 525.3,74 526.3,74 
		526.8,73.8 527.3,73.7 527.7,73.7 528.2,73.7 528.9,73.4 529.7,73.2 530.7,72.8 531.1,72.6 531.3,72.3 531.6,71.8 531.7,71.8 
		532.1,71.8 532.4,72.1 532.6,72.1 533,72.1 534.8,72.1 536,71.8 536.4,71.7 536.8,71.4 536.8,71.2 537.4,71.1 537.7,70.8 
		537.8,70.3 538.6,70.3 538.9,70.2 539.6,69.2 540.2,68 540.3,67.7 540.6,67.7 541.2,67.5 541.5,67.5 541.8,67.5 542.2,67.5 
		543,67.5 543.5,67.2 544,67.2 544.5,67.1 544.9,66.9 545.3,66.6 545.6,66.6 546.4,67.1 547,67.2 547.7,67.2 548.8,67.2 549.1,67.2 
		549.8,67.2 550.5,67.1 551.1,66.9 552.5,66.2 552.5,66 552.9,65.7 553.1,65.7 553.2,66 553.5,66.2 553.7,66.5 553.9,66.2 
		553.7,66.2 553.2,65.7 553.2,65.5 553.5,65.4 553.7,65.4 554.4,65.4 554.6,65.5 555.1,65.5 555.8,65.5 555.9,65.5 556.1,65.5 
		556.9,65.7 558.2,65.5 558.5,65.5 558.9,65.4 559.3,64.9 559.7,64.6 559.9,64.6 560.2,64.2 560.6,64.2 561,64 561.2,63.9 
		561.6,63.5 562.1,63.5 562.6,63.4 563.1,63.4 563.4,63.4 563.7,62.9 564,62.9 564.8,62.8 565.1,62.5 565.4,62.3 565.5,62 
		565.8,61.9 565.8,61.6 566.1,61.4 566.8,61.2 567.5,60.9 568,60.5 568.2,60.5 568.8,60 569.2,59.9 570.2,59.7 570.7,59.4 
		570.8,59.3 571.4,58.5 572.1,57.9 572.5,57.4 572.8,57.1 573.5,55.7 573.9,55.1 574,54.8 574,54.6 574.2,54.2 574.5,53.6 
		574.5,53.3 574.6,52.7 574.9,52.2 575.2,51.6 575.2,51.4 574.9,51.7 574.5,52.7 574.2,53.1 574.2,53.6 574,54.6 573.9,54.6 
		574.5,52.2 574.9,51.6 574.9,51.4 575,51.1 575.9,50.2 576,50.2 576.6,49.9 577.3,49.9 577.4,49.6 577.4,49.4 577.7,49.1 
		577.9,49.1 578.3,49.4 579.1,49.6 580.1,49.1 580.8,48.8 581.1,48.8 581.7,48.5 582.3,48.4 582.5,48.1 583,48.1 583.1,47.9 
		582.7,47.9 582.5,47.9 582.3,48.1 582.1,48.1 582.3,47.6 582.5,47.6 583.1,47.6 	"/>
	<polygon fill="none" stroke="#6E6E6E" stroke-width="0.78" stroke-linejoin="round" stroke-miterlimit="8" points="473.1,300.9 
		469.6,327 472.4,328.4 481.1,332.9 480.6,333.3 480.4,333.5 479.7,334.8 478.8,335.9 478,337 477.8,337.2 476.8,338.1 476,339 
		476,339.1 475.5,339.8 475,340.2 475,340.5 474.8,340.7 473.8,341.8 472.1,343.8 472,344.2 470.7,345.4 468.9,347.7 466.9,350.3 
		465.9,351.1 465.3,351.9 462.9,354.2 462.5,354.6 462.1,354.9 461.2,356 460.7,356.6 459.7,357.6 459.7,357.7 459.2,358.2 
		459.1,358.6 458.4,359.2 458.1,359.7 457.1,361.2 455.8,362.5 454.6,363.8 454,364.8 453.6,364.9 453.4,364.9 431.2,349.4 
		431.6,336.8 431.5,336.5 423,329.3 421.5,317.8 425,310.1 425.7,305.4 425.8,304.9 419.1,306.9 407.8,303.8 406.5,300.9 
		401.8,289.9 435.9,252.1 436.4,251.5 473,260.1 464.3,280.1 468.6,286.8 473.1,300.5 	"/>
	<polygon fill="none" stroke="#6E6E6E" stroke-width="0.78" stroke-linejoin="round" stroke-miterlimit="8" points="310.8,334.3 
		317.6,347.2 318.1,347.8 319.5,350.9 318.6,357.5 318.1,373 318.1,374.1 318.1,379.4 318.1,380.4 312.2,381 303.6,380.1 
		300.8,379.9 298.8,391.9 298.8,392.2 297.9,397.4 297.8,398.5 294,421.7 267.8,422 260.3,447.3 245.5,448.5 245.5,430.7 
		245.5,421.8 245.5,408.3 245.5,389.3 256.6,377.3 257.3,376.7 275.4,348.4 277,345.8 277.1,345.7 277.4,345.4 277.5,345.2 
		278.2,344.6 278.4,344.1 278.4,343.7 278.2,343.7 278.4,343.2 279,342.3 279.2,342.3 279.2,342.1 279.4,341.7 280.2,341.7 
		280.4,341.5 281.4,340.4 281.8,339.5 282.2,339.4 282.6,338.9 282.8,338.6 283.2,338.6 283.5,338.6 285,338.6 286.9,338.6 
		288.9,338.5 290.4,338.5 291.1,338.5 292.8,338.1 294,338 294.5,338 295.5,337.8 296.5,337.8 296.9,337.5 297.4,337.8 298.4,337.8 
		298.8,337.5 299.2,337.5 299.5,337.4 299.9,337.4 300.3,337.1 300.8,337.1 302.2,336.5 303.2,335.8 303.6,335.8 304,335.5 
		304.3,335.5 304.6,335.5 305,335.4 305.2,335.4 305.6,335.4 306,335.4 308.3,335.4 308.6,335.4 308.8,335.2 309.4,334.8 
		309.8,334.5 310.4,334 310.7,333.8 	"/>
	<polygon fill="none" stroke="#6E6E6E" stroke-width="0.78" stroke-linejoin="round" stroke-miterlimit="8" points="407.8,303.8 
		419.2,306.9 425.8,304.9 425.7,305.3 425,310.1 421.6,317.8 423,329.3 431.5,336.5 431.6,336.8 431.2,349.4 425.7,352.9 421,361.2 
		420,362.7 418.7,364 418.2,365 418.2,365.3 418.2,365.5 418,365.8 418,365.9 418,366.1 418,366.4 417.8,366.4 417.8,366.6 
		417.8,366.9 417.8,367 417.6,367 417.6,367.3 417.6,367.5 417.6,367.6 417.3,367.6 417.3,367.9 417.3,368.1 416.6,371 416.3,371.2 
		415.8,373.1 393.7,374.8 392.8,375.1 388.6,374.7 385.7,373.1 379.4,372.7 375.8,372.5 375.7,361.3 375.5,356.3 376.5,350.4 
		374.8,342.6 374.8,342.3 372.4,329.9 372.3,329.3 369.6,312.7 369.4,310.5 382.8,311 383.3,310.2 385.6,307.9 401.9,289.8 
		406.6,300.9 	"/>
	<polygon fill="none" stroke="#6E6E6E" stroke-width="0.78" stroke-linejoin="round" stroke-miterlimit="8" points="313.8,439.9 
		323.6,455.4 323.8,455.9 326.4,459.6 326.7,460 332.6,469.2 332.2,469.4 331.5,470 331.5,470.3 331.4,470.4 329.5,472.4 
		328.4,473.5 327.5,474.6 325.5,477 324.7,478.1 323.6,479.3 322.8,480.3 322.4,480.6 321.7,481.3 321.1,482.3 305.4,482.7 
		305.1,482.3 301.9,467.4 301.6,466.3 294.9,445.1 291.2,445.4 287,445.6 284.9,445.6 260.2,447.3 267.7,422 293.9,421.7 
		295.9,422.9 296.1,422.9 296.1,423.2 298,424.3 299.7,426 299.9,426.3 300.2,426.4 300.3,426.6 300.5,426.6 300.5,426.9 
		300.7,426.9 300.7,427 300.9,427 300.9,427.4 301.2,427.5 301.3,427.5 301.3,427.7 301.6,427.7 301.6,428 301.7,428 301.7,428.1 
		301.9,428.1 301.9,428.4 302.2,428.4 302.2,428.6 302.3,428.6 302.3,428.9 302.6,428.9 302.6,429 302.7,429 302.7,429.2 303,429.2 
		303,429.5 303.1,429.5 303.1,429.6 303.3,429.6 303.6,430 303.7,430.1 304,430.1 304,430.4 304.1,430.4 304.1,430.6 304.3,430.6 
		304.3,430.7 304.6,430.7 304.6,431 304.7,431 304.7,431.2 305,431.5 305.1,431.5 305.1,431.6 305.4,431.6 305.4,431.8 305.6,431.8 
		305.6,432.1 305.7,432.1 305.7,432.3 306,432.3 306,432.6 306.1,432.6 306.1,432.7 306.4,432.7 306.4,433 306.5,433 306.8,433.2 
		306.8,433.3 307,433.3 307.1,433.6 307.4,433.8 307.5,434.1 307.8,434.3 308,434.6 308.2,434.7 308.4,434.9 308.5,434.9 
		308.5,435.2 308.8,435.2 308.8,435.3 309,435.3 309,435.6 309.2,435.6 309.2,435.8 309.4,435.8 309.4,435.9 309.5,435.9 
		311.2,437.8 313.1,439 	"/>
	<path fill="none" stroke="#6E6E6E" stroke-width="0.78" stroke-linejoin="round" stroke-miterlimit="8" d="M305.1,482.3l0.3,0.5
		l15.7-0.5l-1.1,1.2l-0.3,0.5l-1.1,1.1l-0.7,1.2l-0.3,0.2l-0.3,0.2l-0.4,0.9l-1,1.1l-1.4,1.8l-0.7,0.6l-0.1,0.2l-2.7,3.4l-0.3,0.3
		l-1.3,1.4l-0.1,0.2l-0.4,0.5l-1,0.9l-0.9,0.9l-0.6,0.8l-0.7,0.8l-0.6,0.6l-0.4,0.2l-2.1,2.5l-0.9,0.5l-0.1,0.2l-0.7,0.6l-0.1,0.5
		l-0.6,0.9l-0.4,0.6v0.3l-0.3,0.3v0.3h-0.1v0.2h0.1v0.3h-0.1l-0.1,0.1l-0.3-0.1h-0.1l-0.4,0.1l-0.4,0.3l-0.8,1.2l-0.4,0.5l-0.1,0.2
		v0.3v0.2l0.1,0.3l0.3,0.2l-0.3,0.2v0.3h-0.1v0.2l-0.1-0.2l0.1-0.5h-0.1h-0.3l-0.1,0.2v0.3h-0.3l-0.1,0.5l-0.3,0.2l-0.6,0.5
		l-0.4,0.5l-0.1,0.5l-0.1,0.2l-0.3,0.6l-1,0.8l-0.1,0.5l-0.3,0.2l-0.4,0.5l-0.1,0.2l-0.4,0.6l-0.1,0.3v0.2v0.3h-0.3l-0.6,0.6
		l-0.1,0.6l-0.3,0.3l-0.9,0.8l-0.1,0.3v0.2v0.3v0.2h-0.4h-0.1v0.5l-0.4,0.2v0.5l-0.4,0.5l-0.1,0.2l-0.3,0.3l-0.4,0.5l-0.1,0.5
		l-0.6,0.6l-0.7,0.5H285h-0.1l-0.3,0.2l-0.6,0.3h-0.3h-0.3h-0.7h-0.4l-0.1,0.3h-0.1l-0.3-0.3v-0.3l0.3-0.9l0.3-0.6v-0.2v-0.5
		l0.7-0.6V522h-0.3v0.2h-0.1v0.5l-0.4,0.5l-0.4,0.9l-0.1,0.2h-0.3h-0.1h-0.1h-0.3h-0.6l-0.3-0.5l-0.1-0.2l0.4-1.5v-0.5l-0.3-0.3
		h-0.1v0.3v0.2l-0.1,1.5l-0.3,0.5l0.3,0.3l0.1,0.3l0.1,0.3h0.3h0.1l0.7-0.3h0.3h0.3v0.3v0.6v0.3v0.2l0.1,0.2l0.3,0.3h0.1l0.4-0.3
		l0.4-0.2v0.2l0.1,0.3v0.2l-0.4,0.9l-0.1,0.2v0.5v0.3h-0.4l-0.4,0.3l-0.1,0.5l-0.3,0.3l-0.1,0.8l-0.1,0.5l-0.4,0.5l-0.3,0.2
		l-0.6,0.5l-0.1,0.3v0.2h-0.3l-0.1-0.2v-0.3l0.1-0.6v-0.5l-0.4-0.5v-0.2l0.3-1.4v-0.2l-0.3-0.2v-0.3l-0.6-0.6l-0.4-0.3h-0.4h-0.1
		h-0.3v0.3l0.3,0.2h0.1l0.3-0.2h0.1l0.3,0.2l0.1,0.5l0.4,0.5l0.1,0.2l-0.1,0.9v0.9v0.1v0.3l0.1,0.2v0.5v0.5v0.5h0.4v0.2v0.2
		l-0.6,0.9v0.3v0.3v0.3l-0.4,0.5l-0.1,0.3l-0.7,1.2v0.2l-0.1,0.2l-0.6,0.5l-0.3,0.8l-0.1,0.3l-0.3,0.3l-0.1,0.2v0.3l0.1,0.2l0.7-0.6
		h0.1v0.2v0.3l-0.4,0.2v0.3l-0.4,0.2l-0.3,0.2v-0.2h0.1l-0.1-0.2l-0.3,0.2h-0.1l-0.3-0.2l-0.1-0.3v-0.2l-0.3-0.3v-0.5v-0.2l-0.3-0.2
		H274l-0.3-0.3l-0.4-0.2v-0.5l-0.1,0.2l-1-0.2l-0.6,0.6l-0.4,0.3l-0.6,0.3l-0.7,0.8l-0.1,0.5l-0.3,0.3l-0.1,0.8l0.4-0.5l0.1-0.5
		v-0.2l0.3-0.5l1-0.9l0.4-0.5l0.7-0.5h0.3l0.6,0.3l0.4,0.2l0.1,0.3l0.7,0.2v0.2v0.3l0.1,0.9l0.1,0.8v0.5l-0.3,0.5l-0.4,0.9l-0.7,1.2
		l-1,1.5l-0.7,0.9v0.2v0.3l-0.7,0.8l-0.3,0.9l-0.7,0.9l-0.1,0.6l-0.3,0.5l-1,1.7l-1,1.5l-0.4,0.5h-0.1l-0.1,0.5l-0.4,0.6l-0.3,0.5
		h0.3l0.1,0.2l-0.1,0.3l-0.3,0.2l-0.1-0.2h-0.3l-0.1,0.2l-0.1,0.5v0.2h-0.3v-2.3l-19.5-28.5v-23.8v-7.7v-45.6l14.7-1.2l24.6-1.7h2.1
		l4.3-0.2l3.7-0.3l6.7,21.2l0.3,1.1L305.1,482.3z M299.3,508.7l-0.4,0.5h-0.1v-0.3h0.1h0.3v-0.3h0.1l0.1-0.3v0.3L299.3,508.7z
		 M291.7,518.7v0.3h-0.4h-0.1v-0.3h0.1v-0.2l-0.1-0.2h0.1l0.4-0.3l0.1-0.5h0.3v0.3v0.2l-0.4,0.5V518.7z M289.4,522l-0.1,0.2V522
		l0.1-0.5l0.3-0.3l0.4-0.2l0.1-0.2h0.1l-0.1,0.2l-0.4,0.2l-0.1,0.5L289.4,522z M288.8,522.5h-0.1v-0.3l0.3-0.2v0.2v0.3H288.8z
		 M288.3,523.6L288,524h-0.1v-0.3l0.1-0.2l0.3-0.3l0.1,0.3H288.3z M286.6,525.6l-0.4,0.3l-0.3,0.5l-0.3,0.3l-0.1,0.2h-0.3l-0.1,0.2
		v0.5l-0.1,0.3l-0.3-0.3l0.3-0.2v-0.3l0.1-0.2v-0.2l0.6-0.3v-0.2l0.3-0.5h0.3v-0.5h0.3l0.1-0.2l0.4-0.3l0.6-0.8l0.3,0.2l-0.3,0.2
		l-0.3,0.5l-0.4,0.3L286.6,525.6z M284,528.5v-0.2l0.1-0.2v0.2L284,528.5z M283.7,529.4l-0.1,0.5l-0.1-0.2v-0.3h0.1v-0.2v-0.3h0.1
		v0.3V529.4z M281.2,532.5h-0.1l-0.3-0.2h-0.1l0.1-0.3h0.3l0.1-0.2l0.1-0.5l0.3-0.3h0.1v-0.2h0.3l-0.3,0.2v0.3v0.2h-0.1v0.3
		l-0.3,0.2h-0.1v0.3h0.1L281.2,532.5z M279.6,534.6l-0.4,0.3v-0.3l0.4-0.2l0.1-0.3l0.1,0.3l-0.1,0.2H279.6z M277.5,537.7h-0.1h-0.3
		l0.3-0.2l0.4-0.5l0.1-0.5h0.3h0.1l-0.1,0.2v0.3l-0.4,0.5L277.5,537.7z"/>
	<polygon fill="none" stroke="#6E6E6E" stroke-width="0.78" stroke-linejoin="round" stroke-miterlimit="8" points="538.1,212.3 
		543.3,218.6 542.9,219.2 541.6,221.2 540.6,222.4 540.2,223.2 539.7,223.9 539.1,224.9 538.7,225.5 537.8,226.9 537.2,227.5 
		535.7,230.5 535.4,230.7 534.6,231.6 533.8,233.2 533.4,234.2 533,234.7 532.4,235.6 532,236.2 531.9,236.7 531.6,236.8 
		531.4,237.6 531.1,237.8 530.7,238.7 530.7,238.8 529.7,240.5 529.7,240.8 529.6,241 529.3,241.3 528.7,242.5 528.6,242.8 
		528.2,243.4 528,243.9 528,244.5 527.7,245.1 527.2,247.1 526.8,247.6 526.6,248.5 526.2,249.3 525.9,249.7 525.8,250.2 
		525.3,251.3 524.8,252.6 523.9,255.4 523.9,255.9 523.8,256.3 523.8,257.9 523.5,258.6 523.8,259.1 523.8,259.6 523.8,260.2 
		523.8,260.5 522.9,262.8 522.8,263.7 522.5,264 522.1,264.8 521.9,265.2 520.5,268.9 520.2,269.2 519.7,270.4 519.1,271.4 519,272 
		518.3,273.1 518.1,273.1 517.6,274.4 517.3,274.9 516.7,276 516.1,277 515.9,277.2 515.1,279 513.7,281.2 513.4,281.3 511.5,284.9 
		511.2,285 510,287.3 509.5,288.9 509.2,289.3 508.8,289.6 506.6,293 506.2,293.6 505.2,294.7 504.9,294.9 504.9,295.2 504.9,295.3 
		504.8,295.6 504,296.7 501.4,300.2 501.4,300.4 501.1,300.4 499.7,302.5 499.4,303.3 499.4,303.4 499,303.6 498.7,304.1 
		498.7,304.4 497.3,306.1 496.6,307 496.2,308 495.9,308 495.3,309.1 494.8,310 494.2,311.1 493.3,312.3 492.3,314.3 492.1,315.3 
		491.8,315.9 490.5,318.3 490.4,318.5 490.4,318.9 489.9,319.6 489.5,320.5 488.5,322 488.1,322.5 487.9,323.1 487.1,324.3 
		486.7,325.2 486.2,326.2 485.8,326.6 485.4,327.7 484.4,328.9 483.3,330.3 482,331.4 481.6,331.8 481,332.6 480.9,332.9 
		472.2,328.5 469.4,327.1 472.9,301 472.9,300.5 468.4,286.9 464.2,280.1 472.8,260.2 436.3,251.6 448.6,237.8 464.6,220.1 
		471.4,212.6 471.5,212.6 503.8,218.1 504.8,217.5 521.9,206.9 522.8,206.9 527.3,207.4 530.2,208.8 536,211.8 	"/>
	<polygon fill="none" stroke="#6E6E6E" stroke-width="0.78" stroke-linejoin="round" stroke-miterlimit="8" points="525.3,162.7 
		527.7,167.5 529.6,169 531.6,170.6 531.7,170.7 533.1,171.6 533.4,171.6 533.4,171.8 533.5,171.8 533.8,172.1 534,172.1 534,172.2 
		534.1,172.2 534.4,172.5 534.5,172.5 534.8,172.7 535,172.7 535,173 535.1,173 535.4,173.2 536.9,174.2 538.9,174.2 539.2,174.2 
		539.3,174.2 539.6,174.2 539.8,174.2 540.1,174.2 540.2,174.2 540.3,174.2 540.3,174.5 540.6,174.5 540.8,174.5 541,174.5 
		541.2,174.5 541.5,174.5 541.6,174.5 541.8,174.5 542,174.5 542.2,174.5 542.5,174.5 542.6,174.5 542.9,174.5 544.9,174.5 
		548.3,176.4 548.8,178.7 549.1,178.8 549.1,179 549.1,179.3 549.1,179.5 549.3,179.5 549.3,179.8 549.3,180.2 549.4,180.4 
		550.5,183.9 552.1,181.3 553.5,179 557.5,179.8 562,183.9 562,184.1 561.7,184.1 561.6,184.4 561.3,184.4 561.2,184.7 561.2,185.1 
		561.2,185.4 561,185.6 561,186.2 561,186.7 560.7,187.1 560.6,187.3 560.3,188.8 559.9,189.3 559.8,189.3 559.8,189.6 558.5,190.7 
		557.9,191.1 557.8,191.3 557.3,191.4 556.5,191.9 555.9,192.4 555.4,192.7 554.1,193.9 553.7,194.5 553.5,194.5 552.7,195.9 
		552.1,196.3 551.1,197.6 551.1,197.9 550.8,197.9 550.7,197.9 550.3,197.6 550.5,197.9 550.7,198 550.3,198.6 549.8,199.1 
		549.7,199.9 549.4,200.6 549.4,202 549.3,203.1 549.4,203.2 549.4,203.5 549.4,203.7 549.7,204 549.7,204.2 549.8,204.2 
		550.3,204.2 550.3,204.3 550.1,204.6 550.1,204.8 550.3,205.1 549.8,205.7 550.1,205.9 549.8,206.6 549.4,206.8 549.1,207.4 
		548.8,207.8 548.4,208.1 548.4,208.3 548.3,208.5 548,209.2 547.8,209.5 547.8,210.5 547.7,210.9 547.7,211.4 547,212.6 
		545.9,214.9 545.6,215.2 545.4,215.7 544.9,217 543.9,218.6 538.6,212.3 536.5,211.8 530.7,208.8 527.9,207.4 523.3,206.9 
		522.5,206.9 505.3,217.5 504.4,218.1 472.1,212.6 471.9,212.6 486.6,196.3 484.8,196.3 484.2,196.3 484.9,195.4 491.5,188.5 
		488.8,187.3 506.3,167 512.1,167 524.3,153.7 524.9,160.1 	"/>
	<polygon fill="none" stroke="#6E6E6E" stroke-width="0.78" stroke-linejoin="round" stroke-miterlimit="8" points="511.2,72.9 
		511.6,72.9 513.6,73.4 514.3,73.7 514.4,73.8 515.3,74 515.8,74.4 516.7,74.8 517.2,75.2 518.2,75.4 518.7,75.4 519.8,80.4 
		521.5,88.3 522.5,92.6 522.6,100.6 522.9,108.5 523.5,137.5 506.9,138.6 506.3,138.6 489.8,140.2 489,140.2 469.5,141.5 456,142.5 
		454.9,142.6 449.5,142.8 447.1,143.2 445.6,142 445.6,141.7 445.3,141.7 445.1,141.5 444.8,141.5 444.8,141.2 444.7,141.2 
		444.7,141.1 444.4,141.1 444.4,140.9 444.3,140.9 444.1,140.6 443.9,140.5 443.7,140.5 443.7,140.2 443.4,140.2 443.4,140 
		443.3,140 443.1,139.7 442.9,139.7 442.9,139.5 442.7,139.5 442.7,139.4 442.4,139.4 442.3,139.1 442,138.9 441.9,138.9 
		441.9,138.6 441.7,138.6 441.7,138.5 441.4,138.5 441.3,138.3 441,138 440.9,138 440.9,137.9 440.6,137.9 440.6,137.5 440.5,137.5 
		440.5,137.4 440.3,137.4 440,137.4 440,137.1 439.9,137.1 439.9,136.9 439.6,136.9 439.6,136.8 439.5,136.8 439.3,136.5 439,136.3 
		438.9,136.3 438.9,136 438.6,136 438.6,135.9 438.5,135.9 438.2,135.6 438.1,135.4 437.9,135.4 437.9,135.2 437.6,135.2 
		437.6,134.9 437.5,134.9 437.2,134.8 437.1,134.8 437.1,134.5 436.8,134.5 436.8,134.3 436.6,134.3 436.5,134 436.2,133.9 
		436.1,133.9 436.1,133.7 435.8,133.7 435.8,133.4 435.6,133.4 435.6,133.3 435.4,133.3 435.2,132.9 435.1,132.9 435.1,132.8 
		434.8,132.8 434.8,132.6 434.6,132.6 434.6,132.3 434.4,132.3 434.2,132.3 434.2,132.2 434.1,132.2 434.1,131.9 433.8,131.9 
		433.8,131.7 433.7,131.7 433.4,131.4 433.2,131.3 432.9,131.3 432.9,131.1 432.8,131.1 432.8,130.8 432.7,130.8 432.4,130.6 
		432.2,130.6 432.2,130.3 432,130.3 432,130.2 431.8,130.2 431.5,129.9 431.4,129.7 431.2,129.6 431,129.6 431,129.3 430.8,129.3 
		430.8,129.1 430.5,129.1 430.4,128.8 430.3,128.6 430,128.6 430,128.5 429.8,128.5 429.8,128.2 429.5,128.2 429.4,128 429.1,128 
		429.1,127.7 429,127.7 429,127.6 428.8,127.6 428.8,127.3 428.6,127.3 428.4,127.1 428.1,127.1 428.1,127 428,127 428,126.6 
		427.7,126.6 427.7,126.5 427.6,126.5 427.4,126.2 427.1,126.2 427.1,126 427,126 427,125.7 426.7,125.7 426.6,125.6 426.3,125.4 
		426.1,125.1 426,125.1 426,125 425.7,125 425.7,124.7 425.6,124.7 425.3,124.5 425.2,124.3 425,124.3 425,124 424.7,124 
		424.7,123.9 424.6,123.9 424.3,123.6 424.2,123.6 424.2,123.4 423.9,123.4 423.9,123.1 423.7,123.1 423.6,123 423.3,122.8 
		423.2,122.8 423.2,122.5 422.9,122.5 422.9,122.4 422.7,122.4 422.7,122 422.5,122 422.3,122 422.3,121.9 422.2,121.9 422.2,121.6 
		421.9,121.6 421.9,121.4 421.8,121.4 421.5,121.3 421.3,121.3 421.3,121 421.2,121 421.2,120.8 420.9,120.8 420.9,120.5 
		420.8,120.5 420.5,120.4 420.3,120 420.1,120 420.1,119.9 419.9,119.7 418.5,118.7 419.3,92.9 419.5,92.9 419.8,93 421.5,93.3 
		421.9,93.3 423.9,92.9 425.2,92.6 426.3,92.6 426.6,92.6 427.1,93 428,93.6 428.1,93.6 428.4,93.9 429.1,95.2 430,95.9 430.3,96.1 
		431,96.1 431.4,96.1 431.8,96.2 432.2,96.2 432.4,96.2 433.7,96.2 435.1,95.6 435.2,95.6 436.1,95.2 438.1,94.6 438.5,94.6 
		439,94.6 439.5,94.4 439.9,94.4 440.3,94.1 441,93.9 441.9,93.3 442.4,93 442.9,92.6 443.1,92.6 443.7,92.4 444.3,91.9 444.7,91.9 
		445.1,91.5 445.3,91.5 445.7,91.3 445.8,91 446.3,90.9 446.7,90.7 447,90.4 447.1,90.3 447.2,90 448,89.8 448.1,89.5 448.5,89.2 
		448.7,88.9 449.1,88.4 449.5,88.3 449.9,88.3 449.9,88 450.1,88 450.4,87.7 451.1,87.7 451.4,87.7 451.5,87.2 451.9,87.2 
		452.4,86.9 452.5,86.7 452.8,86.6 452.8,86.1 452.9,85.8 453.2,85.8 453.5,85.8 454.3,85.7 454.8,85.3 455.3,85.2 456,85 
		456.2,84.6 456.3,84.3 456.3,83.8 456.6,83.5 456.7,83.5 457.5,82.7 457.6,82.6 457.6,82.1 457.7,82 459.2,81.5 460,81 460.9,80.9 
		460.9,80.6 461.4,80.1 462,80 462.6,79.5 463.3,79.5 464,78.9 464.8,78.6 465.7,78.4 466.1,78 466.5,78 467.1,77.8 467.8,78 
		468.2,77.8 468.5,77.8 468.9,77.8 469.5,77.5 470.1,77.5 471.1,77.8 471.5,77.8 471.6,78 471.9,78.1 472.5,78.6 473,79.4 
		473.5,79.5 474.2,80 474.7,80.1 475.5,80.9 475.7,80.9 475.7,81 476.2,81 476.7,81 477.3,80.9 479,80.1 479.7,80 480.1,79.7 
		480.7,80 481.5,80.1 482.4,80.1 483,80.1 483.9,80 483.9,79.7 484.2,79.7 484.4,79.7 484.9,80 485.9,80.1 486.6,80 487.2,80.1 
		487.8,80 488.5,80 489,79.7 489.6,79.7 490.2,79.5 490.5,79.5 490.6,79.7 491.2,79.5 491.6,79.7 492.3,79.5 493,78.9 493.4,78.6 
		493.6,78.4 493.9,78 494,77.8 494.3,77.8 494.7,77.4 495,76.9 495.3,76.8 496.8,76.4 497.3,76.3 497.7,75.8 497.8,75.8 498.1,75.4 
		498.3,75.4 498.7,75.2 498.8,74.8 499.2,74.3 500.2,74.3 500.2,74 500.5,73.8 500.9,73.8 501.5,73.8 502.9,73.8 503.4,73.8 
		503.8,73.7 504.8,72.9 505.2,72.8 505.5,72.8 505.8,72.8 506.8,72.9 507.8,72.9 508.3,72.8 509.2,72.3 509.7,72.3 510,72.3 	"/>
	<polygon fill="none" stroke="#6E6E6E" stroke-width="0.78" stroke-linejoin="round" stroke-miterlimit="8" points="445.5,374.9 
		445.4,375.2 443.8,376.8 443.8,377.2 443.4,377.3 442.4,378.7 441,380.1 439.3,381.9 438.7,382.5 437.7,383.6 436.3,384.7 
		436.2,385 435.5,385.4 434.9,385.7 433.8,387 433,387.3 432.6,387.7 431.6,388.8 430.9,389.7 429.6,390.6 429.5,390.8 429.2,391.1 
		429.2,391.4 429.1,391.7 428.8,391.7 428.5,391.9 428.2,392.3 428.1,393.3 427.7,393.7 426.8,394.3 426.7,394.3 426.4,394.8 
		425.7,395.2 425.2,395.6 424.4,396.8 423.8,397.4 423.8,397.6 423.5,397.6 423.5,398 423.3,398.2 422.6,398.6 422.1,399.1 
		422.1,399.4 422,399.7 421.8,400 421.4,400.6 421,400.9 420.4,401.2 420,401.7 418.7,403.1 418,404.1 417.7,404.1 417.2,404.6 
		416.3,405.1 415.6,405.8 415.3,405.8 414.3,406.8 414.2,406.8 413.5,407.2 412.1,408 412.1,408.3 411.9,408.3 411.5,408.4 
		411.4,408.4 411.1,408.7 410.9,408.9 410.7,408.9 410.5,408.9 409.5,409.8 408.3,410.7 407.1,411.4 406.8,411.5 406.6,411.8 
		406.1,412.3 405.8,412.3 405.7,412.4 405.4,412.4 404.7,412.9 403.7,413 399.2,413.5 398.2,413.7 396.8,414.1 394.8,413 
		394.8,411.1 394.9,395.6 394.9,395.4 394.9,395.2 395.2,393 394.8,392.6 393.9,391.1 390.4,385.4 390.1,385.4 390.1,385.1 
		390.1,385 390,385 390,384.7 389.7,384.7 389.7,384.5 389.7,384.2 389.5,384.2 389.5,384.1 389.4,384.1 389.4,383.9 389.1,383.6 
		389.1,383.4 389,383.1 388.7,383 388.7,382.8 388.6,382.8 387.6,381 387.1,378.8 386.7,377.3 386.7,377.2 386.7,376.8 386.6,376.8 
		386.6,376.7 385.7,373.2 388.6,374.7 392.8,375.2 393.7,374.9 415.8,373.2 416.3,371.2 416.6,371 417.3,368.1 417.3,368 
		417.3,367.6 417.6,367.6 417.6,367.5 417.6,367.3 417.6,367 417.7,367 417.7,366.9 417.7,366.6 417.7,366.4 418,366.4 418,366.1 
		418,366 418,365.8 418.2,365.5 418.2,365.3 418.2,365 418.7,364 420,362.7 421,361.2 425.7,352.9 431.2,349.4 453.4,364.9 
		453.6,364.9 453,365.5 452.4,366.1 451.2,367.6 451,368 449.2,369.9 448.1,371.5 447.8,371.6 446.6,373.6 	"/>
	<polygon fill="none" stroke="#6E6E6E" stroke-width="0.78" stroke-linejoin="round" stroke-miterlimit="8" points="390.6,421.7 
		390.6,421.7 390.4,421.7 390.1,421.7 390,421.7 389.6,421.8 389,422.4 388.2,422.8 388,422.8 387.6,423.2 387.3,423.2 387,423.2 
		386.6,423.4 386.3,423.5 385.9,423.8 385.6,424 385.3,424.3 384.6,424.9 384.3,424.9 383.3,425.5 382.5,426.3 381.9,426.4 
		381.1,427 380.6,427.4 380.5,427.4 379.4,428.4 377.1,429.7 376.8,429.7 375.3,431 375.1,431.2 374.8,431.5 374.8,431.7 
		374.4,431.7 374.1,432.1 373.7,432.3 372.9,433 372.4,433.2 372,433.2 371.6,433.6 371,434.1 370.5,434.9 370.3,434.9 369.9,434.9 
		369,435.8 368.6,435.9 368,436.7 367.6,436.9 367.1,437.5 366.8,437.5 366.6,437.8 366.2,437.9 366.1,438.3 365.2,439 363.4,440.6 
		362.8,441 361.8,441.9 361.4,442.4 360.1,443.2 360,443.5 359.4,444.1 358.7,444.5 357.6,445.6 356.7,446.5 356.6,446.7 
		356.6,447.2 354.7,448.5 353.9,449.3 353.7,449.6 353.7,449.8 353.6,450.1 353.7,450.4 353.6,450.4 353.2,450.4 352.8,450.7 
		350.8,452.4 350.8,452.7 350.3,453 349.6,453.9 349.6,454.2 349.3,453.9 349.1,454.2 348.4,455 347.7,455.4 347.5,455.4 
		346.9,456.1 346.9,456.4 347.1,456.5 346.9,456.8 346.5,456.8 346.1,456.8 345.5,457.4 344.7,458 344.5,458 343.7,458.7 
		343.3,459.1 343.1,459.4 342.4,459.7 342,460 341.4,460.5 341,461 340.6,461.3 340.4,462 340.3,462.2 339.3,463.1 338.2,463.6 
		337.9,464 337.2,464.7 336,465.7 334.8,466.9 334.8,467.3 333.8,468.2 333.4,468.5 332.9,468.9 332.6,469.3 326.7,460 326.4,459.6 
		323.9,455.9 323.6,455.4 313.8,439.9 325.3,433.8 325.6,433.6 334.6,428.9 334.8,428.6 344.8,424.3 345.7,424 364.8,414.9 
		371.4,411.5 371.3,411.1 371,409.2 371,408.9 371,408.8 371,408.5 371,408.3 371,408 371,407.9 371,407.7 370.9,407.4 370.9,407.3 
		370.9,406.9 370.9,406.8 370.9,406.6 370.9,406.3 370.9,406.2 370.9,405.9 370.9,405.7 370.6,405.4 370.6,405.3 370.6,405.1 
		370.6,404.8 370.6,404.6 370.6,404.3 370.6,404.2 370.5,402 370.6,399.4 371.4,394.5 371.4,394.4 371.6,391.9 371,389.6 
		371.4,387.3 371.4,387.1 371.4,387 371.6,387 371.6,386.7 371.6,386.5 371.6,386.2 371.6,386.1 371.9,385.8 371.9,385.6 
		371.9,385.5 371.9,385.1 371.9,385 372,384.7 372,384.5 372,384.2 372,384.1 372,383.9 372.3,383.9 372.3,383.6 372.3,383.5 
		372.3,383.2 372.3,383 372.9,380.5 372,376.3 372,375.9 372,375.8 372,375.6 371.6,373.2 375.8,372.6 379.4,372.7 385.7,373.2 
		386.6,376.7 386.6,376.9 386.7,376.9 386.7,377.2 386.7,377.3 387.2,378.9 387.6,381 388.6,382.9 388.7,382.9 388.7,383 389,383.2 
		389.1,383.5 389.1,383.6 389.4,383.9 389.4,384.1 389.6,384.1 389.6,384.2 389.7,384.2 389.7,384.5 389.7,384.7 390,384.7 390,385 
		390.1,385 390.1,385.1 390.1,385.5 390.4,385.5 394,391.1 394.8,392.7 395.2,393 394.9,395.3 394.9,395.4 394.9,395.6 394.8,411.1 
		394.8,413.1 396.8,414.2 396.2,415.1 396.2,415.2 396.1,415.2 396.1,415.5 395.8,415.5 395.8,415.7 395.7,415.7 395.7,416 
		395.7,416.2 395.4,416.2 395.4,416.5 395.2,416.5 395.2,416.6 394.9,416.6 394.9,416.8 394.9,417.1 394.8,417.1 394.8,417.2 
		394.7,417.2 394.7,417.5 394.4,417.5 394.4,417.7 394.4,417.8 394.2,417.8 394.2,418.1 394,418.1 394,418.3 393.8,418.3 
		393.8,418.6 393.7,418.8 392.4,420.6 392.3,420.8 392,420.8 391.6,420.9 391.1,421.4 390.6,421.4 	"/>
	<polygon fill="none" stroke="#6E6E6E" stroke-width="0.78" stroke-linejoin="round" stroke-miterlimit="8" points="445.6,142 
		447.1,143.2 449.5,142.8 454.9,142.6 456,142.5 469.5,141.5 489.1,140.2 489.8,140.2 506.3,138.6 506.9,138.6 523.5,137.6 
		524.3,153.7 512.1,167 506.3,167 488.8,187.3 491.5,188.5 484.9,195.4 484.2,196.3 452.9,196.3 456,175.3 452.5,168.1 449.9,167.9 
		449.9,167 424.7,165.5 425.7,159 423.3,142.6 419.9,119.7 420.1,119.9 420.1,120.1 420.3,120.1 420.5,120.4 420.8,120.5 
		420.9,120.5 420.9,120.8 421.2,120.8 421.2,121 421.3,121 421.3,121.3 421.5,121.3 421.8,121.4 421.9,121.4 421.9,121.6 
		422.2,121.6 422.2,121.9 422.3,121.9 422.3,122.1 422.5,122.1 422.7,122.1 422.7,122.4 422.9,122.4 422.9,122.5 423.2,122.5 
		423.2,122.8 423.3,122.8 423.6,123 423.7,123.1 423.9,123.1 423.9,123.4 424.2,123.4 424.2,123.6 424.3,123.6 424.6,123.9 
		424.7,123.9 424.7,124 425,124 425,124.3 425.2,124.3 425.3,124.5 425.6,124.7 425.7,124.7 425.7,125 426,125 426,125.1 
		426.1,125.1 426.3,125.4 426.6,125.6 426.7,125.7 427,125.7 427,126 427.1,126 427.1,126.2 427.4,126.2 427.6,126.5 427.7,126.5 
		427.7,126.7 428,126.7 428,127 428.1,127 428.1,127.1 428.4,127.1 428.6,127.3 428.8,127.3 428.8,127.6 429,127.6 429,127.7 
		429.1,127.7 429.1,128 429.4,128 429.5,128.2 429.8,128.2 429.8,128.5 430,128.5 430,128.7 430.3,128.7 430.4,128.8 430.5,129.1 
		430.8,129.1 430.8,129.3 431,129.3 431,129.6 431.2,129.6 431.4,129.7 431.5,129.9 431.8,130.2 432,130.2 432,130.3 432.2,130.3 
		432.2,130.6 432.4,130.6 432.7,130.8 432.8,130.8 432.8,131.1 432.9,131.1 432.9,131.3 433.2,131.3 433.4,131.4 433.7,131.7 
		433.8,131.7 433.8,131.9 434.1,131.9 434.1,132.2 434.2,132.2 434.2,132.3 434.4,132.3 434.6,132.3 434.6,132.6 434.8,132.6 
		434.8,132.8 435.1,132.8 435.1,132.9 435.2,132.9 435.4,133.3 435.6,133.3 435.6,133.4 435.8,133.4 435.8,133.7 436.1,133.7 
		436.1,133.9 436.2,133.9 436.5,134 436.6,134.3 436.8,134.3 436.8,134.5 437.1,134.5 437.1,134.8 437.2,134.8 437.5,134.9 
		437.6,134.9 437.6,135.2 437.9,135.2 437.9,135.4 438,135.4 438.2,135.6 438.5,135.9 438.6,135.9 438.6,136 438.9,136 438.9,136.3 
		439,136.3 439.3,136.5 439.5,136.8 439.6,136.8 439.6,136.9 439.9,136.9 439.9,137.1 440,137.1 440,137.4 440.3,137.4 440.5,137.4 
		440.5,137.6 440.6,137.6 440.6,137.9 440.9,137.9 440.9,138 441,138 441.3,138.3 441.4,138.5 441.7,138.5 441.7,138.6 441.9,138.6 
		441.9,138.9 442,138.9 442.3,139.1 442.4,139.4 442.7,139.4 442.7,139.6 442.9,139.6 442.9,139.7 443.1,139.7 443.3,140 443.4,140 
		443.4,140.2 443.7,140.2 443.7,140.5 443.9,140.5 444.1,140.6 444.3,140.9 444.4,140.9 444.4,141.1 444.7,141.1 444.7,141.2 
		444.8,141.2 444.8,141.5 445.1,141.5 445.3,141.7 445.6,141.7 	"/>
	<polygon fill="none" stroke="#6E6E6E" stroke-width="0.78" stroke-linejoin="round" stroke-miterlimit="8" points="452.9,196.3 
		452.2,196.3 452.2,196 449.7,195.3 448.7,194.8 448.1,194.5 444.4,193.3 443.9,193 439.9,191.4 439.3,191.3 438.5,191.1 
		438.1,190.8 436.2,190.2 435.7,190 434.8,189.7 434.7,189.6 433.8,189.3 433.7,189.1 431.5,188.5 430,188 429.6,187.7 428.1,187.3 
		427.4,187 426.7,186.7 426.3,186.5 425.3,186.2 424.8,186.1 423.3,185.6 422.2,185.1 421.5,184.7 421.2,184.7 420.5,184.5 
		420.4,184.4 419.9,184.4 419.1,184.1 415.7,182.8 415.1,182.5 414.6,182.4 412.3,181.4 410.9,181 410,180.8 406.9,179.4 
		406.6,179.4 406.2,179.4 404.8,178.8 402.7,177.9 401.9,177.8 401.4,177.8 400.8,177.3 400.4,177.3 398.5,176.7 394.3,175.2 
		393.7,174.8 392.6,174.5 391.9,174.5 390.3,173.8 387.9,173 387.4,172.5 386.1,172.2 383.8,171.5 383.7,171.5 383.5,171.2 
		381.8,170.7 379.3,169.6 377.9,169.5 377,169 376.6,168.9 376.2,168.5 373.6,167.6 373.2,167.5 373.2,147.4 377.9,126.9 
		379.3,124.9 380.3,123.9 387.4,115.3 414.7,117.9 414.8,117.9 418.5,118.6 419.9,119.7 423.3,142.6 425.7,159 424.8,165.5 450,167 
		450,167.9 452.5,168.1 456,175.3 	"/>
	<g>
		<text transform="matrix(1 0 0 1 321.1577 333.0134)"><tspan x="0" y="0" font-family="'HelveticaNeue'" font-size="8.1749">B</tspan><tspan x="5.6" y="0" font-family="'HelveticaNeue'" font-size="8.1749">a</tspan><tspan x="10" y="0" font-family="'HelveticaNeue'" font-size="8.1749">k</tspan><tspan x="14.3" y="0" font-family="'HelveticaNeue'" font-size="8.1749">o</tspan><tspan x="19" y="0" font-family="'HelveticaNeue'" font-size="8.1749">o</tspan><tspan x="23.7" y="0" font-family="'HelveticaNeue'" font-size="8.1749">l</tspan></text>
	</g>
	<g>
		<text transform="matrix(1 0 0 1 404.0738 383.3943)"><tspan x="0" y="0" font-family="'HelveticaNeue'" font-size="8.1749">Mid</tspan><tspan x="13.8" y="0" font-family="'HelveticaNeue'" font-size="8.1749">d</tspan><tspan x="18.6" y="0" font-family="'HelveticaNeue'" font-size="8.1749">le </tspan></text>
	</g>
	<g>
		<text transform="matrix(1 0 0 1 429.9512 383.3943)"><tspan x="0" y="0" font-family="'HelveticaNeue'" font-size="8.1749">Sha</tspan><tspan x="14.2" y="0" font-family="'HelveticaNeue'" font-size="8.1749">b</tspan><tspan x="19.1" y="0" font-family="'HelveticaNeue'" font-size="8.1749">el</tspan><tspan x="25.3" y="0" font-family="'HelveticaNeue'" font-size="8.1749">l</tspan><tspan x="27.1" y="0" font-family="'HelveticaNeue'" font-size="8.1749">e</tspan></text>
	</g>
	<g>
		<text transform="matrix(1 0 0 1 426.4278 314.8611)"><tspan x="0" y="0" font-family="'HelveticaNeue'" font-size="8.1749">G</tspan><tspan x="6.2" y="0" font-family="'HelveticaNeue'" font-size="8.1749">a</tspan><tspan x="10.6" y="0" font-family="'HelveticaNeue'" font-size="8.1749">lg</tspan><tspan x="17.1" y="0" font-family="'HelveticaNeue'" font-size="8.1749">a</tspan><tspan x="21.5" y="0" font-family="'HelveticaNeue'" font-size="8.1749">duu</tspan><tspan x="35.4" y="0" font-family="'HelveticaNeue'" font-size="8.1749">d</tspan></text>
	</g>
	<g>
		<text transform="matrix(1 0 0 1 485.043 250.5906)"><tspan x="0" y="0" font-family="'HelveticaNeue'" font-size="8.1749">M</tspan><tspan x="7.1" y="0" font-family="'HelveticaNeue'" font-size="8.1749">u</tspan><tspan x="11.6" y="0" font-family="'HelveticaNeue'" font-size="8.1749">du</tspan><tspan x="21" y="0" font-family="'HelveticaNeue'" font-size="8.1749">g</tspan></text>
	</g>
	<g>
		<text transform="matrix(1 0 0 1 512.1768 187.2903)"><tspan x="0" y="0" font-family="'HelveticaNeue'" font-size="8.1749">Nuga</tspan><tspan x="19.5" y="0" font-family="'HelveticaNeue'" font-size="8.1749">a</tspan><tspan x="23.9" y="0" font-family="'HelveticaNeue'" font-size="8.1749">l</tspan></text>
	</g>
	<g>
		<text transform="matrix(1 0 0 1 556.4736 89.1917)"><tspan x="0" y="0" font-family="'HelveticaNeue'" font-size="8.1749">B</tspan><tspan x="5.6" y="0" font-family="'HelveticaNeue'" font-size="8.1749">a</tspan><tspan x="10" y="0" font-family="'HelveticaNeue'" font-size="8.1749">ri</tspan></text>
	</g>
	<g>
		<text transform="matrix(1 0 0 1 478.2891 122.6282)"><tspan x="0" y="0" font-family="'HelveticaNeue'" font-size="8.1749">Sana</tspan><tspan x="18.6" y="0" font-family="'HelveticaNeue'" font-size="8.1749">a</tspan><tspan x="23" y="0" font-family="'HelveticaNeue'" font-size="8.1749">g</tspan></text>
	</g>
	<g>
		<text transform="matrix(1 0 0 1 450.999 157.3567)"><tspan x="0" y="0" font-family="'HelveticaNeue'" font-size="8.1749">S</tspan><tspan x="5.3" y="0" font-family="'HelveticaNeue'" font-size="8.1749">o</tspan><tspan x="10" y="0" font-family="'HelveticaNeue'" font-size="8.1749">o</tspan><tspan x="14.7" y="0" font-family="'HelveticaNeue'" font-size="8.1749">l</tspan></text>
	</g>
	<g>
		<text transform="matrix(1 0 0 1 342.0005 132.9553)"><tspan x="0" y="0" font-family="'HelveticaNeue'" font-size="8.1749">Wo</tspan><tspan x="12.3" y="0" font-family="'HelveticaNeue'" font-size="8.1749">q</tspan><tspan x="17.1" y="0" font-family="'HelveticaNeue'" font-size="8.1749">o</tspan><tspan x="21.8" y="0" font-family="'HelveticaNeue'" font-size="8.1749">o</tspan><tspan x="26.5" y="0" font-family="'HelveticaNeue'" font-size="8.1749">yi</tspan></text>
	</g>
	<g>
		<text transform="matrix(1 0 0 1 342.0005 142.7893)"><tspan x="0" y="0" font-family="'HelveticaNeue'" font-size="8.1749">G</tspan><tspan x="6.2" y="0" font-family="'HelveticaNeue'" font-size="8.1749">a</tspan><tspan x="10.6" y="0" font-family="'HelveticaNeue'" font-size="8.1749">lbeed</tspan></text>
	</g>
	<g>
		<text transform="matrix(1 0 0 1 317.4146 92.8181)"><tspan x="0" y="0" font-family="'HelveticaNeue'" font-size="8.1749">A</tspan><tspan x="5.3" y="0" font-family="'HelveticaNeue'" font-size="8.1749">w</tspan><tspan x="11.5" y="0" font-family="'HelveticaNeue'" font-size="8.1749">d</tspan><tspan x="16.3" y="0" font-family="'HelveticaNeue'" font-size="8.1749">al</tspan></text>
	</g>
	<g>
		<text transform="matrix(1 0 0 1 256.3111 499.3796)" fill="#FFFFFF" font-family="'HelveticaNeue'" font-size="8.1749">Lower</text>
	</g>
	<g>
		<text transform="matrix(1 0 0 1 279.1158 499.3796)"><tspan x="0" y="0" fill="#FFFFFF" font-family="'HelveticaNeue'" font-size="8.1749">J</tspan><tspan x="4.2" y="0" fill="#FFFFFF" font-family="'HelveticaNeue'" font-size="8.1749">ub</tspan><tspan x="13.6" y="0" fill="#FFFFFF" font-family="'HelveticaNeue'" font-size="8.1749">a</tspan></text>
	</g>
	<g>
		<text transform="matrix(1 0 0 1 333.5728 453.5466)"><tspan x="0" y="0" font-family="'HelveticaNeue'" font-size="8.1749">Lower S</tspan><tspan x="30.1" y="0" font-family="'HelveticaNeue'" font-size="8.1749">h</tspan><tspan x="34.6" y="0" font-family="'HelveticaNeue'" font-size="8.1749">abel</tspan><tspan x="50.1" y="0" font-family="'HelveticaNeue'" font-size="8.1749">l</tspan><tspan x="51.9" y="0" font-family="'HelveticaNeue'" font-size="8.1749">e</tspan></text>
	</g>
	<g>
		<text transform="matrix(1 0 0 1 392.354 350.8591)"><tspan x="0" y="0" font-family="'HelveticaNeue'" font-size="8.1749">Hir</tspan><tspan x="10.4" y="0" font-family="'HelveticaNeue'" font-size="8.1749">a</tspan><tspan x="14.8" y="0" font-family="'HelveticaNeue'" font-size="8.1749">an</tspan></text>
	</g>
	<g>
		<text transform="matrix(1 0 0 1 275.4273 371.0808)" font-family="'HelveticaNeue'" font-size="8.1749">Gedo</text>
	</g>
	<g>
		<text transform="matrix(1 0 0 1 391.3169 157.4387)"><tspan x="0" y="0" font-family="'HelveticaNeue'" font-size="8.1749">T</tspan><tspan x="4.7" y="0" font-family="'HelveticaNeue'" font-size="8.1749">o</tspan><tspan x="9.4" y="0" font-family="'HelveticaNeue'" font-size="8.1749">g</tspan><tspan x="14.1" y="0" font-family="'HelveticaNeue'" font-size="8.1749">dh</tspan><tspan x="23.5" y="0" font-family="'HelveticaNeue'" font-size="8.1749">eer</tspan></text>
	</g>
	<path fill="none" stroke="#808080" stroke-width="0.48" stroke-miterlimit="8" d="M310.8,443.8"/>
	<path fill="none" stroke="#808080" stroke-width="0.48" stroke-miterlimit="8" d="M427,434.3"/>
	<path fill="none" stroke="#808080" stroke-width="0.48" stroke-miterlimit="8" d="M299.5,498.4"/>
	<path fill="none" stroke="#808080" stroke-width="0.48" stroke-miterlimit="8" d="M399.6,351.3"/>
	<path fill="none" stroke="#808080" stroke-width="0.48" stroke-miterlimit="8" d="M321.7,398"/>
	<path fill="none" stroke="#808080" stroke-width="0.48" stroke-miterlimit="8" d="M338.7,455.8"/>
	<path fill="none" stroke="#808080" stroke-width="0.48" stroke-miterlimit="8" d="M328.3,331.3"/>
	<path fill="none" stroke="#808080" stroke-width="0.48" stroke-miterlimit="8" d="M415.8,160.6"/>
</g>
</svg>
