<?xml version="1.0" encoding="utf-8"?>
<!-- Generator: Adobe Illustrator 18.0.0, SVG Export Plug-In . SVG Version: 6.00 Build 0)  -->
<!DOCTYPE svg PUBLIC "-//W3C//DTD SVG 1.1//EN" "http://www.w3.org/Graphics/SVG/1.1/DTD/svg11.dtd">
<svg version="1.1"
	 id="svg2241" xmlns:rdf="http://www.w3.org/1999/02/22-rdf-syntax-ns#" xmlns:dc="http://purl.org/dc/elements/1.1/" xmlns:cc="http://web.resource.org/cc/" xmlns:svg="http://www.w3.org/2000/svg" xmlns:inkscape="http://www.inkscape.org/namespaces/inkscape" xmlns:sodipodi="http://sodipodi.sourceforge.net/DTD/sodipodi-0.dtd" inkscape:output_extension="org.inkscape.output.svg.inkscape" sodipodi:docname="Somalia regions map Bakool.svg" sodipodi:version="0.32" inkscape:version="0.45" sodipodi:docbase="L:\Regionen in Somalia" sodipodi:modified="true"
	 xmlns="http://www.w3.org/2000/svg" xmlns:xlink="http://www.w3.org/1999/xlink" x="0px" y="0px" viewBox="971 -301.9 848 1199"
	 enable-background="new 971 -301.9 848 1199" xml:space="preserve">
<g>
	<polygon fill="none" stroke="#6E6E6E" stroke-width="2" stroke-linejoin="round" stroke-miterlimit="10" points="1364.8,546.3 
		1364.8,546.3 1363.1,547.5 1361.9,548.5 1361,548.5 1357.8,551 1356,552 1354.9,552.9 1354,553.6 1353.1,553.9 1352.3,554.2 
		1351.4,555.1 1349,557 1347.6,557.4 1346.4,558 1345.6,558.3 1344.4,559.6 1343.5,560.2 1342.3,560.5 1341.5,560.5 1339.4,562.1 
		1342,558.3 1342.3,558 1342.3,557.4 1342.6,557.4 1342.6,557 1343.2,557 1343.2,556.4 1343.5,556.4 1343.5,556.1 1343.5,555.8 
		1344.1,555.8 1344.1,555.1 1344.4,555.1 1344.4,554.8 1344.7,554.8 1344.7,554.2 1344.7,553.9 1345.3,553.9 1345.3,553.6 
		1345.6,553.6 1345.6,552.9 1346.1,552.9 1346.1,552.6 1346.1,552 1346.4,552 1346.4,551.7 1347,551.7 1347,551 1347.3,551 
		1347.3,550.7 1348.5,548.8 1351.4,547.8 1353.4,547.5 1362.8,546.6 	"/>
	<polygon fill="none" stroke="#6E6E6E" stroke-width="2" stroke-linejoin="round" stroke-miterlimit="10" points="1270.1,436.7 
		1271.9,439.6 1271.9,444 1271.9,444.3 1271.9,445 1271.9,445.3 1271.9,445.9 1271.9,446.2 1271.9,446.9 1271.9,447.2 1271.9,447.5 
		1271.9,448.1 1271.9,448.5 1271.9,449.1 1271.9,453.5 1269.2,457.6 1273.1,459.9 1278.9,463.3 1283,463.3 1292.9,463 1296.2,464.3 
		1297,469.4 1297,469.7 1297,470 1297,470.6 1298.8,479.5 1297.6,484.6 1297.6,484.9 1297.6,485.5 1297.6,485.8 1297.6,486.5 
		1297,486.5 1297,486.8 1297,487.1 1297,487.7 1297,488.1 1296.7,488.7 1296.7,489 1296.7,489.6 1296.7,490 1296.7,490.3 
		1296.2,490.9 1296.2,491.2 1296.2,491.9 1296.2,492.2 1296.2,492.8 1295.9,492.8 1295.9,493.1 1295.9,493.5 1295,498.2 1296.2,503 
		1295.9,508 1295.9,508.3 1294.1,518.5 1293.8,523.9 1294.1,528.3 1294.1,528.6 1294.1,529.3 1294.1,529.6 1294.1,530.2 
		1294.1,530.5 1294.1,530.8 1294.7,531.5 1294.7,531.8 1294.7,532.4 1294.7,532.7 1294.7,533.4 1294.7,533.7 1294.7,534 
		1294.7,534.6 1294.7,534.9 1295,535.6 1295,535.9 1295,536.2 1295,536.8 1295,537.2 1295,537.8 1295,538.1 1295,538.7 
		1295.6,542.6 1295.9,543.5 1282.1,550.5 1242.6,569.2 1240.9,569.8 1220.1,578.7 1219.8,579.3 1201.1,589.1 1200.5,589.4 
		1176.8,602.1 1175.3,600.2 1171.5,597.7 1168,593.9 1167.7,593.9 1167.7,593.6 1167.4,593.6 1167.4,593.2 1166.8,593.2 
		1166.8,592.6 1166.5,592.6 1166.5,592.3 1166,592.3 1166,591.7 1165.7,591.7 1165.4,591.3 1164.8,591 1164.5,590.4 1163.9,590.1 
		1163.6,589.4 1163,589.1 1162.7,588.5 1162.4,588.5 1162.4,588.2 1161.9,587.9 1161.6,587.9 1161.6,587.2 1161,587.2 1161,586.9 
		1160.7,586.9 1160.7,586.3 1160.1,586.3 1160.1,585.9 1159.8,585.9 1159.8,585.3 1159.5,585.3 1159.5,585 1158.9,585 1158.9,584.7 
		1158.6,584.7 1158,584 1158,583.7 1157.7,583.7 1157.7,583.1 1157.2,583.1 1157.2,582.8 1156.9,582.8 1156.9,582.5 1156.6,582.5 
		1156.6,581.8 1156,581.8 1155.7,581.5 1155.1,580.9 1154.8,580.9 1154.8,580.6 1154.5,580.6 1154.5,579.9 1154,579.9 1154,579.6 
		1153.7,579.6 1153.7,579.3 1153.1,579.3 1153.1,578.7 1152.8,578.7 1152.8,578.4 1152.2,578.4 1152.2,577.7 1151.9,577.7 
		1151.9,577.4 1151.6,577.4 1151.6,576.8 1151,576.8 1151,576.5 1150.7,576.5 1150.2,576.1 1150.2,575.5 1149.9,575.5 1149.9,575.2 
		1149.3,575.2 1149.3,574.5 1149,574.5 1148.7,574.2 1148.1,573.9 1147.8,573.3 1144.3,569.8 1140.2,567.6 1140.2,567 1139.9,567 
		1135.8,564.4 1143.7,516.6 1144,514.4 1145.8,503.6 1145.8,503 1149.9,478.2 1155.7,478.6 1173.6,480.5 1185.5,479.2 1185.5,477.3 
		1185.5,466.2 1185.5,464 1186.7,432 1207.8,439.6 1219.8,436.7 1226.8,428.2 1231.8,418.4 1234.7,415.5 1235,415.5 1240.9,413 
		1245.8,413 1262.2,418.4 	"/>
	
		<polygon fill="none" stroke="#FFC000" stroke-width="2" stroke-linejoin="round" stroke-miterlimit="10" stroke-dasharray="0.56,0.42,0.14,0.42" points="
		1364.8,546 1364.8,546 1363.1,547.5 1361.7,548.1 1361.2,548.4 1357.8,550.9 1356.1,551.8 1354.7,553 1354.1,553.3 1353,553.9 
		1352.2,554.5 1351.6,554.8 1348.8,557 1348,557.3 1346.3,557.9 1345.7,558.5 1344.3,559.4 1343.5,560 1342.4,560.3 1341.5,560.6 
		1339.3,562.1 1339.6,562.1 1342.1,558.2 1342.1,557.9 1342.4,557.9 1342.4,557.6 1342.7,557.3 1342.9,557 1342.9,556.6 
		1343.2,556.6 1343.2,556.4 1343.5,556 1343.8,555.7 1344.1,555.7 1344.1,555.4 1344.1,555.1 1344.3,554.8 1344.3,554.5 
		1344.6,554.5 1344.6,554.2 1344.9,553.9 1345.2,553.9 1345.5,553.6 1345.7,553.3 1345.7,553 1346,553 1346,552.7 1346,552.4 
		1346.3,552.1 1346.3,551.8 1346.6,551.8 1346.9,551.5 1347.1,551.2 1347.1,550.9 1347.4,550.9 1347.4,550.6 1348.5,548.7 
		1351.6,547.8 1353.6,547.5 1362.6,546.3 	"/>
	<g>
		<text transform="matrix(1 0 0 1 1370.1606 558.0013)"><tspan x="0" y="0" font-family="'HelveticaNeue'" font-size="16.8828">B</tspan><tspan x="11.6" y="0" font-family="'HelveticaNeue'" font-size="16.8828">a</tspan><tspan x="20.7" y="0" font-family="'HelveticaNeue'" font-size="16.8828">n</tspan><tspan x="30.1" y="0" font-family="'HelveticaNeue'" font-size="16.8828">adir</tspan></text>
	</g>
	<polygon fill="none" stroke="#6E6E6E" stroke-width="2" stroke-linejoin="round" stroke-miterlimit="8" points="1382.7,-118.5 
		1382.7,-118.5 1383.6,-118.5 1384.2,-117.8 1384.5,-117.8 1384.2,-118.5 1383.3,-118.8 1382.7,-119.1 1382.7,-119.7 1383.6,-119.7 
		1386.3,-118.5 1389.5,-116.6 1390.7,-115.3 1392.1,-115.3 1394.2,-115.3 1395,-114.7 1393.3,-61.4 1385.7,-63 1385.4,-63 
		1328.9,-68.4 1314.3,-50.6 1312.2,-48.4 1309.3,-44.3 1299.7,-2.2 1299.7,39.4 1292.1,36.8 1290,35.9 1287.7,34.9 1287.1,34.9 
		1285.9,34.3 1283.6,33.7 1281.8,33 1277.1,31.1 1275.1,30.5 1273.1,29.9 1269.8,28.6 1268.4,28.3 1267.2,27.7 1266.3,27.7 
		1263.1,26.4 1257.6,24.5 1253.2,22.6 1252.6,22.6 1250.5,21.9 1249.6,21 1249.4,21 1243.2,14 1242.3,12.7 1241.5,11.8 1236.8,7 
		1235.9,6.1 1233.9,3.9 1233.6,3.2 1229.5,-1.2 1226.8,-4.4 1226.5,-4.4 1226,-5.3 1225.1,-5.6 1222.5,-5.6 1221.9,-5.6 
		1221.6,-6.3 1219.5,-6.9 1218.7,-6.9 1217.2,-7.5 1216,-7.8 1214.3,-9.4 1214,-9.4 1212.8,-10.7 1211,-12.3 1209.9,-14.8 
		1209,-17.1 1208.7,-18 1208.7,-19.3 1208.1,-20.2 1207.8,-20.9 1206.1,-21.8 1205.8,-22.8 1204.9,-23.4 1203.7,-24 1203.7,-24.6 
		1202.3,-25 1201.1,-25 1200.8,-25.6 1199.9,-28.8 1199.9,-29.1 1201.4,-31.3 1205.8,-39.9 1216.9,-54.5 1230.6,-75.7 1233.6,-78.2 
		1237.7,-77.9 1253.2,-68.4 1261.1,-80.1 1267.2,-91.9 1269,-90.3 1271,-88.7 1273.1,-87.4 1275.7,-86.5 1276.3,-86.5 1279.8,-85.5 
		1282.1,-85.8 1284.8,-85.8 1286.8,-85.5 1287.7,-84.9 1288.8,-84.9 1289.7,-84.6 1290.6,-84.6 1292.7,-84.6 1293.5,-84.6 
		1294.4,-84.6 1294.7,-84.9 1295.9,-84.9 1296.7,-85.8 1297,-86.5 1300,-86.8 1301.4,-86.8 1301.7,-87.4 1303.8,-87.7 1304.4,-87.7 
		1304.7,-87.4 1305.5,-87.4 1305.8,-87.4 1306.7,-87.4 1307.3,-87.7 1307.9,-87.4 1308.7,-87.4 1309.3,-87.4 1310.5,-86.8 
		1311.7,-86.8 1313.1,-86.5 1315.8,-86.8 1317.5,-86.8 1318.7,-87.4 1321.3,-88.7 1321.3,-89 1321.6,-89 1321.6,-89.6 1321.6,-90 
		1321.3,-90 1321,-90 1320.4,-89.6 1320.2,-89.6 1320.4,-90 1321.3,-90.3 1321.6,-90.3 1323.1,-91.2 1325.1,-91.9 1326,-92.8 
		1326.6,-93.4 1327.2,-94.1 1327.5,-94.4 1330.4,-95 1331.9,-95.3 1333,-96.3 1334.5,-96.6 1336.2,-97.6 1338,-98.5 1338.9,-98.8 
		1339.8,-100.4 1340.3,-101.7 1341.8,-102.6 1342.7,-103.6 1344.7,-106.1 1345.3,-106.1 1347.1,-106.1 1349.1,-106.1 1349.7,-106.1 
		1350.6,-106.1 1351.2,-106.1 1352.9,-106.1 1354.1,-106.1 1354.7,-106.8 1355.5,-108 1356.1,-108.3 1357.6,-108.3 1357.9,-108.3 
		1358.5,-108.3 1358.5,-109 1359,-109.9 1360.8,-110.2 1361.7,-110.6 1362,-111.2 1362.6,-112.1 1362.9,-112.5 1363.4,-113.7 
		1363.7,-113.7 1363.7,-114.3 1365.5,-114.3 1366.4,-114.7 1368.4,-115.6 1369.3,-115.6 1369.9,-116.3 1371.6,-117.5 1372.5,-118.5 
		1374.8,-119.1 1375.4,-119.1 1376.3,-120.7 1376.6,-121 1376.6,-121.6 1377.2,-121.6 1377.8,-121.6 1378.4,-121.6 1378.7,-122 
		1379.2,-122 1379.5,-121.6 1381.3,-120.1 1382.2,-119.7 1382.4,-119.7 1382.4,-118.8 	"/>
	<path fill="none" stroke="#6E6E6E" stroke-width="2" stroke-linejoin="round" stroke-miterlimit="8" d="M1211.9-170.1h-0.3v-0.6
		l0.3-0.6h0.3L1211.9-170.1z M1203.1-166.6L1203.1-166.6l1.2-1.6l0.6-0.6l0.3-1.9v0.6v1.9l-0.3,0.3L1203.1-166.6z M1201.4-167.9
		l0.6,1.3l0.9,1.3h0.3l0.6-0.3h0.3l0.3,1.3l2.6,2.9h1.8h1.2v0.3v0.6l0.3,0.3l0.9,0.6l0.6,0.3h0.3l1.2-0.3l0.9-0.6l0.9-0.3h0.3
		l-0.9,1l-0.6,0.3v1.3v0.6v0.3l0.3,1v0.3l0.3,1.6v1.6v1.9l0.6,1l1.2,2.2v1l0.6,0.3l0.3,0.6h0.3h0.6l-0.9-0.6l-0.3-0.3h0.3l1.8,0.3
		l0.3,0.6v0.3l0.6,1.9l0.6,1.6l0.6,1l1.2,2.2l1.2,1.9l0.9,1l1.2,3.2l0.9,1.3l1.5,1.9l0.3,1l0.9,1l0.3,0.3l2.1,2.5l2.9,3.2l1.5,1.9
		l3.5,4.1l1.5,1.3l5,4.4l1.5,1.9l0.6,0.3l1.8,0.6l1.2,1l3.2,3.2l0.9,0.3l0.3,0.6l0.9,0.6l0.6,1l1.2,1l0.9,1l0.9,0.3h0.9l0.3,0.6h0.9
		l2.3,2.2l1.5,1l0.3,0.3l0.9,1l1.2,1.3l-6.1,11.7l-7.9,11.7l-15.5-9.5l-4.1-0.3l-2.9,2.5l-13.8,21.2l-11.1,14.6l-4.4,8.6l-1.5,2.2
		v0.3l-0.6-2.5l-0.9-6v-1.6l-0.3-1.9l-0.9-2.2l-5-3.2l-1.2-0.6h-0.6l-0.6-0.6h-0.6v0.3l-0.3,0.3h-0.6h-1.2l-0.9-0.3l-0.9-1h-0.3
		l-0.3-2.2l-0.9-1.9l-0.6-0.3l-0.9-2.9l-1.2-3.8l-0.9-2.2l-0.9-1l-0.3-0.6l-0.9-0.3l-0.9-1l-2.3-2.8l-4.7-3.8l-0.9-1.6l-0.9-0.6
		v-0.6l-1.5-2.5l-1.2-3.2l-0.9-2.9v-0.3l-0.9-3.8l-2-3.8l-0.6-1.6l-0.9-3.2l-0.3-0.3l-0.3-0.6l-1.5-0.3l-0.9-0.3l-0.3-0.6v-1
		l-0.3-1.3l-0.9-1.3v-1.3l0.3-0.6l0.6-1l0.6-1l1.5-0.6l1.2-2.5l2-2.9l1.2-2.5l0.9-1.3l0.9-1l2-3.5l1.2-1l0.6-1.3l0.3-0.6l0.6-0.6
		l0.9-1l1.5-2.2l1.8-2.9l2.1-2.5l0.3-1l2.3-4.1l18.7-32l0.3-0.3h0.3h1.5h0.3v0.3h0.6h0.3v-0.3l-0.3-1h-0.6l-0.9-0.6l0.6-0.3l0.9,0.3
		l0.3,0.6l0.3,1V-167.9z M1212.8-165.3l-1.2,0.6v-0.6v-0.3l0.3-1h0.3h0.6l0.3,0.6l-0.3,0.3V-165.3z"/>
	<polygon fill="none" stroke="#6E6E6E" stroke-width="2" stroke-linejoin="round" stroke-miterlimit="8" points="1303.2,401.1 
		1306.7,417.3 1304.6,429.4 1304.9,439.8 1305.2,463 1296.4,464.3 1293.2,463 1283.2,463.3 1279.2,463.3 1273.3,459.8 1269.5,457.6 
		1272.1,453.5 1272.1,449 1272.1,448.4 1272.1,448.1 1272.1,447.4 1272.1,447.1 1272.1,446.8 1272.1,446.2 1272.1,445.9 
		1272.1,445.2 1272.1,444.9 1272.1,444.3 1272.1,443.9 1272.1,439.5 1270.4,436.7 1262.5,418.3 1246.1,412.9 1241.1,412.9 
		1235.3,415.4 1235,415.4 1232.1,418.3 1227.1,428.1 1220.1,436.7 1208.1,439.5 1187,431.9 1188.7,418.3 1185.8,411.9 1184.9,410.6 
		1170.9,384 1170.6,383.1 1171.2,382.1 1173.5,379.9 1174.1,378.6 1175,377.3 1176.2,375.4 1177,374.2 1177.9,373.2 1178.5,371.6 
		1178.8,371 1179.1,370.4 1179.1,370 1179.7,369.4 1180,366.2 1180,365.9 1180.5,365.6 1180.5,365 1180.8,364 1181.4,363.1 
		1181.7,362.4 1184.3,359.9 1187.6,357.7 1190.8,356.1 1195.5,352.9 1201.6,349.8 1208.6,345.6 1209.5,345.3 1212.1,344.4 
		1217.1,342.5 1225.3,339.9 1236.7,336.7 1250.5,332.6 1250.8,332.6 1251.9,332.6 1267.2,333.6 1292,334.8 1292.3,339.3 
		1297.9,373.5 1298.2,374.8 1303.2,400.5 	"/>
	<polygon fill="none" stroke="#6E6E6E" stroke-width="2" stroke-linejoin="round" stroke-miterlimit="8" points="1733.5,-208.2 
		1734.1,-207.5 1735.3,-206.6 1736.1,-205.6 1737.3,-205.3 1737.9,-205 1740.2,-204.3 1741.1,-204.3 1742.3,-204 1744.9,-203.1 
		1746.1,-202.8 1748.1,-201.8 1749.3,-200.9 1751.9,-199.6 1752.8,-199.6 1754,-199.6 1754.3,-199.6 1755.2,-199.6 1756,-199.6 
		1758.1,-199.6 1759.5,-198.7 1759.8,-198 1761,-197.7 1763,-197.1 1764.5,-196.8 1765.7,-196.8 1766.6,-197.1 1767.4,-197.1 
		1768,-196.8 1768,-196.4 1768.6,-195.8 1768,-194.8 1767.4,-193.3 1766.8,-191.7 1766.6,-191 1766,-190.4 1766.6,-189.1 
		1766,-188.5 1765.7,-187.9 1765.1,-187.2 1766,-186 1766,-185 1766,-184.1 1765.7,-184.1 1765.1,-182.5 1764.5,-181.8 
		1763.9,-181.8 1763.6,-180.6 1763,-180 1762.8,-179.6 1761.6,-177.4 1760.1,-176.5 1759.8,-175.5 1758.9,-174.6 1758.6,-173.3 
		1756.9,-171.1 1756.6,-170.1 1756.6,-169.8 1756.9,-169.2 1756.9,-168.2 1756.9,-167.6 1756.6,-165.4 1756,-163.5 1756,-162.8 
		1755.7,-162.5 1754.3,-159 1754,-158.4 1753.7,-156.5 1753.7,-154.9 1753.7,-154 1753.7,-153.6 1753.1,-152.7 1753.7,-148.9 
		1753.7,-148.6 1754,-146.7 1754.9,-145.4 1755.2,-145.1 1755.7,-144.4 1756,-144.4 1757.8,-144.1 1758.6,-144.1 1759.5,-143.5 
		1760.1,-143.5 1760.7,-143.5 1760.7,-143.2 1760.7,-142.2 1759.5,-140.3 1759.5,-139.4 1757.2,-134.9 1756.9,-133.3 1756.9,-132.7 
		1756,-127.6 1756.6,-124.1 1756.6,-123.8 1756.9,-122.9 1756.9,-117.8 1757.2,-113.7 1757.2,-113.4 1756.9,-110.5 1757.2,-107 
		1757.2,-106.7 1758.1,-106.7 1758.1,-106.1 1758.6,-104.8 1758.6,-102.6 1759.8,-99.8 1759.8,-99.4 1759.8,-98.8 1759.5,-98.5 
		1758.6,-98.5 1756.9,-98.5 1756.6,-98.2 1756,-98.2 1755.7,-97.5 1755.2,-97.2 1755.7,-96.6 1755.7,-96.3 1755.2,-96.3 
		1755.7,-95.3 1755.2,-95.3 1755.7,-95 1755.7,-94 1755.7,-93.1 1755.2,-92.1 1754.3,-91.2 1754,-90.9 1751.9,-90.2 1750.8,-90.2 
		1750.2,-89.9 1749.9,-89.6 1750.2,-89 1750.2,-88.6 1750.2,-87.7 1750.2,-87.4 1749.3,-87.7 1749,-87.7 1749.3,-87.4 1749.3,-86.7 
		1749.3,-86.4 1750.2,-86.7 1750.8,-86.4 1751.1,-86.4 1751.6,-86.7 1751.9,-87.4 1752.2,-87.7 1754,-87.7 1754.3,-87.7 1756.6,-88 
		1757.8,-88 1761,-88.6 1763.6,-88.6 1764.5,-88.6 1764.8,-88.6 1764.5,-89 1764.5,-89.6 1763.9,-89.9 1763.6,-89.9 1763,-90.9 
		1761.9,-91.8 1761.9,-92.1 1761.6,-92.8 1761.9,-93.4 1762.2,-94 1762.2,-94.4 1761.9,-95.3 1761.9,-95.9 1761,-97.2 1760.7,-98.2 
		1760.7,-98.5 1761,-98.2 1761.6,-96.6 1762.2,-96.3 1763.6,-95.3 1763.9,-95 1764.8,-94.4 1765.7,-94 1766.6,-93.4 1767.4,-93.1 
		1768.6,-92.1 1769.5,-91.8 1769.8,-91.8 1770.6,-91.2 1771.5,-91.2 1772.4,-91.8 1773,-92.1 1773.9,-92.1 1774.7,-92.1 
		1775.6,-91.8 1775.9,-90.9 1776.5,-89.9 1777.4,-89.6 1777.4,-89 1776.8,-88 1776.5,-87.4 1776.5,-86.7 1775.9,-86.7 1775.9,-85.5 
		1775.6,-85.5 1775.3,-84.9 1774.7,-84.5 1774.5,-84.5 1774.5,-84.2 1774.7,-83.3 1774.5,-83.3 1773.6,-83.6 1773,-83.6 
		1772.7,-83.6 1772.4,-84.2 1771.8,-84.2 1771.5,-84.2 1770.6,-84.2 1769.5,-84.2 1768.6,-83.6 1768,-83.6 1767.7,-84.2 
		1766.8,-84.2 1766.8,-84.5 1766.8,-84.9 1766.8,-86.4 1766.8,-86.7 1766.6,-87.4 1765.1,-87.7 1764.5,-87.7 1763,-87.7 
		1760.7,-87.4 1759.5,-87.4 1755.7,-86.4 1755.2,-86.4 1754,-86.4 1752.8,-85.8 1751.6,-85.8 1749,-84.5 1747,-83.3 1746.1,-82.6 
		1744.3,-81.4 1743.7,-81 1740.8,-79.1 1740.8,-78.5 1740.8,-76 1740.2,-75 1740.8,-72.5 1741.1,-69.9 1741.1,-69.3 1740.8,-66.5 
		1740.2,-65.5 1740.2,-64.6 1739.9,-63.3 1739.4,-62.3 1739.9,-61.1 1739.9,-59.2 1740.8,-57 1740.8,-56.6 1740.8,-56 1740.8,-55.4 
		1740.8,-54.7 1740.2,-53.8 1739.9,-52.5 1739.4,-49.3 1739.4,-49 1739.1,-47.5 1738.5,-46.8 1738.5,-45.9 1738.5,-45.2 
		1737.3,-44.3 1737.3,-44 1737,-39.5 1736.1,-35.7 1736.1,-35.1 1736.1,-33.5 1735.5,-32.2 1736.1,-31.3 1735.5,-30.3 1735.3,-29.7 
		1735.3,-28.8 1735,-27.2 1734.4,-25.9 1734.1,-24.6 1733.5,-22.7 1733.5,-21.5 1734.1,-20.5 1734.1,-19.5 1734.1,-18.6 1734.1,-18 
		1734.1,-17 1734.4,-16.1 1735,-16.1 1735.3,-15.4 1735.5,-15.1 1736.4,-15.1 1737,-14.8 1737,-14.2 1737,-13.2 1735.5,-11 
		1735.5,-10 1734.4,-7.8 1734.4,-7.5 1733.2,-5.6 1732.1,-3.7 1731.2,-2.4 1730,-0.5 1729.4,-0.2 1728.5,-0.2 1728.2,0.1 
		1727.1,1.1 1725.6,3.3 1725,4.2 1724.4,4.2 1724.1,5.2 1723.6,6.1 1723.3,7.1 1722.7,8.3 1722.7,9.6 1722.7,10.6 1723.3,11.5 
		1723.3,12.8 1723.3,13.4 1722.7,14.7 1722.4,16 1721.2,17.9 1719.8,18.8 1718.6,19.4 1717.7,21.3 1716.8,22.3 1715.7,22.6 
		1712.7,25.8 1711.9,26.4 1710.4,27.7 1709.8,28.6 1709,29.6 1708.7,29.6 1708.7,29.9 1708.4,29.9 1708.4,30.5 1708.4,30.8 
		1707.5,32.1 1706.9,32.8 1706.6,33.1 1706.3,33.7 1706.3,34.3 1705.7,35.3 1705.7,38.5 1705.7,39.1 1705.4,39.7 1704.6,41.3 
		1704,44.5 1704,45.4 1703.7,45.7 1703.4,46.1 1702.5,46.7 1701.9,47 1701.1,48.9 1700.5,50.2 1699.9,52.4 1700.5,54 1700.8,54.3 
		1700.8,54.6 1700.8,56.2 1700.5,56.2 1700.5,56.5 1699.9,57.5 1698.7,59.7 1697.8,61 1697,61.6 1696.7,62.6 1696.1,62.6 
		1694.6,64.1 1694,64.8 1693.7,65.7 1693.1,66 1692.9,67.9 1692.6,67.9 1692.6,68.3 1692,68.6 1691.7,69.2 1691.1,69.2 1690.8,70.2 
		1690.2,70.5 1689.9,71.7 1689.9,72.7 1689.9,73.3 1689.6,73.6 1689.6,73.3 1680.3,64.8 1672.1,63.2 1669.2,67.9 1666,73.3 
		1663.6,66 1663.3,65.7 1663.3,64.8 1663.3,64.1 1663,64.1 1663,63.8 1663,63.2 1663,62.9 1662.5,62.6 1661.3,57.8 1654.3,54 
		1650.2,54 1649.6,54 1649.3,54 1648.7,54 1648.4,54 1647.8,54 1647.5,54 1647.2,54 1646.7,54 1646.4,54 1645.8,54 1645.5,54 
		1644.9,54 1644.9,53.4 1644.6,53.4 1644.3,53.4 1643.7,53.4 1643.5,53.4 1642.9,53.4 1642.6,53.4 1642,53.4 1637.9,53.4 
		1634.7,51.1 1634.1,50.8 1633.8,50.8 1633.8,50.2 1633.5,50.2 1632.9,49.9 1632.6,49.9 1632,49.2 1631.8,49.2 1631.8,48.9 
		1631.5,48.9 1630.9,48.3 1630.6,48.3 1630.6,48 1630,48 1627.1,46.1 1626.8,45.7 1622.7,42.6 1618.9,39.4 1613.9,29.6 1613,24.2 
		1611.9,10.9 1610.1,-22.4 1608.9,-82.3 1608.4,-98.8 1608.1,-115.3 1606,-124.1 1602.5,-140.3 1600.2,-150.8 1600.5,-150.5 
		1602.5,-150.8 1604.5,-151.1 1606.9,-151.7 1608.1,-151.7 1608.1,-152.1 1609.8,-152.7 1611.9,-153 1613.9,-153.6 1615.9,-153.6 
		1616.8,-154 1618,-154.3 1618.9,-154.3 1619.8,-154.3 1621.2,-154.9 1623,-155.2 1625,-156.2 1625.9,-156.5 1626.2,-157.1 
		1626.8,-158.1 1627.1,-158.1 1627.9,-158.1 1628.5,-157.4 1628.8,-157.4 1629.7,-157.4 1633.5,-157.4 1635.8,-158.1 1636.7,-158.4 
		1637.6,-159 1637.6,-159.3 1638.8,-159.7 1639.3,-160.3 1639.6,-161.2 1641.4,-161.2 1642,-161.5 1643.5,-163.5 1644.6,-166 
		1644.9,-166.6 1645.5,-166.6 1646.7,-166.9 1647.2,-166.9 1647.8,-166.9 1648.7,-166.9 1650.5,-166.9 1651.3,-167.6 1652.5,-167.6 
		1653.4,-167.9 1654.3,-168.2 1655.1,-168.8 1655.7,-168.8 1657.5,-167.9 1658.6,-167.6 1660.1,-167.6 1662.5,-167.6 1663,-167.6 
		1664.5,-167.6 1666,-167.9 1667.1,-168.2 1670,-169.8 1670,-170.1 1670.9,-170.8 1671.2,-170.8 1671.5,-170.1 1672.1,-169.8 
		1672.4,-169.2 1673,-169.8 1672.4,-169.8 1671.5,-170.8 1671.5,-171.1 1672.1,-171.4 1672.4,-171.4 1673.9,-171.4 1674.4,-171.1 
		1675.3,-171.1 1676.8,-171.1 1677.1,-171.1 1677.4,-171.1 1679.1,-170.8 1681.7,-171.1 1682.3,-171.1 1683.2,-171.4 1684.1,-172.3 
		1685,-173 1685.3,-173 1685.8,-173.9 1686.7,-173.9 1687.6,-174.2 1687.9,-174.6 1688.8,-175.2 1689.9,-175.2 1690.8,-175.5 
		1692,-175.5 1692.6,-175.5 1693.1,-176.5 1693.7,-176.5 1695.5,-176.8 1696.1,-177.4 1696.7,-177.7 1697,-178.4 1697.5,-178.7 
		1697.5,-179.3 1698.1,-179.6 1699.6,-180 1701.1,-180.6 1701.9,-181.5 1702.5,-181.5 1703.7,-182.5 1704.6,-182.8 1706.6,-183.1 
		1707.5,-183.7 1707.8,-184.1 1709,-185.6 1710.4,-186.9 1711.3,-187.9 1711.9,-188.5 1713.3,-191.4 1714.2,-192.6 1714.5,-193.3 
		1714.5,-193.6 1714.8,-194.5 1715.4,-195.8 1715.4,-196.4 1715.7,-197.7 1716.3,-198.7 1716.8,-199.9 1716.8,-200.2 1716.3,-199.6 
		1715.4,-197.7 1714.8,-196.8 1714.8,-195.8 1714.5,-193.6 1714.2,-193.6 1715.4,-198.7 1716.3,-199.9 1716.3,-200.2 1716.5,-200.9 
		1718.3,-202.8 1718.6,-202.8 1719.8,-203.4 1721.2,-203.4 1721.5,-204 1721.5,-204.3 1722.1,-205 1722.4,-205 1723.3,-204.3 
		1725,-204 1727.1,-205 1728.5,-205.6 1729.1,-205.6 1730.3,-206.3 1731.5,-206.6 1732.1,-207.2 1732.9,-207.2 1733.2,-207.5 
		1732.3,-207.5 1732.1,-207.5 1731.5,-207.2 1731.2,-207.2 1731.5,-208.2 1732.1,-208.2 1733.2,-208.2 	"/>
	<polygon fill="none" stroke="#6E6E6E" stroke-width="2" stroke-linejoin="round" stroke-miterlimit="8" points="1506.1,315 
		1498.8,368.9 1504.6,371.8 1522.5,381 1521.6,381.9 1521,382.2 1519.6,385.1 1517.8,387.3 1516.1,389.5 1515.8,389.9 1513.7,391.8 
		1512,393.6 1512,394 1511.1,395.2 1509.9,396.2 1509.9,396.8 1509.6,397.1 1507.6,399.4 1504.1,403.5 1503.8,404.4 1501.1,407 
		1497.3,411.7 1493.2,417.1 1491.2,418.7 1490,420.3 1485,425 1484.2,426 1483.3,426.6 1481.5,428.8 1480.4,430.1 1478.3,432 
		1478.3,432.3 1477.4,433.3 1477.1,434.2 1475.7,435.5 1475.1,436.4 1473,439.6 1470.4,442.1 1467.8,445 1466.6,446.9 1465.7,447.2 
		1465.4,447.2 1419.5,415.2 1420.3,389.2 1420.1,388.6 1402.5,373.7 1399.6,349.9 1406.6,334.1 1408,324.2 1408.3,323.3 
		1394.6,327.4 1371.2,321.1 1368.5,315 1358.9,292.2 1429.1,214.3 1430.3,213 1505.8,230.8 1488,271.9 1496.7,285.9 1506.1,314.1 	
		"/>
	<polygon fill="none" stroke="#6E6E6E" stroke-width="2" stroke-linejoin="round" stroke-miterlimit="8" points="1170.9,384 
		1184.9,410.6 1185.8,411.9 1188.7,418.2 1187,431.8 1185.8,463.9 1185.8,466.1 1185.8,477.2 1185.8,479.1 1173.8,480.4 1156,478.5 
		1150.1,478.1 1146,502.9 1146,503.5 1144.3,514.3 1144,516.5 1136.1,564.4 1082,565 1066.5,617.3 1036,619.9 1036,583.1 
		1036,564.7 1036,536.8 1036,497.5 1058.9,472.8 1060.3,471.5 1097.8,413.1 1101,407.7 1101.3,407.4 1101.9,406.8 1102.2,406.5 
		1103.6,405.2 1103.9,404.3 1103.9,403.3 1103.6,403.3 1103.9,402.4 1105.1,400.4 1105.7,400.4 1105.7,400.1 1106,399.2 
		1107.7,399.2 1108,398.9 1110,396.6 1110.9,394.8 1111.8,394.4 1112.7,393.5 1113,392.9 1113.8,392.9 1114.4,392.9 1117.7,392.9 
		1121.5,392.9 1125.5,392.5 1128.8,392.5 1130.2,392.5 1133.7,391.9 1136.1,391.6 1137.2,391.6 1139.3,391.3 1141.4,391.3 
		1142.2,390.6 1143.1,391.3 1145.2,391.3 1146,390.6 1146.9,390.6 1147.5,390.3 1148.4,390.3 1149.2,389.7 1150.1,389.7 
		1153.1,388.4 1155.1,387.1 1156,387.1 1156.9,386.5 1157.4,386.5 1158,386.5 1158.9,386.2 1159.2,386.2 1160.1,386.2 1160.9,386.2 
		1165.6,386.2 1166.2,386.2 1166.8,385.9 1168,384.9 1168.9,384.3 1170,383.3 1170.6,383 	"/>
	<polygon fill="none" stroke="#6E6E6E" stroke-width="2" stroke-linejoin="round" stroke-miterlimit="8" points="1371.2,321 
		1394.7,327.3 1408.4,323.2 1408.1,324.1 1406.7,334 1399.6,349.8 1402.6,373.6 1420.1,388.5 1420.4,389.1 1419.5,415.1 
		1408.1,422.4 1398.5,439.5 1396.4,442.7 1393.8,445.2 1392.6,447.4 1392.6,448 1392.6,448.3 1392.3,449 1392.3,449.3 1392.3,449.6 
		1392.3,450.3 1391.7,450.3 1391.7,450.6 1391.7,451.2 1391.7,451.5 1391.4,451.5 1391.4,452.2 1391.4,452.5 1391.4,452.8 
		1390.9,452.8 1390.9,453.4 1390.9,453.7 1389.4,459.8 1388.8,460.1 1387.6,464.2 1342,467.7 1340.2,468.3 1331.4,467.4 
		1325.6,464.2 1312.4,463.2 1305.1,462.9 1304.8,439.8 1304.5,429.3 1306.6,417.3 1303.1,401.1 1303.1,400.5 1298.1,374.8 
		1297.8,373.6 1292.2,339.4 1291.9,334.9 1319.4,335.9 1320.6,334.3 1325.3,329.5 1358.9,292.1 1368.6,314.9 	"/>
	<polygon fill="none" stroke="#6E6E6E" stroke-width="2" stroke-linejoin="round" stroke-miterlimit="8" points="1177,602.1 
		1197.2,634.1 1197.8,635 1203,642.6 1203.6,643.6 1215.9,662.6 1215,662.9 1213.6,664.2 1213.6,664.8 1213.3,665.1 1209.5,669.2 
		1207.1,671.5 1205.4,673.7 1201.3,678.7 1199.5,681 1197.2,683.5 1195.7,685.4 1194.8,686 1193.4,687.6 1192.2,689.5 1159.7,690.5 
		1159.1,689.5 1152.4,658.8 1151.8,656.6 1138.1,612.9 1130.5,613.5 1121.7,613.8 1117.3,613.8 1066.4,617.3 1081.9,565 1136,564.4 
		1140.1,567 1140.4,567 1140.4,567.6 1144.5,569.8 1148,573.3 1148.3,573.9 1148.9,574.2 1149.2,574.5 1149.5,574.5 1149.5,575.2 
		1150.1,575.2 1150.1,575.5 1150.4,575.5 1150.4,576.1 1150.9,576.5 1151.2,576.5 1151.2,576.8 1151.8,576.8 1151.8,577.4 
		1152.1,577.4 1152.1,577.7 1152.4,577.7 1152.4,578.4 1153,578.4 1153,578.7 1153.3,578.7 1153.3,579.3 1153.9,579.3 1153.9,579.6 
		1154.2,579.6 1154.2,579.9 1154.7,579.9 1154.7,580.6 1155,580.6 1155,580.9 1155.3,580.9 1155.9,581.5 1156.2,581.8 1156.8,581.8 
		1156.8,582.5 1157.1,582.5 1157.1,582.8 1157.4,582.8 1157.4,583.1 1158,583.1 1158,583.7 1158.3,583.7 1158.3,584 1158.8,584.7 
		1159.1,584.7 1159.1,585 1159.7,585 1159.7,585.3 1160,585.3 1160,585.9 1160.3,585.9 1160.3,586.3 1160.9,586.3 1160.9,586.9 
		1161.2,586.9 1161.2,587.2 1161.8,587.2 1161.8,587.9 1162.1,587.9 1162.7,588.2 1162.7,588.5 1162.9,588.5 1163.2,589.1 
		1163.8,589.4 1164.1,590.1 1164.7,590.4 1165,591 1165.6,591.3 1165.9,591.6 1166.2,591.6 1166.2,592.3 1166.7,592.3 1166.7,592.6 
		1167,592.6 1167,593.2 1167.6,593.2 1167.6,593.5 1167.9,593.5 1167.9,593.9 1168.2,593.9 1171.7,597.7 1175.5,600.2 	"/>
	<path fill="none" stroke="#6E6E6E" stroke-width="2" stroke-linejoin="round" stroke-miterlimit="8" d="M1159.1,689.6l0.6,1l32.5-1
		l-2.3,2.5l-0.6,1l-2.3,2.2l-1.5,2.5l-0.6,0.3l-0.6,0.3l-0.9,1.9l-2,2.2l-2.9,3.8l-1.5,1.3l-0.3,0.3l-5.6,7l-0.6,0.6l-2.6,2.9
		l-0.3,0.3l-0.9,1l-2.1,1.9l-1.8,1.9l-1.2,1.6l-1.5,1.6l-1.2,1.2l-0.9,0.3l-4.4,5.1l-1.8,1l-0.3,0.3l-1.5,1.3l-0.3,1l-1.2,1.9
		l-0.9,1.3v0.6l-0.6,0.6v0.6h-0.3v0.3h0.3v0.6h-0.3l-0.3,0.3l-0.6-0.3h-0.3l-0.9,0.3l-0.9,0.6l-1.7,2.5l-0.9,1l-0.3,0.3v0.6v0.3
		l0.3,0.6l0.6,0.3l-0.6,0.3v0.6h-0.3v0.3l-0.3-0.3l0.3-1h-0.3h-0.6l-0.3,0.3v0.6h-0.6l-0.3,1l-0.6,0.3l-1.2,1l-0.9,1l-0.3,1
		l-0.3,0.3l-0.6,1.3l-2.1,1.6l-0.3,0.9l-0.6,0.3l-0.9,1l-0.3,0.3l-0.9,1.3l-0.3,0.6v0.3v0.6h-0.6l-1.2,1.3l-0.3,1.3l-0.6,0.6
		l-1.8,1.6l-0.3,0.6v0.3v0.6v0.3h-0.9h-0.3v1l-0.9,0.3v1l-0.9,1l-0.3,0.3l-0.6,0.6l-0.9,1l-0.3,1l-1.2,1.3l-1.5,1h-0.3h-0.3
		l-0.6,0.3l-1.2,0.6h-0.6h-0.6h-1.5h-0.9l-0.3,0.6h-0.3l-0.6-0.6v-0.6l0.6-1.9l0.6-1.3v-0.3v-1l1.5-1.2v-1h-0.6v0.3h-0.3v1l-0.9,0.9
		l-0.9,1.9l-0.3,0.3h-0.6h-0.3h-0.3h-0.6h-1.2l-0.6-1l-0.3-0.3l0.9-3.2v-1l-0.6-0.6h-0.3v0.6v0.3l-0.3,3.2l-0.6,1l0.6,0.6l0.3,0.6
		l0.3,0.6h0.6h0.3l1.5-0.6h0.6h0.6v0.6v1.3v0.6v0.3l0.3,0.3l0.6,0.6h0.3l0.9-0.6l0.9-0.3v0.3l0.3,0.6v0.3l-0.9,1.9l-0.3,0.3v1v0.6
		h-0.9l-0.9,0.6l-0.3,1l-0.6,0.6l-0.3,1.6l-0.3,0.9l-0.9,1l-0.6,0.3l-1.2,1l-0.3,0.6v0.3h-0.6l-0.3-0.3v-0.6l0.3-1.3v-1l-0.9-0.9
		v-0.3l0.6-2.9v-0.3l-0.6-0.3v-0.6l-1.2-1.3l-0.9-0.6h-0.9h-0.3h-0.6v0.6l0.6,0.3h0.3l0.6-0.3h0.3l0.6,0.3l0.3,1l0.9,1l0.3,0.3
		l-0.3,1.9v1.9v0.3v0.6l0.3,0.3v1v1v1h0.9v0.3v0.3l-1.2,1.9v0.6v0.6v0.6l-0.9,1l-0.3,0.6l-1.5,2.5v0.3l-0.3,0.3l-1.2,0.9l-0.6,1.6
		l-0.3,0.6l-0.6,0.6l-0.3,0.3v0.6l0.3,0.3l1.5-1.3h0.3v0.3v0.6l-0.9,0.3v0.6l-0.9,0.3l-0.6,0.3v-0.3h0.3l-0.3-0.3l-0.6,0.3h-0.3
		l-0.6-0.3l-0.3-0.6v-0.3l-0.6-0.6v-1V805l-0.6-0.3h-0.9l-0.6-0.6l-0.9-0.3v-0.9l-0.3,0.3l-2.1-0.3l-1.2,1.3l-0.9,0.6l-1.2,0.6
		l-1.5,1.6l-0.3,1l-0.6,0.6l-0.3,1.6l0.9-0.9l0.3-0.9v-0.3l0.6-1l2-1.9l0.9-1l1.5-0.9h0.6l1.2,0.6l0.9,0.3l0.3,0.6l1.5,0.3v0.3v0.6
		l0.3,1.9l0.3,1.6v0.9l-0.6,0.9l-0.9,1.9l-1.5,2.5l-2.1,3.2l-1.5,1.9v0.3v0.6l-1.5,1.6l-0.6,1.9l-1.5,1.9l-0.3,1.3l-0.6,1l-2.1,3.5
		l-2.1,3.2l-0.9,1h-0.3l-0.3,0.9l-0.9,1.3l-0.6,1h0.6l0.3,0.3l-0.3,0.6l-0.6,0.3l-0.3-0.3h-0.6l-0.3,0.3l-0.3,0.9v0.3h-0.6v-4.8
		L1036,779v-49.1V714v-94.1l30.4-2.5l50.9-3.5h4.4l8.8-0.3l7.6-0.6l13.8,43.7l0.6,2.2L1159.1,689.6z M1147.2,744.1l-0.9,1h-0.3v-0.6
		h0.3h0.6v-0.6h0.3l0.3-0.6v0.6L1147.2,744.1z M1131.3,764.7v0.6h-0.9h-0.3v-0.6h0.3v-0.3l-0.3-0.3h0.3l0.9-0.6l0.3-1h0.6v0.6v0.3
		l-0.9,1V764.7z M1126.7,771.7l-0.3,0.3v-0.3l0.3-1l0.6-0.6l0.9-0.3l0.3-0.3h0.3l-0.3,0.3l-0.9,0.3l-0.3,1L1126.7,771.7z
		 M1125.5,772.6h-0.3V772l0.6-0.3v0.3v0.6H1125.5z M1124.3,774.8l-0.6,1h-0.3v-0.6l0.3-0.3l0.6-0.6l0.3,0.6H1124.3z M1120.8,779
		l-0.9,0.6l-0.6,1l-0.6,0.6l-0.3,0.3h-0.6l-0.3,0.3v1l-0.3,0.6l-0.6-0.6l0.6-0.3v-0.6l0.3-0.3v-0.3l1.2-0.6v-0.3l0.6-1h0.6v-1h0.6
		l0.3-0.3l0.9-0.6l1.2-1.6l0.6,0.3l-0.6,0.3l-0.6,1l-0.9,0.6L1120.8,779z M1115.6,785v-0.3l0.3-0.3v0.3L1115.6,785z M1115,786.9
		l-0.3,1l-0.3-0.3v-0.6h0.3v-0.3v-0.6h0.3v0.6V786.9z M1109.7,793.2h-0.3l-0.6-0.3h-0.3l0.3-0.6h0.6l0.3-0.3l0.3-1l0.6-0.6h0.3V790
		h0.6l-0.6,0.3v0.6v0.3h-0.3v0.6l-0.6,0.3h-0.3v0.6h0.3L1109.7,793.2z M1106.5,797.7l-0.9,0.6v-0.6l0.9-0.3l0.3-0.6l0.3,0.6
		l-0.3,0.3H1106.5z M1102.1,804h-0.3h-0.6l0.6-0.3l0.9-0.9l0.3-0.9h0.6h0.3l-0.3,0.3v0.6l-0.9,0.9L1102.1,804z"/>
	<polygon fill="none" stroke="#6E6E6E" stroke-width="2" stroke-linejoin="round" stroke-miterlimit="8" points="1640.2,132 
		1651.1,145 1650.2,146.2 1647.6,150.3 1645.5,152.9 1644.6,154.5 1643.5,156.1 1642.3,158 1641.4,159.2 1639.7,162.1 1638.5,163.4 
		1635.3,169.7 1634.7,170 1632.9,171.9 1631.5,175.1 1630.6,177.3 1629.7,178.2 1628.5,180.1 1627.7,181.4 1627.4,182.3 
		1626.8,182.7 1626.5,184.3 1625.9,184.6 1625,186.5 1625,186.8 1623,190.3 1623,190.9 1622.7,191.2 1622.1,191.9 1620.9,194.4 
		1620.6,195 1619.8,196.3 1619.5,197.3 1619.5,198.5 1618.9,199.8 1617.7,203.9 1616.8,204.9 1616.6,206.8 1615.7,208.3 
		1615.1,209.3 1614.8,210.3 1613.9,212.5 1612.8,215.3 1611,221 1611,222 1610.7,222.9 1610.7,226.1 1610.1,227.7 1610.7,228.6 
		1610.7,229.6 1610.7,230.9 1610.7,231.5 1608.9,236.2 1608.6,238.1 1608.1,238.8 1607.2,240.4 1606.9,241.3 1604,248.9 
		1603.4,249.6 1602.2,252.1 1601.1,254 1600.8,255.3 1599.3,257.5 1599,257.5 1597.8,260.3 1597.2,261.3 1596.1,263.5 1594.9,265.7 
		1594.3,266 1592.9,269.8 1589.9,274.3 1589.4,274.6 1585.3,281.9 1584.7,282.2 1582.3,286.9 1581.2,290.1 1580.6,291.1 
		1579.7,291.7 1575.3,298.7 1574.4,300 1572.4,302.2 1571.8,302.5 1571.8,303.1 1571.8,303.4 1571.5,304.1 1569.8,306.3 
		1564.5,313.6 1564.5,313.9 1563.9,313.9 1561,318.3 1560.4,319.9 1560.4,320.2 1559.5,320.5 1558.9,321.5 1558.9,322.1 1556,325.6 
		1554.6,327.5 1553.7,329.7 1553.1,329.7 1551.9,332 1550.7,333.9 1549.6,336.1 1547.8,338.6 1545.8,342.7 1545.2,344.6 
		1544.6,345.9 1542,351 1541.7,351.3 1541.7,352.3 1540.8,353.5 1539.9,355.4 1537.9,358.6 1537,359.5 1536.7,360.8 1534.9,363.3 
		1534.1,365.2 1533.2,367.1 1532.3,368.1 1531.4,370.3 1529.4,372.8 1527,375.7 1524.4,377.9 1523.5,378.9 1522.4,380.5 
		1522.1,381.1 1504.2,371.9 1498.4,369.1 1505.7,315.2 1505.7,314.2 1496.3,286 1487.6,272.1 1505.4,230.9 1429.9,213.1 
		1455.4,184.6 1488.4,148.1 1502.5,132.6 1502.8,132.6 1569.5,144 1571.5,142.7 1606.9,120.9 1608.6,120.9 1618,121.8 1623.9,124.7 
		1635.9,131 	"/>
	<polygon fill="none" stroke="#6E6E6E" stroke-width="2" stroke-linejoin="round" stroke-miterlimit="8" points="1613.9,29.6 
		1618.8,39.5 1622.7,42.6 1626.8,45.8 1627,46.1 1630,48 1630.5,48 1630.5,48.3 1630.8,48.3 1631.4,49 1631.7,49 1631.7,49.3 
		1632,49.3 1632.6,49.9 1632.9,49.9 1633.5,50.2 1633.8,50.2 1633.8,50.9 1634.1,50.9 1634.7,51.2 1637.9,53.4 1642,53.4 
		1642.5,53.4 1642.8,53.4 1643.4,53.4 1643.7,53.4 1644.3,53.4 1644.6,53.4 1644.9,53.4 1644.9,54 1645.5,54 1645.8,54 1646.4,54 
		1646.6,54 1647.2,54 1647.5,54 1647.8,54 1648.4,54 1648.7,54 1649.3,54 1649.6,54 1650.2,54 1654.3,54 1661.3,57.8 1662.5,62.6 
		1663,62.9 1663,63.2 1663,63.9 1663,64.2 1663.3,64.2 1663.3,64.8 1663.3,65.8 1663.6,66.1 1666,73.4 1669.2,68 1672.1,63.2 
		1680.3,64.8 1689.7,73.4 1689.7,73.7 1689.1,73.7 1688.8,74.3 1688.2,74.3 1687.9,75 1687.9,75.9 1687.9,76.5 1687.6,76.9 
		1687.6,78.1 1687.6,79.1 1687,80 1686.7,80.3 1686.1,83.5 1685.3,84.5 1685,84.5 1685,85.1 1682.3,87.3 1681.2,88.3 1680.9,88.6 
		1680,88.9 1678.3,89.9 1677.1,90.8 1675.9,91.4 1673.3,94 1672.4,95.2 1672.1,95.2 1670.3,98.1 1669.2,99 1667.1,101.6 
		1667.1,102.2 1666.5,102.2 1666.3,102.2 1665.4,101.6 1666,102.2 1666.3,102.5 1665.4,103.8 1664.5,104.7 1664.2,106.3 
		1663.6,107.9 1663.6,110.8 1663.3,113 1663.6,113.3 1663.6,113.9 1663.6,114.2 1664.2,114.9 1664.2,115.2 1664.5,115.2 
		1665.4,115.2 1665.4,115.5 1665.1,116.2 1665.1,116.5 1665.4,117.1 1664.5,118.4 1665.1,118.7 1664.5,120.3 1663.6,120.6 
		1663,121.9 1662.5,122.8 1661.6,123.4 1661.6,123.7 1661.3,124.1 1660.7,125.6 1660.4,126.3 1660.4,128.2 1660.1,129.1 
		1660.1,130.1 1658.6,132.6 1656.3,137.4 1655.7,138 1655.4,139 1654.3,141.8 1652.2,145 1641.4,132 1637,131 1625,124.7 
		1619.1,121.9 1609.8,120.9 1608,120.9 1572.6,142.8 1570.6,144 1503.9,132.6 1503.6,132.6 1534,99 1530.2,99 1529,99 1530.5,97.1 
		1544,82.9 1538.4,80.3 1574.7,38.5 1586.7,38.5 1611.8,10.9 1613,24.2 	"/>
	<polygon fill="none" stroke="#6E6E6E" stroke-width="2" stroke-linejoin="round" stroke-miterlimit="8" points="1584.6,-155.9 
		1585.5,-155.9 1589.6,-154.9 1591,-154.3 1591.3,-154 1593.1,-153.6 1594.3,-152.7 1596,-152.1 1597.2,-151.1 1599.2,-150.8 
		1600.1,-150.8 1602.5,-140.3 1606,-124.1 1608,-115.3 1608.3,-98.8 1608.9,-82.3 1610.1,-22.4 1575.8,-20.2 1574.7,-20.2 
		1540.4,-17 1539,-17 1498.6,-14.1 1470.8,-12.2 1468.4,-11.9 1457.3,-11.6 1452.4,-10.6 1449.2,-13.2 1449.2,-13.8 1448.6,-13.8 
		1448.3,-14.1 1447.7,-14.1 1447.7,-14.8 1447.4,-14.8 1447.4,-15.1 1446.8,-15.1 1446.8,-15.4 1446.5,-15.4 1446.2,-16 
		1445.6,-16.4 1445.3,-16.4 1445.3,-17 1444.8,-17 1444.8,-17.3 1444.5,-17.3 1444.2,-17.9 1443.6,-17.9 1443.6,-18.3 1443.3,-18.3 
		1443.3,-18.6 1442.7,-18.6 1442.4,-19.2 1441.8,-19.5 1441.5,-19.5 1441.5,-20.2 1441.2,-20.2 1441.2,-20.5 1440.6,-20.5 
		1440.4,-20.8 1439.8,-21.4 1439.5,-21.4 1439.5,-21.7 1438.9,-21.7 1438.9,-22.4 1438.6,-22.4 1438.6,-22.7 1438.3,-22.7 
		1437.7,-22.7 1437.7,-23.3 1437.4,-23.3 1437.4,-23.6 1436.9,-23.6 1436.9,-23.9 1436.6,-23.9 1436.3,-24.6 1435.7,-24.9 
		1435.4,-24.9 1435.4,-25.5 1434.8,-25.5 1434.8,-25.9 1434.5,-25.9 1433.9,-26.5 1433.6,-26.8 1433.3,-26.8 1433.3,-27.1 
		1432.8,-27.1 1432.8,-27.8 1432.5,-27.8 1431.9,-28.1 1431.6,-28.1 1431.6,-28.7 1431,-28.7 1431,-29 1430.7,-29 1430.4,-29.7 
		1429.8,-30 1429.5,-30 1429.5,-30.3 1428.9,-30.3 1428.9,-30.9 1428.7,-30.9 1428.7,-31.2 1428.1,-31.2 1427.8,-31.9 1427.5,-31.9 
		1427.5,-32.2 1426.9,-32.2 1426.9,-32.5 1426.6,-32.5 1426.6,-33.2 1426,-33.2 1425.7,-33.2 1425.7,-33.5 1425.4,-33.5 
		1425.4,-34.1 1424.9,-34.1 1424.9,-34.4 1424.6,-34.4 1424,-35.1 1423.7,-35.4 1423.1,-35.4 1423.1,-35.7 1422.8,-35.7 
		1422.8,-36.3 1422.5,-36.3 1421.9,-36.6 1421.6,-36.6 1421.6,-37.3 1421.1,-37.3 1421.1,-37.6 1420.8,-37.6 1420.2,-38.2 
		1419.9,-38.5 1419.6,-38.9 1419,-38.9 1419,-39.5 1418.7,-39.5 1418.7,-39.8 1418.1,-39.8 1417.8,-40.5 1417.5,-40.8 1417,-40.8 
		1417,-41.1 1416.7,-41.1 1416.7,-41.7 1416.1,-41.7 1415.8,-42 1415.2,-42 1415.2,-42.7 1414.9,-42.7 1414.9,-43 1414.6,-43 
		1414.6,-43.6 1414,-43.6 1413.7,-43.9 1413.1,-43.9 1413.1,-44.3 1412.9,-44.3 1412.9,-44.9 1412.3,-44.9 1412.3,-45.2 1412,-45.2 
		1411.7,-45.8 1411.1,-45.8 1411.1,-46.2 1410.8,-46.2 1410.8,-46.8 1410.2,-46.8 1409.9,-47.1 1409.4,-47.4 1409.1,-48 1408.8,-48 
		1408.8,-48.4 1408.2,-48.4 1408.2,-49 1407.9,-49 1407.3,-49.3 1407,-49.6 1406.7,-49.6 1406.7,-50.3 1406.1,-50.3 1406.1,-50.6 
		1405.8,-50.6 1405.3,-51.2 1405,-51.2 1405,-51.5 1404.4,-51.5 1404.4,-52.2 1404.1,-52.2 1403.8,-52.5 1403.2,-52.8 1402.9,-52.8 
		1402.9,-53.4 1402.3,-53.4 1402.3,-53.8 1402,-53.8 1402,-54.4 1401.4,-54.4 1401.1,-54.4 1401.1,-54.7 1400.9,-54.7 1400.9,-55.3 
		1400.3,-55.3 1400.3,-55.7 1400,-55.7 1399.4,-56 1399.1,-56 1399.1,-56.6 1398.8,-56.6 1398.8,-56.9 1398.2,-56.9 1398.2,-57.6 
		1397.9,-57.6 1397.4,-57.9 1397.1,-58.5 1396.5,-58.5 1396.5,-58.8 1396.2,-59.2 1393.3,-61.4 1395,-114.6 1395.3,-114.6 
		1395.9,-114.3 1399.4,-113.7 1400.3,-113.7 1404.4,-114.6 1407,-115.3 1409.4,-115.3 1409.9,-115.3 1411.1,-114.3 1412.9,-113.1 
		1413.1,-113.1 1413.7,-112.4 1415.2,-109.9 1417,-108.3 1417.5,-108 1419,-108 1419.9,-108 1420.8,-107.7 1421.6,-107.7 
		1421.9,-107.7 1424.6,-107.7 1427.5,-108.9 1427.8,-108.9 1429.5,-109.9 1433.6,-111.2 1434.5,-111.2 1435.7,-111.2 1436.6,-111.5 
		1437.4,-111.5 1438.3,-112.1 1439.8,-112.4 1441.5,-113.7 1442.7,-114.3 1443.6,-115.3 1444.2,-115.3 1445.3,-115.6 1446.5,-116.5 
		1447.4,-116.5 1448.3,-117.5 1448.6,-117.5 1449.4,-117.8 1449.7,-118.5 1450.6,-118.8 1451.5,-119.1 1452.1,-119.7 1452.4,-120 
		1452.6,-120.7 1454.1,-121 1454.4,-121.6 1455.3,-122.2 1455.6,-122.9 1456.5,-123.8 1457.3,-124.1 1458.2,-124.1 1458.2,-124.8 
		1458.5,-124.8 1459.1,-125.4 1460.6,-125.4 1461.1,-125.4 1461.4,-126.4 1462.3,-126.4 1463.2,-127 1463.5,-127.3 1464.1,-127.6 
		1464.1,-128.6 1464.4,-129.2 1464.9,-129.2 1465.5,-129.2 1467.3,-129.5 1468.1,-130.2 1469.3,-130.5 1470.8,-130.8 1471.1,-131.8 
		1471.4,-132.4 1471.4,-133.3 1472,-134 1472.3,-134 1473.7,-135.6 1474,-135.9 1474,-136.8 1474.3,-137.2 1477.2,-138.1 
		1479,-139.1 1480.7,-139.4 1480.7,-140 1481.9,-141 1483.1,-141.3 1484.2,-142.2 1485.7,-142.2 1487.2,-143.5 1488.9,-144.1 
		1490.7,-144.5 1491.6,-145.4 1492.4,-145.4 1493.6,-145.7 1495.1,-145.4 1495.9,-145.7 1496.5,-145.7 1497.4,-145.7 1498.6,-146.3 
		1499.8,-146.3 1501.8,-145.7 1502.7,-145.7 1503,-145.4 1503.6,-145.1 1504.7,-144.1 1505.9,-142.6 1506.8,-142.2 1508.2,-141.3 
		1509.4,-141 1510.9,-139.4 1511.5,-139.4 1511.5,-139.1 1512.3,-139.1 1513.5,-139.1 1514.7,-139.4 1518.2,-141 1519.7,-141.3 
		1520.5,-141.9 1521.7,-141.3 1523.5,-141 1525.2,-141 1526.4,-141 1528.4,-141.3 1528.4,-141.9 1529,-141.9 1529.3,-141.9 
		1530.5,-141.3 1532.5,-141 1534,-141.3 1535.2,-141 1536.3,-141.3 1537.8,-141.3 1539,-141.9 1540.1,-141.9 1541.3,-142.2 
		1541.9,-142.2 1542.2,-141.9 1543.4,-142.2 1544.2,-141.9 1545.7,-142.2 1547.2,-143.5 1548,-144.1 1548.3,-144.5 1548.9,-145.4 
		1549.2,-145.7 1549.8,-145.7 1550.7,-146.7 1551.3,-147.6 1551.8,-147.9 1555.1,-148.6 1555.9,-148.9 1556.8,-149.8 1557.1,-149.8 
		1557.7,-150.8 1558,-150.8 1558.9,-151.1 1559.2,-152.1 1560,-153 1562.1,-153 1562.1,-153.6 1562.7,-154 1563.5,-154 1564.7,-154 
		1567.6,-154 1568.5,-154 1569.4,-154.3 1571.4,-155.9 1572.3,-156.2 1572.9,-156.2 1573.5,-156.2 1575.5,-155.9 1577.6,-155.9 
		1578.8,-156.2 1580.5,-157.1 1581.7,-157.1 1582.3,-157.1 	"/>
	<polygon fill="none" stroke="#6E6E6E" stroke-width="2" stroke-linejoin="round" stroke-miterlimit="8" points="1449.1,467.7 
		1448.8,468.3 1445.5,471.8 1445.5,472.5 1444.7,472.8 1442.6,475.6 1439.7,478.5 1436.2,482.3 1435,483.6 1433,485.8 1430,488 
		1429.7,488.6 1428.3,489.6 1427.1,490.2 1424.8,492.7 1423.3,493.4 1422.4,494.3 1420.4,496.5 1418.9,498.4 1416.3,500.3 
		1416,500.6 1415.4,501.3 1415.4,501.9 1415.1,502.6 1414.5,502.6 1413.9,502.9 1413.4,503.8 1413.1,505.7 1412.2,506.7 
		1410.4,507.9 1410.1,507.9 1409.6,508.9 1408.1,509.8 1407.2,510.5 1405.4,513 1404.3,514.3 1404.3,514.6 1403.7,514.6 
		1403.7,515.5 1403.1,515.9 1401.6,516.8 1400.8,517.8 1400.8,518.4 1400.5,519 1400.2,519.7 1399.3,520.9 1398.4,521.5 
		1397.3,522.2 1396.4,523.1 1393.7,526 1392.3,528.2 1391.7,528.2 1390.5,529.2 1388.8,530.1 1387.3,531.7 1386.7,531.7 
		1384.7,533.6 1384.4,533.6 1382.9,534.5 1380,536.1 1380,536.8 1379.7,536.8 1378.8,537.1 1378.5,537.1 1377.9,537.7 1377.7,538 
		1377.1,538 1376.8,538 1374.7,539.9 1372.1,541.8 1369.8,543.1 1369.2,543.4 1368.6,544 1367.7,545 1367.1,545 1366.8,545.3 
		1366.2,545.3 1364.8,546.3 1362.7,546.6 1353.4,547.5 1351.3,547.8 1348.4,548.8 1344.3,546.6 1344.3,542.5 1344.6,510.5 
		1344.6,510.1 1344.6,509.8 1345.2,505.1 1344.3,504.5 1342.6,501.3 1335.2,489.6 1334.7,489.6 1334.7,488.9 1334.7,488.6 
		1334.4,488.6 1334.4,488 1333.8,488 1333.8,487.7 1333.8,487 1333.5,487 1333.5,486.7 1333.2,486.7 1333.2,486.4 1332.6,485.8 
		1332.6,485.5 1332.3,484.8 1331.7,484.5 1331.7,484.2 1331.4,484.2 1329.4,480.4 1328.5,476 1327.6,472.8 1327.6,472.5 
		1327.6,471.8 1327.3,471.8 1327.3,471.5 1325.6,464.2 1331.4,467.4 1340.2,468.3 1342,467.7 1387.6,464.2 1388.8,460.1 
		1389.4,459.8 1390.8,453.8 1390.8,453.5 1390.8,452.8 1391.4,452.8 1391.4,452.5 1391.4,452.2 1391.4,451.6 1391.7,451.6 
		1391.7,451.2 1391.7,450.6 1391.7,450.3 1392.3,450.3 1392.3,449.7 1392.3,449.3 1392.3,449 1392.6,448.4 1392.6,448.1 
		1392.6,447.4 1393.7,445.2 1396.4,442.7 1398.4,439.5 1408.1,422.4 1419.5,415.1 1465.4,447.1 1465.7,447.1 1464.6,448.4 
		1463.4,449.7 1460.8,452.8 1460.5,453.5 1456.6,457.6 1454.3,460.7 1453.7,461.1 1451.4,465.2 	"/>
	<polygon fill="none" stroke="#6E6E6E" stroke-width="2" stroke-linejoin="round" stroke-miterlimit="8" points="1335.6,564.4 
		1335.6,564.4 1335.3,564.4 1334.7,564.4 1334.4,564.4 1333.5,564.7 1332.4,566 1330.6,566.6 1330.3,566.6 1329.4,567.6 
		1328.8,567.6 1328.2,567.6 1327.4,567.9 1326.8,568.2 1325.9,568.9 1325.3,569.2 1324.7,569.8 1323.3,571.1 1322.7,571.1 
		1320.7,572.3 1318.9,573.9 1317.7,574.2 1316,575.5 1315.1,576.1 1314.8,576.1 1312.5,578.4 1307.8,580.9 1307.2,580.9 1304,583.7 
		1303.7,584.1 1303.1,584.7 1303.1,585 1302.2,585 1301.6,586 1300.8,586.3 1299,587.9 1298.1,588.2 1297.3,588.2 1296.4,589.1 
		1295.2,590.1 1294,591.7 1293.7,591.7 1292.9,591.7 1291.1,593.6 1290.2,593.9 1289.1,595.5 1288.2,595.8 1287,597.1 1286.4,597.1 
		1286.1,597.7 1285.3,598 1285,598.6 1283.2,600.2 1279.4,603.4 1278.3,604.3 1276.2,606.2 1275.3,607.2 1272.7,608.8 1272.4,609.4 
		1271.2,610.7 1269.8,611.6 1267.4,613.9 1265.7,615.8 1265.4,616.1 1265.4,617 1261.6,619.9 1259.8,621.4 1259.5,622.1 
		1259.5,622.4 1259.2,623 1259.5,623.7 1259.2,623.7 1258.4,623.7 1257.5,624.3 1253.4,627.8 1253.4,628.4 1252.5,629.1 1251,631 
		1251,631.6 1250.5,631 1249.9,631.6 1248.4,633.2 1247,634.1 1246.7,634.1 1245.5,635.4 1245.5,636 1245.8,636.4 1245.5,637 
		1244.6,637 1243.8,637 1242.6,638.2 1240.8,639.5 1240.5,639.5 1238.8,640.8 1237.9,641.7 1237.6,642.4 1236.1,643 1235.3,643.6 
		1234.1,644.6 1233.2,645.5 1232.3,646.2 1232.1,647.8 1231.8,648.1 1229.7,650 1227.4,650.9 1226.8,651.9 1225.3,653.2 1223,655.4 
		1220.4,657.9 1220.4,658.5 1218.3,660.4 1217.4,661.1 1216.5,662 1216,662.7 1203.7,643.6 1203.1,642.7 1197.8,635.1 1197.2,634.1 
		1177.1,602.1 1200.8,589.4 1201.3,589.1 1220.1,579.3 1220.4,578.7 1241.1,569.8 1242.9,569.2 1282.3,550.5 1296.1,543.5 
		1295.8,542.5 1295.2,538.7 1295.2,538.1 1295.2,537.8 1295.2,537.2 1295.2,536.8 1295.2,536.2 1295.2,535.9 1295.2,535.6 
		1294.9,534.9 1294.9,534.6 1294.9,534 1294.9,533.7 1294.9,533.4 1294.9,532.7 1294.9,532.4 1294.9,531.8 1294.9,531.5 
		1294.3,530.8 1294.3,530.5 1294.3,530.2 1294.3,529.5 1294.3,529.2 1294.3,528.6 1294.3,528.3 1294,523.8 1294.3,518.5 
		1296.1,508.3 1296.1,508 1296.4,502.9 1295.2,498.2 1296.1,493.4 1296.1,493.1 1296.1,492.8 1296.4,492.8 1296.4,492.1 
		1296.4,491.8 1296.4,491.2 1296.4,490.9 1297,490.2 1297,489.9 1297,489.6 1297,489 1297,488.7 1297.3,488 1297.3,487.7 
		1297.3,487.1 1297.3,486.8 1297.3,486.5 1297.8,486.5 1297.8,485.8 1297.8,485.5 1297.8,484.9 1297.8,484.5 1299,479.5 
		1297.3,470.6 1297.3,470 1297.3,469.7 1297.3,469.3 1296.4,464.3 1305.1,463 1312.5,463.3 1325.6,464.3 1327.4,471.5 1327.4,471.9 
		1327.7,471.9 1327.7,472.5 1327.7,472.8 1328.5,476 1329.4,480.4 1331.5,484.2 1331.8,484.2 1331.8,484.5 1332.4,484.9 
		1332.6,485.5 1332.6,485.8 1333.2,486.5 1333.2,486.8 1333.5,486.8 1333.5,487.1 1333.8,487.1 1333.8,487.7 1333.8,488 1334.4,488 
		1334.4,488.7 1334.7,488.7 1334.7,489 1334.7,489.6 1335.3,489.6 1342.6,501.3 1344.3,504.5 1345.2,505.1 1344.6,509.9 
		1344.6,510.2 1344.6,510.5 1344.3,542.5 1344.3,546.7 1348.4,548.9 1347.3,550.8 1347.3,551.1 1347,551.1 1347,551.7 1346.4,551.7 
		1346.4,552.1 1346.1,552.1 1346.1,552.7 1346.1,553 1345.5,553 1345.5,553.6 1345.2,553.6 1345.2,554 1344.6,554 1344.6,554.3 
		1344.6,554.9 1344.3,554.9 1344.3,555.2 1344.1,555.2 1344.1,555.8 1343.5,555.8 1343.5,556.2 1343.5,556.5 1343.2,556.5 
		1343.2,557.1 1342.6,557.1 1342.6,557.4 1342.3,557.4 1342.3,558.1 1342,558.4 1339.4,562.2 1339.1,562.5 1338.5,562.5 
		1337.6,562.8 1336.7,563.8 1335.6,563.8 	"/>
	<polygon fill="none" stroke="#6E6E6E" stroke-width="2" stroke-linejoin="round" stroke-miterlimit="8" points="1449.2,-13.2 
		1452.4,-10.6 1457.3,-11.6 1468.4,-11.9 1470.8,-12.2 1498.6,-14.1 1539,-17 1540.4,-17 1574.7,-20.1 1575.9,-20.1 1610.1,-22.4 
		1611.8,10.9 1586.7,38.5 1574.7,38.5 1538.4,80.3 1544,82.9 1530.5,97.1 1529,99 1464.4,99 1470.8,55.6 1463.5,40.7 1458.2,40.4 
		1458.2,38.5 1406.1,35.3 1408.2,22 1403.2,-11.9 1396.2,-59.1 1396.5,-58.8 1396.5,-58.5 1397,-58.5 1397.3,-57.9 1397.9,-57.5 
		1398.2,-57.5 1398.2,-56.9 1398.8,-56.9 1398.8,-56.6 1399.1,-56.6 1399.1,-56 1399.4,-56 1400,-55.6 1400.3,-55.6 1400.3,-55.3 
		1400.9,-55.3 1400.9,-54.7 1401.1,-54.7 1401.1,-54.4 1401.4,-54.4 1402,-54.4 1402,-53.7 1402.3,-53.7 1402.3,-53.4 1402.9,-53.4 
		1402.9,-52.8 1403.2,-52.8 1403.8,-52.5 1404.1,-52.1 1404.4,-52.1 1404.4,-51.5 1405,-51.5 1405,-51.2 1405.3,-51.2 1405.8,-50.6 
		1406.1,-50.6 1406.1,-50.3 1406.7,-50.3 1406.7,-49.6 1407,-49.6 1407.3,-49.3 1407.9,-49 1408.2,-49 1408.2,-48.4 1408.8,-48.4 
		1408.8,-48 1409.1,-48 1409.3,-47.4 1409.9,-47.1 1410.2,-46.8 1410.8,-46.8 1410.8,-46.1 1411.1,-46.1 1411.1,-45.8 1411.7,-45.8 
		1412,-45.2 1412.3,-45.2 1412.3,-44.9 1412.8,-44.9 1412.8,-44.2 1413.1,-44.2 1413.1,-43.9 1413.7,-43.9 1414,-43.6 1414.6,-43.6 
		1414.6,-43 1414.9,-43 1414.9,-42.7 1415.2,-42.7 1415.2,-42 1415.8,-42 1416.1,-41.7 1416.7,-41.7 1416.7,-41.1 1417,-41.1 
		1417,-40.7 1417.5,-40.7 1417.8,-40.4 1418.1,-39.8 1418.7,-39.8 1418.7,-39.5 1419,-39.5 1419,-38.8 1419.6,-38.8 1419.9,-38.5 
		1420.2,-38.2 1420.8,-37.6 1421.1,-37.6 1421.1,-37.3 1421.6,-37.3 1421.6,-36.6 1421.9,-36.6 1422.5,-36.3 1422.8,-36.3 
		1422.8,-35.7 1423.1,-35.7 1423.1,-35.4 1423.7,-35.4 1424,-35 1424.6,-34.4 1424.9,-34.4 1424.9,-34.1 1425.4,-34.1 1425.4,-33.4 
		1425.7,-33.4 1425.7,-33.1 1426,-33.1 1426.6,-33.1 1426.6,-32.5 1426.9,-32.5 1426.9,-32.2 1427.5,-32.2 1427.5,-31.9 
		1427.8,-31.9 1428.1,-31.2 1428.7,-31.2 1428.7,-30.9 1428.9,-30.9 1428.9,-30.3 1429.5,-30.3 1429.5,-30 1429.8,-30 1430.4,-29.7 
		1430.7,-29 1431,-29 1431,-28.7 1431.6,-28.7 1431.6,-28.1 1431.9,-28.1 1432.5,-27.8 1432.8,-27.8 1432.8,-27.1 1433.3,-27.1 
		1433.3,-26.8 1433.6,-26.8 1433.9,-26.5 1434.5,-25.9 1434.8,-25.9 1434.8,-25.5 1435.4,-25.5 1435.4,-24.9 1435.7,-24.9 
		1436.3,-24.6 1436.6,-23.9 1436.9,-23.9 1436.9,-23.6 1437.4,-23.6 1437.4,-23.3 1437.7,-23.3 1437.7,-22.7 1438.3,-22.7 
		1438.6,-22.7 1438.6,-22.4 1438.9,-22.4 1438.9,-21.7 1439.5,-21.7 1439.5,-21.4 1439.8,-21.4 1440.4,-20.8 1440.6,-20.5 
		1441.2,-20.5 1441.2,-20.1 1441.5,-20.1 1441.5,-19.5 1441.8,-19.5 1442.4,-19.2 1442.7,-18.6 1443.3,-18.6 1443.3,-18.2 
		1443.6,-18.2 1443.6,-17.9 1444.2,-17.9 1444.5,-17.3 1444.8,-17.3 1444.8,-17 1445.3,-17 1445.3,-16.3 1445.6,-16.3 1446.2,-16 
		1446.5,-15.4 1446.8,-15.4 1446.8,-15.1 1447.4,-15.1 1447.4,-14.8 1447.7,-14.8 1447.7,-14.1 1448.3,-14.1 1448.6,-13.8 
		1449.2,-13.8 	"/>
	<polygon fill="none" stroke="#6E6E6E" stroke-width="2" stroke-linejoin="round" stroke-miterlimit="8" points="1464.4,99 
		1462.9,99 1462.9,98.4 1457.7,96.8 1455.6,95.9 1454.4,95.2 1446.8,92.7 1445.7,92.1 1437.5,88.9 1436.3,88.6 1434.6,88.2 
		1433.7,87.6 1429.9,86.3 1428.7,86 1426.9,85.4 1426.6,85.1 1424.9,84.5 1424.6,84.1 1420.2,82.9 1417,81.9 1416.1,81.3 
		1413.2,80.3 1411.7,79.7 1410.3,79.1 1409.4,78.7 1407.3,78.1 1406.2,77.8 1403.2,76.8 1400.9,75.9 1399.5,74.9 1398.9,74.9 
		1397.4,74.6 1397.1,74.3 1396.2,74.3 1394.5,73.7 1387.5,71.1 1386.3,70.5 1385.1,70.2 1380.4,68.3 1377.5,67.3 1375.8,67 
		1369.3,64.1 1368.7,64.1 1367.8,64.1 1364.9,62.9 1360.5,61 1359.1,60.7 1357.9,60.7 1356.7,59.7 1355.9,59.7 1352.1,58.4 
		1343.3,55.3 1342.1,54.6 1339.8,54 1338.3,54 1335.1,52.4 1330.1,50.8 1329,49.9 1326.3,49.3 1321.6,47.7 1321.3,47.7 1321,47 
		1317.5,46.1 1312.3,43.9 1309.3,43.5 1307.6,42.6 1306.7,42.3 1305.8,41.6 1300.6,39.7 1299.7,39.4 1299.7,-2.1 1309.3,-44.3 
		1312.3,-48.4 1314.3,-50.6 1329,-68.4 1385.4,-63 1385.7,-63 1393.3,-61.4 1396.2,-59.2 1403.2,-12 1408.2,22 1406.2,35.3 
		1458.2,38.5 1458.2,40.4 1463.5,40.7 1470.8,55.6 	"/>
	<g>
		<text transform="matrix(1 0 0 1 1192.2349 381.3041)"><tspan x="0" y="0" font-family="'HelveticaNeue'" font-size="16.8828">B</tspan><tspan x="11.6" y="0" font-family="'HelveticaNeue'" font-size="16.8828">a</tspan><tspan x="20.7" y="0" font-family="'HelveticaNeue'" font-size="16.8828">k</tspan><tspan x="29.5" y="0" font-family="'HelveticaNeue'" font-size="16.8828">o</tspan><tspan x="39.2" y="0" font-family="'HelveticaNeue'" font-size="16.8828">o</tspan><tspan x="48.9" y="0" font-family="'HelveticaNeue'" font-size="16.8828">l</tspan></text>
	</g>
	<g>
		<text transform="matrix(1 0 0 1 1363.4751 485.351)"><tspan x="0" y="0" font-family="'HelveticaNeue'" font-size="16.8828">Mid</tspan><tspan x="28.5" y="0" font-family="'HelveticaNeue'" font-size="16.8828">d</tspan><tspan x="38.4" y="0" font-family="'HelveticaNeue'" font-size="16.8828">le </tspan></text>
	</g>
	<g>
		<text transform="matrix(1 0 0 1 1058.313 724.8842)" fill="#FFFFFF" font-family="'HelveticaNeue'" font-size="16.8828">Lower</text>
	</g>
	<g>
		<text transform="matrix(1 0 0 1 1105.4106 724.8842)"><tspan x="0" y="0" fill="#FFFFFF" font-family="'HelveticaNeue'" font-size="16.8828">J</tspan><tspan x="8.8" y="0" fill="#FFFFFF" font-family="'HelveticaNeue'" font-size="16.8828">ub</tspan><tspan x="28.1" y="0" fill="#FFFFFF" font-family="'HelveticaNeue'" font-size="16.8828">a</tspan></text>
	</g>
	<path fill="none" stroke="#808080" stroke-width="2" stroke-miterlimit="8" d="M1170.9,610"/>
	<path fill="none" stroke="#808080" stroke-width="2" stroke-miterlimit="8" d="M1410.8,590.5"/>
	<path fill="none" stroke="#808080" stroke-width="2" stroke-miterlimit="8" d="M1147.4,722.9"/>
	<path fill="none" stroke="#808080" stroke-width="2" stroke-miterlimit="8" d="M1354.3,419"/>
	<path fill="none" stroke="#808080" stroke-width="2" stroke-miterlimit="8" d="M1193.4,515.5"/>
	<path fill="none" stroke="#808080" stroke-width="2" stroke-miterlimit="8" d="M1228.5,634.8"/>
	<g>
		<g>
			<text transform="matrix(1 0 0 1 1367.2817 567.7357)"><tspan x="0" y="0" font-family="'HelveticaNeue'" font-size="10.409">M</tspan><tspan x="9.1" y="0" font-family="'HelveticaNeue'" font-size="10.409">og</tspan><tspan x="21" y="0" font-family="'HelveticaNeue'" font-size="10.409">a</tspan><tspan x="26.6" y="0" font-family="'HelveticaNeue'" font-size="10.409">dishu</tspan></text>
		</g>
		<path fill-rule="evenodd" clip-rule="evenodd" fill="#203864" d="M1344.2,560.9c0-5.2,4.7-9.5,10.6-9.5c5.9,0,10.6,4.2,10.6,9.5
			s-4.7,9.5-10.6,9.5C1349,570.4,1344.2,566.1,1344.2,560.9z"/>
		<path fill="none" stroke="#7F7F7F" stroke-width="1.02" stroke-miterlimit="8" d="M1344.2,560.9c0-5.2,4.7-9.5,10.6-9.5
			c5.9,0,10.6,4.2,10.6,9.5s-4.7,9.5-10.6,9.5C1349,570.4,1344.2,566.1,1344.2,560.9z"/>
		<polygon fill="#FFFFFF" points="1349.1,558.2 1354.1,558.2 1355.7,553.6 1357.3,558.2 1362.3,558.2 1358.2,561.1 1359.8,565.7 
			1355.7,562.8 1351.6,565.7 1353.2,561.1 		"/>
		<g>
			<text transform="matrix(1 0 0 1 1194.5181 521.2767)"><tspan x="0" y="0" font-family="'HelveticaNeue'" font-size="16.8828">Ba</tspan><tspan x="20.7" y="0" font-family="'HelveticaNeue'" font-size="16.8828">y</tspan></text>
		</g>
		<g>
			<text transform="matrix(1 0 0 1 1093.5181 602.642)"><tspan x="0" y="0" font-family="'HelveticaNeue'" font-size="13.8363">Mi</tspan><tspan x="15.1" y="0" font-family="'HelveticaNeue'" font-size="13.8363">d</tspan><tspan x="23.3" y="0" font-family="'HelveticaNeue'" font-size="13.8363">d</tspan><tspan x="31.4" y="0" font-family="'HelveticaNeue'" font-size="13.8363">l</tspan><tspan x="34.5" y="0" font-family="'HelveticaNeue'" font-size="13.8363">e</tspan><tspan x="41.9" y="0" font-family="'HelveticaNeue'" font-size="13.8363"> </tspan><tspan x="45.9" y="0" font-family="'HelveticaNeue'" font-size="13.8363">J</tspan><tspan x="53.1" y="0" font-family="'HelveticaNeue'" font-size="13.8363">u</tspan><tspan x="60.7" y="0" font-family="'HelveticaNeue'" font-size="13.8363">b</tspan><tspan x="68.9" y="0" font-family="'HelveticaNeue'" font-size="13.8363">a</tspan></text>
		</g>
		<g>
			<text transform="matrix(1 0 0 1 1416.9165 485.351)"><tspan x="0" y="0" font-family="'HelveticaNeue'" font-size="16.8828">Sha</tspan><tspan x="29.4" y="0" font-family="'HelveticaNeue'" font-size="16.8828">b</tspan><tspan x="39.4" y="0" font-family="'HelveticaNeue'" font-size="16.8828">el</tspan><tspan x="52.2" y="0" font-family="'HelveticaNeue'" font-size="16.8828">l</tspan><tspan x="56" y="0" font-family="'HelveticaNeue'" font-size="16.8828">e</tspan></text>
		</g>
		<g>
			<text transform="matrix(1 0 0 1 1409.6411 343.8158)"><tspan x="0" y="0" font-family="'HelveticaNeue'" font-size="16.8828">G</tspan><tspan x="12.8" y="0" font-family="'HelveticaNeue'" font-size="16.8828">a</tspan><tspan x="21.9" y="0" font-family="'HelveticaNeue'" font-size="16.8828">lg</tspan><tspan x="35.4" y="0" font-family="'HelveticaNeue'" font-size="16.8828">a</tspan><tspan x="44.5" y="0" font-family="'HelveticaNeue'" font-size="16.8828">duu</tspan><tspan x="73.2" y="0" font-family="'HelveticaNeue'" font-size="16.8828">d</tspan></text>
		</g>
		<g>
			<text transform="matrix(1 0 0 1 1530.6938 211.0834)"><tspan x="0" y="0" font-family="'HelveticaNeue'" font-size="16.8828">M</tspan><tspan x="14.7" y="0" font-family="'HelveticaNeue'" font-size="16.8828">u</tspan><tspan x="24" y="0" font-family="'HelveticaNeue'" font-size="16.8828">du</tspan><tspan x="43.4" y="0" font-family="'HelveticaNeue'" font-size="16.8828">g</tspan></text>
		</g>
		<g>
			<text transform="matrix(1 0 0 1 1586.731 80.3549)"><tspan x="0" y="0" font-family="'HelveticaNeue'" font-size="16.8828">Nuga</tspan><tspan x="40.3" y="0" font-family="'HelveticaNeue'" font-size="16.8828">a</tspan><tspan x="49.4" y="0" font-family="'HelveticaNeue'" font-size="16.8828">l</tspan></text>
		</g>
		<g>
			<text transform="matrix(1 0 0 1 1678.2134 -122.2408)"><tspan x="0" y="0" font-family="'HelveticaNeue'" font-size="16.8828">B</tspan><tspan x="11.6" y="0" font-family="'HelveticaNeue'" font-size="16.8828">a</tspan><tspan x="20.7" y="0" font-family="'HelveticaNeue'" font-size="16.8828">ri</tspan></text>
		</g>
		<g>
			<text transform="matrix(1 0 0 1 1516.7446 -53.1861)"><tspan x="0" y="0" font-family="'HelveticaNeue'" font-size="16.8828">Sana</tspan><tspan x="38.5" y="0" font-family="'HelveticaNeue'" font-size="16.8828">a</tspan><tspan x="47.6" y="0" font-family="'HelveticaNeue'" font-size="16.8828">g</tspan></text>
		</g>
		<g>
			<text transform="matrix(1 0 0 1 1460.3853 18.5346)"><tspan x="0" y="0" font-family="'HelveticaNeue'" font-size="16.8828">S</tspan><tspan x="10.9" y="0" font-family="'HelveticaNeue'" font-size="16.8828">o</tspan><tspan x="20.7" y="0" font-family="'HelveticaNeue'" font-size="16.8828">o</tspan><tspan x="30.4" y="0" font-family="'HelveticaNeue'" font-size="16.8828">l</tspan></text>
		</g>
		<g>
			<text transform="matrix(1 0 0 1 1235.2798 -31.858)"><tspan x="0" y="0" font-family="'HelveticaNeue'" font-size="16.8828">Wo</tspan><tspan x="25.4" y="0" font-family="'HelveticaNeue'" font-size="16.8828">q</tspan><tspan x="35.4" y="0" font-family="'HelveticaNeue'" font-size="16.8828">o</tspan><tspan x="45.1" y="0" font-family="'HelveticaNeue'" font-size="16.8828">o</tspan><tspan x="54.7" y="0" font-family="'HelveticaNeue'" font-size="16.8828">yi</tspan></text>
		</g>
		<g>
			<text transform="matrix(1 0 0 1 1235.2798 -11.5494)"><tspan x="0" y="0" font-family="'HelveticaNeue'" font-size="16.8828">G</tspan><tspan x="12.8" y="0" font-family="'HelveticaNeue'" font-size="16.8828">a</tspan><tspan x="21.9" y="0" font-family="'HelveticaNeue'" font-size="16.8828">lbeed</tspan></text>
		</g>
		<g>
			<text transform="matrix(1 0 0 1 1184.5044 -114.7506)"><tspan x="0" y="0" font-family="'HelveticaNeue'" font-size="16.8828">A</tspan><tspan x="11" y="0" font-family="'HelveticaNeue'" font-size="16.8828">w</tspan><tspan x="23.8" y="0" font-family="'HelveticaNeue'" font-size="16.8828">d</tspan><tspan x="33.7" y="0" font-family="'HelveticaNeue'" font-size="16.8828">al</tspan></text>
		</g>
		<g>
			<text transform="matrix(1 0 0 1 1217.8755 630.2299)"><tspan x="0" y="0" font-family="'HelveticaNeue'" font-size="16.8828">Lower S</tspan><tspan x="62.2" y="0" font-family="'HelveticaNeue'" font-size="16.8828">h</tspan><tspan x="71.5" y="0" font-family="'HelveticaNeue'" font-size="16.8828">abel</tspan><tspan x="103.4" y="0" font-family="'HelveticaNeue'" font-size="16.8828">l</tspan><tspan x="107.2" y="0" font-family="'HelveticaNeue'" font-size="16.8828">e</tspan></text>
		</g>
		<g>
			<text transform="matrix(1 0 0 1 1339.27 418.1596)"><tspan x="0" y="0" font-family="'HelveticaNeue'" font-size="16.8828">Hir</tspan><tspan x="21.6" y="0" font-family="'HelveticaNeue'" font-size="16.8828">a</tspan><tspan x="30.7" y="0" font-family="'HelveticaNeue'" font-size="16.8828">an</tspan></text>
		</g>
		<g>
			<text transform="matrix(1 0 0 1 1097.7915 459.9213)" font-family="'HelveticaNeue'" font-size="16.8828">Gedo</text>
		</g>
		<g>
			<text transform="matrix(1 0 0 1 1337.1294 18.7045)"><tspan x="0" y="0" font-family="'HelveticaNeue'" font-size="16.8828">T</tspan><tspan x="9.7" y="0" font-family="'HelveticaNeue'" font-size="16.8828">o</tspan><tspan x="19.4" y="0" font-family="'HelveticaNeue'" font-size="16.8828">g</tspan><tspan x="29.1" y="0" font-family="'HelveticaNeue'" font-size="16.8828">dh</tspan><tspan x="48.5" y="0" font-family="'HelveticaNeue'" font-size="16.8828">eer</tspan></text>
		</g>
		<path fill="none" stroke="#808080" stroke-width="0.48" stroke-miterlimit="8" d="M1207.1,377.8"/>
	</g>
	<path fill="none" stroke="#808080" stroke-width="2" stroke-miterlimit="8" d="M1387.7,25.2"/>
</g>
</svg>
