<?xml version="1.0" encoding="utf-8"?>
<!-- Generator: Adobe Illustrator 18.0.0, SVG Export Plug-In . SVG Version: 6.00 Build 0)  -->
<!DOCTYPE svg PUBLIC "-//W3C//DTD SVG 1.1//EN" "http://www.w3.org/Graphics/SVG/1.1/DTD/svg11.dtd">
<svg version="1.1"
	 id="svg2241" xmlns:dc="http://purl.org/dc/elements/1.1/" xmlns:cc="http://web.resource.org/cc/" xmlns:rdf="http://www.w3.org/1999/02/22-rdf-syntax-ns#" xmlns:svg="http://www.w3.org/2000/svg" xmlns:sodipodi="http://sodipodi.sourceforge.net/DTD/sodipodi-0.dtd" xmlns:inkscape="http://www.inkscape.org/namespaces/inkscape" inkscape:version="0.45" sodipodi:docbase="L:\Regionen in Somalia" sodipodi:docname="Somalia regions map Bakool.svg" inkscape:output_extension="org.inkscape.output.svg.inkscape" sodipodi:modified="true" sodipodi:version="0.32"
	 xmlns="http://www.w3.org/2000/svg" xmlns:xlink="http://www.w3.org/1999/xlink" x="0px" y="0px" viewBox="0 0 595.3 841.9"
	 enable-background="new 0 0 595.3 841.9" xml:space="preserve">
<sodipodi:namedview  id="base" pagecolor="#ffffff" bordercolor="#666666" borderopacity="1.0" inkscape:zoom="0.75488405" inkscape:cx="177.241" inkscape:cy="400.12648" inkscape:document-units="px" inkscape:pageopacity="0.0" inkscape:current-layer="g2292" inkscape:window-y="-4" inkscape:pageshadow="2" inkscape:window-width="1152" inkscape:window-height="792" inkscape:window-x="-4">
	</sodipodi:namedview>
<g id="layer1" inkscape:label="Ebene 1" inkscape:groupmode="layer">
	<g id="g2292" transform="translate(-658.6079,-11.12096)">
		<path id="path2304" fill="#DCDCD9" d="M718.2,778.8c-6.4-8.6-13.2-18-15.1-21l-3.6-5.2v-94.5v-94.5l8-8
			c6.7-6.7,30.7-40.1,39.6-55.2c3.7-6.2,8-8.5,17.7-9.1c4.7-0.3,13.5-1.5,19.4-2.7l10.7-2.1l5.1-8.1c6.9-11,9.8-12.9,35.5-23.2
			l10.3-4.1l27.7,0.3l27.7,0.3l15.6-16.6c8.5-9.2,35.8-38.6,60.7-65.5c24.8-26.9,51.6-55.6,59.5-63.8c13.4-13.9,17.8-20.8,12.2-19.1
			c-4.6,1.4-43.2,2.2-47.1,0.9c-26.9-8.4-96-30.7-97.5-31.5c-1.1-0.6-13.2-4.4-26.9-8.5l-24.9-7.6l-10.2-9.5
			c-5.6-5.2-11.3-9.5-12.7-9.5c-1.3,0-4.4-2.1-6.7-4.7c-2.4-2.6-5.3-5.7-6.6-6.8c-1.3-1.1-2.3-3.7-2.3-5.7c0-2.2-1.2-4.7-2.9-6.2
			c-13-11.4-20.9-20.9-25.2-30.1c-2.2-4.7-4-9-4-9.5c0-1.6,28.8-43.8,29.8-43.8c0.6,0,1.1,0.9,1.1,2.1c0,1.1,1.7,2.8,3.9,3.6
			c2.2,0.9,3.9,2.5,3.9,3.6s3,6.8,6.8,12.3c4.9,7.4,10.1,12.9,19,20.3c17.5,14.5,18,14.6,34.5,13.5c12.4-0.9,14.6-1.3,21.8-5.5
			c4.4-2.5,8.6-5.4,9.5-6.4c0.9-1,2.8-1.9,4.4-1.9s7-2.6,12.1-5.8c9.1-5.7,9.4-5.8,13.8-3.9c2.5,1,7.4,1.9,10.8,1.9
			c3.6,0,8,0.9,10.2,2.2c3.6,2.1,4.3,2.1,10.9,0c6.4-2.1,18.3-9.6,28.6-18.2c5.5-4.6,14.2-8.8,18-8.8c1.8,0,4.9,0.8,6.8,1.7
			c2.7,1.3,6.2,1.5,15.6,0.6c10.3-0.9,12.7-1.7,16.8-4.7c8.1-6.3,17.3-8.1,27.8-5.2c5.9,1.6,7.5,1.4,25.2-3.5
			c3.9-1.1,8.9-3.2,10.9-4.8c2.4-1.7,6.9-3.3,11.6-3.9c4.3-0.6,9.6-1.3,11.9-1.6c9.8-1.4,21.8-9.7,25-17.2c1.3-3.2,3.5-6,4.7-6.4
			c1.3-0.4,3.2-1.3,4.4-1.8c1.3-0.7,5.1-0.1,10.9,2c4.8,1.7,10.4,3.4,12.4,3.9c2.9,0.6,3.6,1.5,3.6,4.8c0,2.2-1.1,5.9-2.4,8.1
			c-1.3,2.2-3.2,7.4-4.1,11.5c-1.6,7-1.5,7.7,0.9,10.4c2.1,2.4,2.4,3.7,1.5,6.8c-0.7,2.4-0.6,7.8,0.4,13.8
			c1.3,8.5,1.2,10.4-0.6,14.2c-1.2,2.4-1.8,4.7-1.4,5.4c0.4,0.6-1,2-3.1,3.1c-4.7,2.5-5.4,4.2-5.4,13.6c0,4-0.9,12-1.8,17.7
			c-1.2,6.7-1.4,11.4-0.6,13.4c1.3,3.4,0.3,6-4.8,12.9c-1.7,2.2-3,5.5-3,7.1c0,1.7-1.9,5.1-4.5,7.8c-3.4,3.5-5.3,7.4-7.8,15.7
			c-1.8,6.1-4.4,11.9-5.7,13.1c-1.3,1.1-3.2,4.6-4,7.7c-1.1,4.1-3.6,7.6-9.8,13.6c-7.7,7.4-8.2,8.4-7.5,12.2
			c0.6,3.3-0.2,6.3-4.5,14.8c-2.9,5.9-7.4,13.9-10,18c-12.8,20.1-17.8,31.9-19,44.4c-0.4,4.7-2.2,11.5-4,15.4
			c-3.9,8.5-16.7,28.6-28.9,45c-4.8,6.6-10.7,15.8-13,20.4c-2.3,4.7-5.5,10.4-7.3,12.7c-1.7,2.3-3.1,4.6-3.1,5.1s-3.8,5.3-8.5,10.7
			c-4.7,5.4-10,12.2-11.9,15.1c-1.9,2.9-9,11.3-15.9,18.6c-6.9,7.3-15,16.4-17.9,20.2C988,552.8,941.7,594,935.8,594
			c-0.6,0-2,0.9-2.9,2.1c-0.9,1.2-6.4,4.4-12.1,7.2c-18.4,8.9-43,26-59.3,41.3c-10.8,10-31.6,28.6-33.5,29.9
			c-0.7,0.5-2.7,2.7-4.3,4.8c-5.2,6.9-17.1,19.9-34.4,37.6c-9.3,9.4-19.9,21.4-23.7,26.7c-4.2,5.7-7.9,9.4-9.3,9.4
			c-1.4,0-2.4,0.9-2.4,2.5c0,1.4-1.1,3.3-2.4,4.3c-1.3,0.9-2.8,3.2-3.4,5s-2.1,4.8-3.4,6.7c-1.3,1.9-2.4,4-2.4,4.7
			c0,1.9-9.7,17.6-11.1,18C730.4,794.3,724.6,787.4,718.2,778.8z M1210.7,156.4c-1.2-1.2-1.7-2.7-1.1-3.3c1.6-1.7,8.8,0.7,8.8,2.8
			C1218.3,158.6,1213.3,158.9,1210.7,156.4z"/>
		<path id="path2380" fill="#F2F2ED" d="M717.3,769.6l-13.8-18.7v-54.3v-54.3l33.8,0.3l33.8,0.3l6.1,25.4c3.4,14,6.2,25.6,6.2,25.7
			c0,0.2,5.5,0.3,11.9,0.3h11.9l-14.2,14c-12.3,12.1-26.1,27.7-32,36c-1.4,2-2.2,2.2-4.4,0.9c-6.1-3.3-10.4,0.2-6.1,5.1
			c2.2,2.5,2.2,2.5-1.2,2.5c-3.2,0-3.4,0.2-2.6,5c0.6,4.2,0.2,5.6-2.5,8.7c-1.8,2-3.3,5-3.3,6.6s-0.6,3.3-1.3,3.8
			c-0.7,0.5-2.5,3.1-3.9,5.9s-3,5.1-3.6,5.1C731.6,788.2,724.9,779.9,717.3,769.6z"/>
		<path id="path2378" sodipodi:nodetypes="ccccsscccssc" fill="#F2F2ED" d="M786.6,690.1l-12.3-49.7l-44.3-0.5l9.7-28.2l36.9-0.1
			c0.2,0,9.7,8.5,14.5,12.5c7.8,6.7,9.7,9.5,20.3,29.3l11.8,21.9l-5.9,7c-5.5,6.4-6.4,7-11.3,7c-2.9,0-8.3,0.4-11.9,0.8
			C790.3,690.7,787,690.7,786.6,690.1z"/>
		<path id="path2376" fill="#F2F2ED" d="M824.3,668.4c-1.1-1.3-18.2-33.5-19.5-36.5c-0.2-0.6,17.7-10,39.9-21
			c22.2-11,41.1-20.8,42-21.9c1.1-1.3,1.7-9.4,1.9-25.9l0.3-24l7.8-0.4c5.2-0.2,8.3,0.2,9.3,1.3c0.8,0.9,3.7,7.2,6.6,14
			c4.9,11.4,5.3,13.1,5.3,24.2v11.9l-5.5,4c-4,2.8-6,5.5-7,9.1c-1.2,4.1-2.7,5.8-7.8,8.5c-8.1,4.5-28.3,20.1-40.3,31.2
			c-18.8,17.4-29.9,27.1-30.8,27.1C826.1,670.1,825,669.3,824.3,668.4z"/>
		<path id="path2374" sodipodi:nodetypes="ccccsssscccccsscccc" fill="#F2F2ED" d="M704.3,639.4c-0.5-0.5-0.9-17.3-0.9-37.4v-36.5
			l7-7.2c6.4-6.6,35.8-47.8,40.1-56.3c2.7-5.2,8.1-7.6,17.6-7.6c4.4,0,11.3-0.9,15.2-2c3.9-1,7.8-1.9,8.7-2c0.9,0,3.9,3,6.8,6.6
			l5.2,6.6v23.2v23.2l-6,0.8c-3.3,0.5-8.1,0.8-10.7,0.8c-8.2,0-8.5,0.7-12.2,29.3c-3.2,25.9-4.8,24.4-2.3,27.2H737l-10.8,31.2
			L704.3,639.4z"/>
		<path id="path2372" fill="#F2F2ED" d="M795.9,621.4c-2.5-2.3-7.8-7.2-11.9-10.8l-7.4-6.6l2.8-23.4l2.8-23.4l5.1-0.9
			c2.8-0.5,7.8-0.9,11-1c3.2-0.1,6.6-0.8,7.4-1.7c0.9-0.9,1.6-5.9,1.6-13.1v-11.5h38h38l0.4,4.3c0.2,2.3,0.2,15.1,0,28.4l-0.4,24.1
			l-40.3,19.9c-22.1,10.9-40.8,19.9-41.5,19.9C801,625.6,798.4,623.8,795.9,621.4z"/>
		<path id="path2370" sodipodi:nodetypes="cssc" fill="#F2F2ED" d="M910,605.2c0-2.2,7.5-11.3,11.5-11.9c19.4-3.1,6.7,2.8-1.2,6.7
			C916.4,601.9,910,605.7,910,605.2z"/>
		<path id="path2368" fill="#F2F2ED" d="M929.8,589.5l-4.7-0.5l-0.5-12.7c-0.4-11.5-0.9-13.8-5.8-24.7c-2.9-6.6-5-12.3-4.5-12.6
			c0.5-0.2,10.4-0.9,22.1-1.3c24.5-1,24.8-1.2,24.4-12.1c-0.2-6.2,0.2-7.4,4.7-12.9c2.8-3.3,6-7.3,7.1-8.8c1.3-1.7,2.9-2.4,4.3-1.8
			c2.7,1,27.5,19,28.6,20.6c0.9,1.5-17.9,25.4-21.5,27.4c-1.6,0.9-8.4,7.2-15.2,14.2c-10.5,10.8-28,24.3-32.8,25.3
			C935.1,589.9,932.4,589.8,929.8,589.5z"/>
		<path id="path2366" fill="#F2F2ED" d="M900,535.1l-10-0.5V516c0-11.4-1-26.2-2.6-37.9c-1.4-10.6-2.6-20.1-2.6-21
			c0-1.3,2.2-1.8,8.5-1.8h8.5l8.6-9.4c18.7-20.6,19.3-21.2,20.6-19.9c0.7,0.7,3.1,6,5.4,11.7c5.6,14.3,5.4,14.2,15.6,13.1l8.5-0.9
			l0.8,5c0.5,2.7,0.8,8.5,0.8,13.1c0,9.6,1.5,14.2,4.9,15c2.4,0.6,4.2,5.6,4.2,11.6c0,1.3-4,8.5-9,16c-7.5,11.2-9,14.4-9,18.7v5.3
			h-17.9c-9.8,0-19.5,0.2-21.6,0.5C911.6,535.3,905.5,535.3,900,535.1z"/>
		<path id="path2364" fill="#F2F2ED" d="M829.8,524.7l-22.2-0.4V513c0-11.2-0.1-11.3-5.1-18.2l-5.1-6.9l4.9-8.1
			c5.9-9.7,13.2-14.3,33.9-21.4c12.9-4.4,14.5-4.6,28.3-4.3l14.7,0.4l2.4,15.7c1.3,8.8,2.5,24.3,2.6,35.2l0.2,19.5l-16.1,0.1
			C859.3,525.1,842,524.9,829.8,524.7z"/>
		<path id="path2362" sodipodi:nodetypes="cccsscccsscccccsssssssssc" fill="#F2F2ED" d="M992.9,507l-16.4-11.8l-0.9-8.5
			c-0.8-7.6-1.3-8.7-4.6-10.4c-3.6-1.8-3.7-2.4-3.8-11.4c-0.1-5.1-0.5-12-0.9-15.3l-0.9-5.9l-9-0.2c-12.2-0.2-11.9-0.1-12.8-3.9
			c-0.5-1.8-2.2-6.2-3.9-9.7c-5.9-12.4-4.4-10.5,13.1-29.3l15.4-16.9l18.6-0.6h20.3l0.9,6.2c1.5,11.2,2.3,12,11.7,12
			c4,0,4,0.2,4.7,7.5c0.4,4.1,1.4,18.5,2.3,32c0.9,14,2.2,25.4,3.1,26.6c1.1,1.5,4,2.1,10.8,2.4c5.1,0.2,9.7,0.6,10,1.1
			c0.4,0.5-2.8,5-7.3,10.2c-4.4,5.1-9.5,11.8-11.4,14.7c-3.9,6.2-19.5,22.9-21.5,22.9C1009.8,518.8,1001.9,513.5,992.9,507z"/>
		<path id="path2360" fill="#F2F2ED" d="M1134.6,314.2c0.1,0.1,0.2,0.2,0.2,0.2C1134.8,314.3,1134.7,314.2,1134.6,314.2z
			 M1123.5,333.7c-0.6,0.9-1.2,2-1.7,2.9C1122.3,335.7,1122.9,334.7,1123.5,333.7z M1057.3,364.1l-30.7,32.4c0.9,0.4,1.6,0.9,2,1.4
			c1.4,2,2.8,16.8,3.9,44.2c0.2,4.8,0.8,11.7,1.3,15.3l0.9,6.5l7.3,0.5c4,0.2,8.9,0.6,10.8,0.7c3.2,0.2,4-0.7,8.2-9.2
			c2.6-5.2,11.5-19.2,19.9-31.1c15.3-21.7,24.7-37.6,27.1-45.7c0.7-2.4,1.6-7.8,2-12.1c0.1-0.9,0.2-1.9,0.4-2.8L1057.3,364.1
			L1057.3,364.1z M1010.9,378.9c0.3,0.4,0.6,0.9,0.9,1.6C1011.6,379.8,1011.3,379.3,1010.9,378.9z M1012.4,381.8
			c0.2,0.7,0.5,1.4,0.6,2.3C1012.8,383.2,1012.7,382.5,1012.4,381.8z"/>
		<path id="path2358" fill="#F2F2ED" d="M1120.1,300.9c-15.3-7-17.5-7.7-25.9-7.7c-5.1,0-16.2-0.4-24.8-0.9
			c-17.8-0.9-18.9-1.9-11.8-10c2.4-2.8,3.8-5.7,3.6-7.7c-0.4-5.1,11.6-23.1,16-24c2.9-0.6,15.3-13.8,20.6-21.8
			c0.6-0.9,1.7-0.6,3.2,0.7c1.3,1.1,15.1,9.3,30.7,18c15.6,8.8,28.6,16.1,28.8,16.4c0.2,0.2-0.2,2.4-0.8,4.8
			c-0.8,2.8-4.2,7.3-9.1,12c-7.3,7-7.9,8.1-7.9,13.1c0,5.5-3.1,15-4.8,14.8C1137.3,308.7,1129.3,305.2,1120.1,300.9z"/>
		<path id="path2356" fill="#F2F2ED" d="M1000.9,284.7c-2.5-1-14.1-4.8-25.8-8.5c-11.7-3.6-25.3-8.1-30.3-9.7
			c-5-1.7-15.7-5.2-24-7.9l-15-4.9l-0.8-21.6c-0.4-11.9-1-24.7-1.3-28.5c-0.5-6.2-0.3-6.9,2.1-6.9c4.9,0,7.6-2.5,7.6-7v-4.4
			l19.6-0.8l19.6-0.8l6.6,4.5c3.6,2.5,7.2,4.5,8,4.5s2.1,1.1,2.8,2.5c0.7,1.3,3.1,3.2,5.2,4c2.1,0.9,4,2.1,4,2.8s1.7,2,3.6,3
			s5.5,3.6,7.8,5.5c3.6,3.2,4.1,4.5,4.1,10.2c0,3.6,0.6,10.5,1.2,15.4c1.1,8.4,1.5,9.3,8.3,16.5l7.2,7.7v11.9
			c0,6.5,0.2,12.3,0.3,12.8C1012.1,286.9,1005.5,286.6,1000.9,284.7z"/>
		<path id="path2354" fill="#F2F2ED" d="M1017.2,280.5c-0.4-2.7-1.1-9.3-1.5-14.6c-0.8-9.6-0.9-9.9-7.4-16.5l-6.5-6.7l-0.8-13.3
			c-0.5-8.5-0.3-13.4,0.6-13.8c1.9-0.7,60.8-4.5,68.3-4.4c3.6,0,9.8-0.5,13.9-1.2s9.2-0.9,11.3-0.5c3.3,0.7,3.8,1.3,3.8,5.5
			c0,4-1.6,6.6-10.4,17.4c-8,9.7-11.2,12.7-13.5,12.7c-2.6,0-4.7,2.5-12.1,14c-5.2,8.1-8.7,14.9-8.3,16.1c0.4,1.3-1.1,3.6-4,6.2
			c-4.5,4-4.7,4.1-18.6,4.1h-14L1017.2,280.5z"/>
		<path id="path2350" fill="#F2F2ED" d="M880.4,246c-24.2-7.5-26-8.5-36.9-18.3c-5.4-4.9-11-8.9-12.3-8.9c-1.4,0-5.5-3.2-9.3-7.3
			l-6.7-7.3l2.2-3.5c8.1-12.5,16.3-22.4,18.6-22.4c1.4,0,4.8,1.2,7.6,2.6c2.8,1.4,5.8,2.3,6.7,2c0.9-0.4,3.3-3.6,5.4-7.3
			c3.4-6.1,4-6.5,7.1-5.5c1.9,0.6,9.4,0.9,16.8,0.7c12.9-0.3,13.8-0.5,23.2-5.6c5.4-2.9,10.8-6.1,11.9-7.1c1.1-1,3.2-1.8,4.7-1.8
			c1.4,0,4-1,5.7-2.4c7.8-5.9,12.7-8,16.1-6.7c1.8,0.7,4.8,1.3,6.7,1.3h3.5v14.8v14.8l-20.5,0.6c-18,0.6-20.7,0.9-22.3,3.1
			c-1.1,1.5-1.4,3.9-0.9,6.2c0.7,3.3,0.6,3.6-1.8,2.8c-1.4-0.5-3.8-0.2-5.2,0.6c-2.5,1.3-2.5,2.4-2,20.6c1.3,38,1.3,39.4-0.1,39.2
			C897.7,251.3,889.6,248.9,880.4,246z"/>
		<path id="path2348" fill="#F2F2ED" d="M989.4,205.1c-4.8-3.3-14.1-9.9-20.6-14.6l-11.8-8.5v-15.3c0-8.5,0.5-15.3,1.1-15.3
			s2.8,0.9,5,2c3.6,1.8,4.6,1.7,12.1-0.6c5.3-1.7,11.2-4.9,16.5-9.1c4.6-3.6,9-6.6,10-6.6c0.9,0,1.7-0.6,1.7-1.3
			c0-1.8,9-7.7,14.1-9.1c3.2-0.9,5.2-0.7,8.1,0.8c3.2,1.7,6.3,1.9,16.3,1.2c10.9-0.8,13-1.3,17.9-4.8c3.1-2.1,8.9-4.7,12.9-5.7
			c6.3-1.5,8.3-1.4,14.7,0.3c6.7,1.9,7.4,2.5,8,6.1c0.9,5.7,3.5,79.3,2.8,79.9c-0.3,0.3-19.5,1.7-42.9,3s-45.7,2.8-49.8,3.1
			C998.4,211.2,997.8,210.9,989.4,205.1z"/>
		<path id="path2296" fill="#F2F2ED" d="M811.2,193.8c-2.8-1.7-5.7-4.2-6.5-5.7c-0.8-1.4-3.9-4.7-6.9-7.4c-3-2.6-5.5-5.5-5.5-6.4
			c0-0.9-1.4-4.5-3.2-8.1c-1.7-3.6-3.2-6.9-3.2-7.4c0-0.6,5.4-9.1,12-19c6.6-9.9,12.4-18.7,12.8-19.9c0.6-1.4,1-1.5,1.8-0.4
			c0.6,0.9,2.7,2.1,4.6,2.9c2.2,0.9,3.5,2.3,3.5,4c0,2.5,4.7,9.7,12.4,19.5c2,2.5,7.6,7.7,12.7,11.6c5,4,9.6,7.7,10.2,8.2
			c1,0.9-4.9,12.9-6.4,12.9c-0.4,0-2.9-1.3-5.6-2.9c-4-2.4-5.7-2.7-8.6-1.6c-2,0.7-4.2,2.5-5,3.9c-0.7,1.4-3.2,4.6-5.5,7
			c-2.3,2.5-4.8,6.1-5.6,8.1C817.6,197.7,817.7,197.7,811.2,193.8z"/>
		<g id="g3269" transform="matrix(1.629403,0,0,1.648008,-593.1177,-188.7118)">
			<path id="path2352" sodipodi:nodetypes="cccssssssssssssssssssssssssc" fill="#F2F2ED" d="M1060,261.9l-17.6-10v-3.2
				c0-3.6-2.4-59.3-2.6-61.7c-0.2-1.3,0.9-1.8,6.4-3.2c3.6-0.9,7.3-2.4,8.1-3.2c0.9-0.8,3.5-1.7,5.7-2.1c7.7-1.1,11.2-2,14.8-3.7
				c5.2-2.5,9.3-6.1,9.9-8.9c0.4-1.7,1.3-2.7,3.4-3.6c2.7-1.1,3.2-1.1,6.9,0.3c2.2,0.9,5.1,1.8,6.5,2.1c2.1,0.4,2.5,0.9,2.5,2.5
				c0,1.1-0.6,3.2-1.5,4.5c-1.5,2.5-2.9,9-2.5,11.9c0.1,0.9,0.7,2,1.4,2.5c0.9,0.7,1,1.4,0.5,3.2c-0.5,1.5-0.5,4,0.2,7.8
				c0.9,5.9,0.3,8.4-0.9,10.1c-0.6,0.9-0.6,1.9-0.6,2.4c0,0.6-1.9,0.7-2.7,1.7c-1.6,1.8-3.3,13.8-3.6,25.2c-0.1,5.5-0.3,6.3-2.3,8.4
				c-1.3,1.3-2.1,3.2-2.1,4.4c0,1.4-1.1,3.3-3,5.5c-2.3,2.5-3.6,5.1-5.1,10.3c-1.2,3.8-2.5,6.9-3.1,6.9
				C1078,271.9,1069.6,267.4,1060,261.9z"/>
			<path id="path2382" sodipodi:nodetypes="cccc" fill="#F2F2ED" d="M1107,207.8c0.9-0.3,2.5-0.2,4.1,1.1c0.6,0.5-1.1,1-2.3,0.6
				C1107.6,209.2,1106.4,208.2,1107,207.8z"/>
		</g>
		<path id="path2144" fill="#F2F2ED" d="M1050.5,296.4l-13.7,13.5c-6.4,6.8-21.6,23.3-35.7,38.4l-27.4,29.3l16.5-0.9
			c12.7,0,18.6,0.5,20.2,1.7c1.4,1.1,2.6,4.3,3.2,8.8l0.9,7.1l6.2,0.7c2.3,0.2,4.4,0.8,5.9,1.5l30.7-32.4h53.1
			c1.7-9.3,7.3-21.4,16.8-36.5c4.3-6.6,7.8-12.5,7.8-13.1s-6.8-4.2-15.2-7.9l-15.2-6.7l-29-1.4L1050.5,296.4z"/>
		
			<path id="path2146" sodipodi:nodetypes="ccc" fill="none" stroke="#DCDCD9" stroke-width="3" stroke-linecap="round" stroke-dasharray="3,6" d="
			M1025.5,396.8l31.3-33.2l54,0.9"/>
	</g>
</g>
</svg>
