<?xml version="1.0" encoding="utf-8"?>
<!-- Generator: Adobe Illustrator 18.0.0, SVG Export Plug-In . SVG Version: 6.00 Build 0)  -->
<!DOCTYPE svg PUBLIC "-//W3C//DTD SVG 1.1//EN" "http://www.w3.org/Graphics/SVG/1.1/DTD/svg11.dtd">
<svg version="1.1"
	 id="svg2241" inkscape:output_extension="org.inkscape.output.svg.inkscape" sodipodi:docname="Somalia regions map Bakool.svg" sodipodi:docbase="L:\Regionen in Somalia" inkscape:version="0.45" sodipodi:version="0.32" sodipodi:modified="true" xmlns:dc="http://purl.org/dc/elements/1.1/" xmlns:cc="http://web.resource.org/cc/" xmlns:rdf="http://www.w3.org/1999/02/22-rdf-syntax-ns#" xmlns:svg="http://www.w3.org/2000/svg" xmlns:sodipodi="http://sodipodi.sourceforge.net/DTD/sodipodi-0.dtd" xmlns:inkscape="http://www.inkscape.org/namespaces/inkscape"
	 xmlns="http://www.w3.org/2000/svg" xmlns:xlink="http://www.w3.org/1999/xlink" x="0px" y="0px" viewBox="-939 -390.1 848 1199"
	 enable-background="new -939 -390.1 848 1199" xml:space="preserve">
<g>
	<polygon opacity="0.25" fill="none" stroke="#6E6E6E" stroke-width="5" stroke-linejoin="round" stroke-miterlimit="10" points="
		-546.8,448.8 -546.8,448.8 -548.5,450 -549.6,451 -550.5,451 -553.7,453.4 -555.5,454.4 -556.6,455.3 -557.5,456 -558.4,456.3 
		-559.1,456.6 -560,457.5 -562.4,459.4 -563.8,459.8 -565,460.4 -565.8,460.7 -567,462 -567.9,462.5 -569,462.8 -569.8,462.8 
		-571.9,464.4 -569.3,460.7 -569,460.4 -569,459.8 -568.7,459.8 -568.7,459.4 -568.1,459.4 -568.1,458.8 -567.9,458.8 -567.9,458.5 
		-567.9,458.2 -567.3,458.2 -567.3,457.5 -567,457.5 -567,457.2 -566.7,457.2 -566.7,456.6 -566.7,456.3 -566.1,456.3 -566.1,456 
		-565.8,456 -565.8,455.3 -565.3,455.3 -565.3,455 -565.3,454.4 -565,454.4 -565,454.1 -564.4,454.1 -564.4,453.4 -564.1,453.4 
		-564.1,453.1 -562.9,451.3 -560,450.3 -558.1,450 -548.8,449.1 	"/>
	<polygon opacity="0.25" fill="none" stroke="#6E6E6E" stroke-width="5" stroke-linejoin="round" stroke-miterlimit="10" points="
		-640.5,340.4 -638.7,343.2 -638.7,347.6 -638.7,347.9 -638.7,348.6 -638.7,348.9 -638.7,349.5 -638.7,349.8 -638.7,350.4 
		-638.7,350.7 -638.7,351 -638.7,351.6 -638.7,352 -638.7,352.6 -638.7,357 -641.4,361 -637.5,363.3 -631.8,366.7 -627.7,366.7 
		-617.9,366.4 -614.7,367.7 -613.9,372.7 -613.9,373 -613.9,373.3 -613.9,373.9 -612.1,382.7 -613.3,387.7 -613.3,388 -613.3,388.6 
		-613.3,388.9 -613.3,389.6 -613.9,389.6 -613.9,389.9 -613.9,390.2 -613.9,390.8 -613.9,391.2 -614.2,391.8 -614.2,392.1 
		-614.2,392.7 -614.2,393.1 -614.2,393.4 -614.7,394 -614.7,394.3 -614.7,395 -614.7,395.3 -614.7,395.9 -614.9,395.9 -614.9,396.2 
		-614.9,396.6 -615.8,401.2 -614.7,406 -614.9,410.9 -614.9,411.2 -616.7,421.3 -617,426.6 -616.7,431 -616.7,431.3 -616.7,432 
		-616.7,432.3 -616.7,432.9 -616.7,433.2 -616.7,433.5 -616.1,434.1 -616.1,434.4 -616.1,435 -616.1,435.3 -616.1,436 -616.1,436.3 
		-616.1,436.6 -616.1,437.2 -616.1,437.5 -615.8,438.2 -615.8,438.5 -615.8,438.8 -615.8,439.4 -615.8,439.8 -615.8,440.4 
		-615.8,440.7 -615.8,441.3 -615.2,445.1 -614.9,446 -628.6,452.9 -667.7,471.4 -669.4,472 -689.9,480.8 -690.2,481.4 -708.7,491.1 
		-709.3,491.4 -732.8,504 -734.3,502.1 -738,499.6 -741.5,495.9 -741.8,495.9 -741.8,495.6 -742.1,495.6 -742.1,495.2 -742.7,495.2 
		-742.7,494.6 -743,494.6 -743,494.3 -743.5,494.3 -743.5,493.7 -743.8,493.7 -744.1,493.3 -744.7,493 -745,492.4 -745.5,492.1 
		-745.8,491.4 -746.4,491.1 -746.7,490.5 -747,490.5 -747,490.2 -747.5,490 -747.8,490 -747.8,489.3 -748.4,489.3 -748.4,489 
		-748.7,489 -748.7,488.4 -749.3,488.4 -749.3,488 -749.6,488 -749.6,487.4 -749.9,487.4 -749.9,487.1 -750.5,487.1 -750.5,486.8 
		-750.8,486.8 -751.4,486.1 -751.4,485.8 -751.7,485.8 -751.7,485.2 -752.2,485.2 -752.2,484.9 -752.5,484.9 -752.5,484.6 
		-752.8,484.6 -752.8,483.9 -753.4,483.9 -753.7,483.6 -754.3,483 -754.6,483 -754.6,482.7 -754.8,482.7 -754.8,482 -755.3,482 
		-755.3,481.7 -755.6,481.7 -755.6,481.4 -756.2,481.4 -756.2,480.8 -756.5,480.8 -756.5,480.6 -757.1,480.6 -757.1,479.9 
		-757.4,479.9 -757.4,479.6 -757.7,479.6 -757.7,479 -758.3,479 -758.3,478.7 -758.6,478.7 -759.1,478.3 -759.1,477.7 -759.4,477.7 
		-759.4,477.4 -760,477.4 -760,476.7 -760.3,476.7 -760.6,476.4 -761.2,476.1 -761.5,475.5 -764.9,472 -769,469.9 -769,469.3 
		-769.3,469.3 -773.3,466.7 -765.5,419.4 -765.2,417.2 -763.5,406.5 -763.5,406 -759.4,381.4 -753.7,381.8 -736,383.7 -724.2,382.4 
		-724.2,380.5 -724.2,369.5 -724.2,367.4 -723,335.7 -702.1,343.2 -690.2,340.4 -683.3,331.9 -678.4,322.2 -675.5,319.4 
		-675.2,319.4 -669.4,316.9 -664.5,316.9 -648.3,322.2 	"/>
	
		<path opacity="0.25" fill="none" stroke="#FFC000" stroke-width="5" stroke-linejoin="round" stroke-miterlimit="10" stroke-dasharray="0.56,0.42,0.14,0.42" d="
		M-549.8,450.6"/>
	<polygon opacity="0.25" fill="none" stroke="#6E6E6E" stroke-width="5" stroke-linejoin="round" stroke-miterlimit="8" points="
		-529.1,-209 -529.1,-209 -528.2,-209 -527.6,-208.3 -527.3,-208.3 -527.6,-209 -528.5,-209.3 -529.1,-209.5 -529.1,-210.1 
		-528.2,-210.1 -525.5,-209 -522.3,-207.1 -521.2,-205.8 -519.8,-205.8 -517.7,-205.8 -516.9,-205.2 -518.6,-152.5 -526.1,-154 
		-526.4,-154 -582.3,-159.4 -596.7,-141.8 -598.8,-139.6 -601.7,-135.5 -611.2,-93.9 -611.2,-52.7 -618.7,-55.3 -620.8,-56.2 
		-623.1,-57.2 -623.7,-57.2 -624.8,-57.8 -627.1,-58.4 -628.9,-59.1 -633.5,-60.9 -635.5,-61.5 -637.5,-62.1 -640.8,-63.4 
		-642.2,-63.7 -643.3,-64.3 -644.2,-64.3 -647.4,-65.6 -652.8,-67.5 -657.2,-69.4 -657.8,-69.4 -659.9,-70 -660.8,-70.9 -661,-70.9 
		-667.1,-77.9 -668,-79.1 -668.8,-80 -673.4,-84.8 -674.3,-85.7 -676.3,-87.9 -676.6,-88.5 -680.6,-92.9 -683.3,-96.1 -683.6,-96.1 
		-684.1,-97 -685,-97.3 -687.6,-97.3 -688.2,-97.3 -688.5,-97.9 -690.5,-98.5 -691.3,-98.5 -692.8,-99.1 -694,-99.4 -695.7,-101 
		-696,-101 -697.2,-102.3 -698.9,-103.9 -700,-106.4 -700.9,-108.6 -701.2,-109.5 -701.2,-110.8 -701.8,-111.7 -702.1,-112.4 
		-703.8,-113.3 -704.1,-114.3 -705,-114.9 -706.2,-115.5 -706.2,-116.1 -707.6,-116.4 -708.7,-116.4 -709,-117 -709.9,-120.2 
		-709.9,-120.5 -708.4,-122.7 -704.1,-131.2 -693.1,-145.6 -679.6,-166.6 -676.6,-169.1 -672.5,-168.8 -657.2,-159.4 -649.4,-171 
		-643.3,-182.6 -641.6,-181.1 -639.6,-179.5 -637.5,-178.2 -634.9,-177.3 -634.3,-177.3 -630.9,-176.3 -628.6,-176.6 -625.9,-176.6 
		-624,-176.3 -623.1,-175.7 -622,-175.7 -621.1,-175.4 -620.2,-175.4 -618.1,-175.4 -617.3,-175.4 -616.4,-175.4 -616.1,-175.7 
		-614.9,-175.7 -614.2,-176.6 -613.9,-177.3 -610.9,-177.6 -609.5,-177.6 -609.2,-178.2 -607.1,-178.5 -606.5,-178.5 -606.2,-178.2 
		-605.4,-178.2 -605.2,-178.2 -604.3,-178.2 -603.7,-178.5 -603.1,-178.2 -602.3,-178.2 -601.7,-178.2 -600.5,-177.6 -599.3,-177.6 
		-597.9,-177.3 -595.3,-177.6 -593.6,-177.6 -592.4,-178.2 -589.8,-179.5 -589.8,-179.8 -589.5,-179.8 -589.5,-180.4 -589.5,-180.8 
		-589.8,-180.8 -590.1,-180.8 -590.7,-180.4 -590.9,-180.4 -590.7,-180.8 -589.8,-181.1 -589.5,-181.1 -588,-181.9 -586.1,-182.6 
		-585.2,-183.5 -584.6,-184.1 -584,-184.8 -583.7,-185.1 -580.8,-185.7 -579.3,-186 -578.2,-187 -576.8,-187.3 -575.1,-188.3 
		-573.3,-189.2 -572.4,-189.5 -571.5,-191 -571,-192.3 -569.5,-193.2 -568.6,-194.2 -566.7,-196.7 -566.1,-196.7 -564.3,-196.7 
		-562.3,-196.7 -561.7,-196.7 -560.8,-196.7 -560.2,-196.7 -558.6,-196.7 -557.4,-196.7 -556.8,-197.4 -556,-198.6 -555.4,-198.9 
		-553.9,-198.9 -553.6,-198.9 -553,-198.9 -553,-199.6 -552.5,-200.4 -550.7,-200.7 -549.8,-201.1 -549.5,-201.7 -549,-202.6 
		-548.7,-203 -548.2,-204.2 -547.9,-204.2 -547.9,-204.8 -546.1,-204.8 -545.2,-205.2 -543.2,-206.1 -542.3,-206.1 -541.7,-206.8 
		-540.1,-208 -539.2,-209 -536.9,-209.5 -536.3,-209.5 -535.4,-211.1 -535.1,-211.4 -535.1,-212 -534.5,-212 -533.9,-212 
		-533.3,-212 -533,-212.4 -532.5,-212.4 -532.2,-212 -530.5,-210.5 -529.6,-210.1 -529.4,-210.1 -529.4,-209.3 	"/>
	<path opacity="0.25" fill="none" stroke="#6E6E6E" stroke-width="5" stroke-linejoin="round" stroke-miterlimit="8" d="M-698.1-260
		h-0.3v-0.6l0.3-0.6h0.3L-698.1-260z M-706.8-256.5L-706.8-256.5l1.2-1.6l0.6-0.6l0.3-1.9v0.6v1.9l-0.3,0.3L-706.8-256.5z
		 M-708.4-257.8l0.6,1.3l0.9,1.3h0.3l0.6-0.3h0.3l0.3,1.3l2.6,2.9h1.8h1.2v0.3v0.6l0.3,0.3l0.9,0.6l0.6,0.3h0.3l1.2-0.3l0.9-0.6
		l0.9-0.3h0.3l-0.9,1l-0.6,0.3v1.3v0.6v0.3l0.3,1v0.3l0.3,1.6v1.6v1.9l0.6,1l1.2,2.2v1l0.6,0.3l0.3,0.6h0.3h0.6l-0.9-0.6l-0.3-0.3
		h0.3l1.8,0.3l0.3,0.6v0.3l0.6,1.9l0.6,1.6l0.6,1l1.2,2.2l1.2,1.9l0.9,1l1.2,3.2l0.9,1.3l1.5,1.9l0.3,1l0.9,1l0.3,0.3l2.1,2.5
		l2.9,3.2l1.5,1.9l3.5,4.1l1.5,1.3l4.9,4.4l1.5,1.9l0.6,0.3l1.8,0.6l1.2,1l3.2,3.2l0.9,0.3l0.3,0.6l0.9,0.6l0.6,1l1.2,1l0.9,1
		l0.9,0.3h0.9l0.3,0.6h0.9l2.3,2.2l1.5,1l0.3,0.3l0.9,1l1.2,1.3l-6,11.6l-7.8,11.6l-15.3-9.4l-4.1-0.3l-2.9,2.5l-13.7,21l-11,14.4
		l-4.4,8.5l-1.5,2.2v0.3l-0.6-2.5l-0.9-5.9v-1.6l-0.3-1.9l-0.9-2.2l-4.9-3.2l-1.2-0.6h-0.6l-0.6-0.6h-0.6v0.3l-0.3,0.3h-0.6h-1.2
		l-0.9-0.3l-0.9-1h-0.3l-0.3-2.2l-0.9-1.9l-0.6-0.3l-0.9-2.9l-1.2-3.8l-0.9-2.2l-0.9-1l-0.3-0.6l-0.9-0.3l-0.9-1l-2.3-2.8l-4.7-3.8
		l-0.9-1.6l-0.9-0.6v-0.6l-1.5-2.5l-1.2-3.2l-0.9-2.9v-0.3l-0.9-3.8l-2-3.8l-0.6-1.6l-0.9-3.2l-0.3-0.3l-0.3-0.6l-1.5-0.3l-0.9-0.3
		l-0.3-0.6v-1l-0.3-1.3l-0.9-1.3v-1.3l0.3-0.6l0.6-1l0.6-1l1.5-0.6l1.2-2.5l2-2.9l1.2-2.5l0.9-1.3l0.9-1l2-3.5l1.2-1l0.6-1.3
		l0.3-0.6l0.6-0.6l0.9-1l1.5-2.2l1.8-2.9l2.1-2.5l0.3-1l2.3-4.1l18.5-31.7l0.3-0.3h0.3h1.5h0.3v0.3h0.6h0.3v-0.3l-0.3-1h-0.6
		l-0.9-0.6l0.6-0.3l0.9,0.3l0.3,0.6l0.3,1l0,0H-708.4z M-697.2-255.3l-1.2,0.6v-0.6v-0.3l0.3-1h0.3h0.6l0.3,0.6l-0.3,0.3
		L-697.2-255.3L-697.2-255.3z"/>
	<polygon opacity="0.25" fill="none" stroke="#6E6E6E" stroke-width="5" stroke-linejoin="round" stroke-miterlimit="8" points="
		-607.7,305.1 -604.3,321.2 -606.3,333.1 -606,343.4 -605.7,366.4 -614.5,367.7 -617.6,366.4 -627.5,366.7 -631.5,366.7 
		-637.3,363.2 -641.1,361 -638.5,357 -638.5,352.5 -638.5,351.9 -638.5,351.6 -638.5,350.9 -638.5,350.6 -638.5,350.3 -638.5,349.8 
		-638.5,349.5 -638.5,348.8 -638.5,348.5 -638.5,347.9 -638.5,347.5 -638.5,343.1 -640.2,340.4 -648,322.2 -664.2,316.8 
		-669.2,316.8 -674.9,319.3 -675.2,319.3 -678.1,322.2 -683,331.8 -689.9,340.4 -701.8,343.1 -722.7,335.6 -721,322.2 -723.9,315.8 
		-724.8,314.5 -738.6,288.2 -738.9,287.3 -738.3,286.3 -736,284.2 -735.5,282.9 -734.6,281.6 -733.4,279.7 -732.6,278.5 
		-731.7,277.5 -731.1,275.9 -730.8,275.4 -730.5,274.8 -730.5,274.4 -729.9,273.8 -729.6,270.6 -729.6,270.3 -729.1,270 
		-729.1,269.4 -728.8,268.4 -728.2,267.5 -727.9,266.8 -725.4,264.4 -722.1,262.2 -718.9,260.6 -714.3,257.4 -708.2,254.4 
		-701.3,250.2 -700.4,249.9 -697.9,249 -692.9,247.2 -684.8,244.6 -673.5,241.4 -659.9,237.4 -659.6,237.4 -658.5,237.4 
		-643.3,238.3 -618.8,239.5 -618.5,244 -613,277.8 -612.7,279.1 -607.7,304.5 	"/>
	<polygon opacity="0.25" fill="none" stroke="#6E6E6E" stroke-width="5" stroke-linejoin="round" stroke-miterlimit="8" points="
		-182,-297.7 -181.4,-297 -180.2,-296.1 -179.4,-295.1 -178.2,-294.8 -177.6,-294.5 -175.4,-293.8 -174.5,-293.8 -173.3,-293.5 
		-170.7,-292.7 -169.5,-292.4 -167.5,-291.4 -166.4,-290.5 -163.8,-289.2 -162.9,-289.2 -161.7,-289.2 -161.4,-289.2 -160.5,-289.2 
		-159.7,-289.2 -157.7,-289.2 -156.3,-288.3 -156,-287.6 -154.8,-287.3 -152.8,-286.7 -151.3,-286.4 -150.1,-286.4 -149.2,-286.7 
		-148.4,-286.7 -147.9,-286.4 -147.9,-286 -147.3,-285.4 -147.9,-284.4 -148.4,-283 -149,-281.4 -149.2,-280.7 -149.8,-280.1 
		-149.2,-278.8 -149.8,-278.2 -150.1,-277.6 -150.7,-276.9 -149.8,-275.7 -149.8,-274.7 -149.8,-273.9 -150.1,-273.9 -150.7,-272.3 
		-151.3,-271.6 -151.9,-271.6 -152.2,-270.4 -152.8,-269.8 -153,-269.4 -154.2,-267.2 -155.7,-266.3 -156,-265.4 -156.9,-264.5 
		-157.2,-263.2 -158.8,-261 -159.1,-260 -159.1,-259.7 -158.8,-259.1 -158.8,-258.1 -158.8,-257.5 -159.1,-255.4 -159.7,-253.5 
		-159.7,-252.8 -160,-252.5 -161.4,-249 -161.7,-248.4 -162,-246.6 -162,-245 -162,-244.1 -162,-243.7 -162.6,-242.8 -162,-239 
		-162,-238.7 -161.7,-236.9 -160.8,-235.6 -160.5,-235.3 -160,-234.6 -159.7,-234.6 -157.9,-234.3 -157.2,-234.3 -156.3,-233.7 
		-155.7,-233.7 -155.1,-233.7 -155.1,-233.4 -155.1,-232.4 -156.3,-230.5 -156.3,-229.6 -158.5,-225.2 -158.8,-223.6 -158.8,-223 
		-159.7,-218 -159.1,-214.5 -159.1,-214.2 -158.8,-213.3 -158.8,-208.3 -158.5,-204.2 -158.5,-203.9 -158.8,-201 -158.5,-197.6 
		-158.5,-197.3 -157.7,-197.3 -157.7,-196.7 -157.2,-195.4 -157.2,-193.2 -156,-190.5 -156,-190.1 -156,-189.5 -156.3,-189.2 
		-157.2,-189.2 -158.8,-189.2 -159.1,-188.9 -159.7,-188.9 -160,-188.2 -160.5,-187.9 -160,-187.3 -160,-187 -160.5,-187 -160,-186 
		-160.5,-186 -160,-185.7 -160,-184.7 -160,-183.8 -160.5,-182.8 -161.4,-181.9 -161.7,-181.6 -163.8,-181 -164.9,-181 
		-165.5,-180.7 -165.8,-180.4 -165.5,-179.8 -165.5,-179.4 -165.5,-178.5 -165.5,-178.2 -166.4,-178.5 -166.7,-178.5 -166.4,-178.2 
		-166.4,-177.5 -166.4,-177.2 -165.5,-177.5 -164.9,-177.2 -164.6,-177.2 -164.1,-177.5 -163.8,-178.2 -163.5,-178.5 -161.7,-178.5 
		-161.4,-178.5 -159.1,-178.8 -157.9,-178.8 -154.8,-179.4 -152.2,-179.4 -151.3,-179.4 -151,-179.4 -151.3,-179.8 -151.3,-180.4 
		-151.9,-180.7 -152.2,-180.7 -152.8,-181.6 -153.9,-182.5 -153.9,-182.8 -154.2,-183.5 -153.9,-184.1 -153.6,-184.7 -153.6,-185.1 
		-153.9,-186 -153.9,-186.6 -154.8,-187.9 -155.1,-188.9 -155.1,-189.2 -154.8,-188.9 -154.2,-187.3 -153.6,-187 -152.2,-186 
		-151.9,-185.7 -151,-185.1 -150.1,-184.7 -149.2,-184.1 -148.4,-183.8 -147.3,-182.8 -146.4,-182.5 -146.1,-182.5 -145.3,-181.9 
		-144.4,-181.9 -143.5,-182.5 -142.9,-182.8 -142,-182.8 -141.2,-182.8 -140.3,-182.5 -140,-181.6 -139.4,-180.7 -138.6,-180.4 
		-138.6,-179.8 -139.1,-178.8 -139.4,-178.2 -139.4,-177.5 -140,-177.5 -140,-176.3 -140.3,-176.3 -140.6,-175.7 -141.2,-175.3 
		-141.4,-175.3 -141.4,-175 -141.2,-174.1 -141.4,-174.1 -142.3,-174.4 -142.9,-174.4 -143.2,-174.4 -143.5,-175 -144.1,-175 
		-144.4,-175 -145.3,-175 -146.4,-175 -147.3,-174.4 -147.9,-174.4 -148.2,-175 -149,-175 -149,-175.3 -149,-175.7 -149,-177.2 
		-149,-177.5 -149.2,-178.2 -150.7,-178.5 -151.3,-178.5 -152.8,-178.5 -155.1,-178.2 -156.3,-178.2 -160,-177.2 -160.5,-177.2 
		-161.7,-177.2 -162.9,-176.6 -164.1,-176.6 -166.7,-175.3 -168.6,-174.1 -169.5,-173.4 -171.3,-172.2 -171.9,-171.9 -174.8,-170 
		-174.8,-169.4 -174.8,-166.9 -175.4,-165.9 -174.8,-163.4 -174.5,-160.9 -174.5,-160.3 -174.8,-157.5 -175.4,-156.5 -175.4,-155.6 
		-175.7,-154.3 -176.2,-153.4 -175.7,-152.2 -175.7,-150.3 -174.8,-148.1 -174.8,-147.7 -174.8,-147.1 -174.8,-146.5 -174.8,-145.8 
		-175.4,-144.9 -175.7,-143.7 -176.2,-140.5 -176.2,-140.2 -176.4,-138.7 -177,-138 -177,-137.1 -177,-136.4 -178.2,-135.5 
		-178.2,-135.2 -178.5,-130.8 -179.4,-127 -179.4,-126.4 -179.4,-124.9 -180,-123.6 -179.4,-122.7 -180,-121.7 -180.2,-121.1 
		-180.2,-120.2 -180.5,-118.6 -181.1,-117.3 -181.4,-116.1 -182,-114.2 -182,-113 -181.4,-112 -181.4,-111 -181.4,-110.1 
		-181.4,-109.5 -181.4,-108.5 -181.1,-107.6 -180.5,-107.6 -180.2,-106.9 -180,-106.7 -179.1,-106.7 -178.5,-106.4 -178.5,-105.8 
		-178.5,-104.8 -180,-102.6 -180,-101.6 -181.1,-99.4 -181.1,-99.1 -182.3,-97.3 -183.4,-95.4 -184.3,-94.1 -185.5,-92.2 
		-186,-91.9 -186.9,-91.9 -187.2,-91.6 -188.3,-90.6 -189.8,-88.4 -190.4,-87.6 -191,-87.6 -191.3,-86.6 -191.8,-85.7 -192.1,-84.7 
		-192.7,-83.5 -192.7,-82.2 -192.7,-81.2 -192.1,-80.3 -192.1,-79 -192.1,-78.5 -192.7,-77.2 -193,-75.9 -194.2,-74 -195.5,-73.1 
		-196.7,-72.5 -197.6,-70.6 -198.5,-69.6 -199.6,-69.4 -202.6,-66.2 -203.4,-65.6 -204.8,-64.3 -205.4,-63.4 -206.2,-62.4 
		-206.5,-62.4 -206.5,-62.1 -206.8,-62.1 -206.8,-61.5 -206.8,-61.2 -207.7,-60 -208.3,-59.3 -208.6,-59 -208.9,-58.4 -208.9,-57.8 
		-209.5,-56.8 -209.5,-53.6 -209.5,-53 -209.8,-52.4 -210.6,-50.8 -211.2,-47.7 -211.2,-46.8 -211.5,-46.5 -211.8,-46.1 
		-212.7,-45.5 -213.3,-45.2 -214,-43.3 -214.6,-42 -215.2,-39.9 -214.6,-38.3 -214.3,-38 -214.3,-37.7 -214.3,-36.1 -214.6,-36.1 
		-214.6,-35.8 -215.2,-34.8 -216.4,-32.6 -217.3,-31.4 -218.1,-30.8 -218.4,-29.8 -219,-29.8 -220.5,-28.3 -221.1,-27.6 
		-221.4,-26.7 -222,-26.4 -222.2,-24.5 -222.5,-24.5 -222.5,-24.1 -223,-23.8 -223.3,-23.2 -223.9,-23.2 -224.2,-22.3 -224.8,-22 
		-225.1,-20.8 -225.1,-19.8 -225.1,-19.2 -225.4,-18.9 -225.4,-19.2 -234.6,-27.6 -242.7,-29.2 -245.6,-24.5 -248.8,-19.2 
		-251.1,-26.4 -251.4,-26.7 -251.4,-27.6 -251.4,-28.3 -251.7,-28.3 -251.7,-28.6 -251.7,-29.2 -251.7,-29.5 -252.2,-29.8 
		-253.4,-34.5 -260.3,-38.3 -264.4,-38.3 -265,-38.3 -265.3,-38.3 -265.9,-38.3 -266.2,-38.3 -266.8,-38.3 -267.1,-38.3 
		-267.4,-38.3 -267.9,-38.3 -268.2,-38.3 -268.8,-38.3 -269.1,-38.3 -269.7,-38.3 -269.7,-38.9 -269.9,-38.9 -270.2,-38.9 
		-270.8,-38.9 -271,-38.9 -271.6,-38.9 -271.9,-38.9 -272.5,-38.9 -276.6,-38.9 -279.7,-41.2 -280.3,-41.5 -280.6,-41.5 -280.6,-42 
		-280.9,-42 -281.5,-42.3 -281.8,-42.3 -282.4,-43 -282.6,-43 -282.6,-43.3 -282.9,-43.3 -283.5,-43.9 -283.8,-43.9 -283.8,-44.2 
		-284.4,-44.2 -287.3,-46.1 -287.6,-46.5 -291.6,-49.6 -295.4,-52.7 -300.3,-62.4 -301.2,-67.8 -302.3,-80.9 -304.1,-113.9 
		-305.3,-173.1 -305.8,-189.5 -306.1,-205.8 -308.1,-214.5 -311.6,-230.5 -313.9,-240.9 -313.6,-240.6 -311.6,-240.9 -309.6,-241.2 
		-307.2,-241.8 -306.1,-241.8 -306.1,-242.2 -304.4,-242.8 -302.3,-243.1 -300.3,-243.7 -298.3,-243.7 -297.5,-244.1 -296.3,-244.4 
		-295.4,-244.4 -294.5,-244.4 -293.1,-245 -291.3,-245.3 -289.3,-246.3 -288.4,-246.6 -288.2,-247.1 -287.6,-248.1 -287.3,-248.1 
		-286.5,-248.1 -285.9,-247.4 -285.6,-247.4 -284.7,-247.4 -280.9,-247.4 -278.7,-248.1 -277.8,-248.4 -276.9,-249 -276.9,-249.3 
		-275.7,-249.7 -275.2,-250.3 -274.9,-251.2 -273.1,-251.2 -272.5,-251.5 -271,-253.5 -269.9,-256 -269.7,-256.5 -269.1,-256.5 
		-267.9,-256.8 -267.4,-256.8 -266.8,-256.8 -265.9,-256.8 -264.1,-256.8 -263.3,-257.5 -262.1,-257.5 -261.2,-257.8 -260.3,-258.1 
		-259.6,-258.7 -259,-258.7 -257.2,-257.8 -256.1,-257.5 -254.6,-257.5 -252.2,-257.5 -251.7,-257.5 -250.3,-257.5 -248.8,-257.8 
		-247.7,-258.1 -244.8,-259.7 -244.8,-260 -243.9,-260.7 -243.6,-260.7 -243.3,-260 -242.7,-259.7 -242.4,-259.1 -241.8,-259.7 
		-242.4,-259.7 -243.3,-260.7 -243.3,-261 -242.7,-261.3 -242.4,-261.3 -241,-261.3 -240.5,-261 -239.6,-261 -238.1,-261 
		-237.8,-261 -237.5,-261 -235.8,-260.7 -233.2,-261 -232.6,-261 -231.8,-261.3 -230.9,-262.2 -230,-262.9 -229.7,-262.9 
		-229.2,-263.8 -228.3,-263.8 -227.4,-264.1 -227.1,-264.5 -226.2,-265.1 -225.1,-265.1 -224.2,-265.4 -223,-265.4 -222.5,-265.4 
		-222,-266.3 -221.4,-266.3 -219.6,-266.6 -219,-267.2 -218.4,-267.5 -218.1,-268.2 -217.6,-268.5 -217.6,-269.1 -217,-269.4 
		-215.5,-269.8 -214,-270.4 -213.3,-271.3 -212.7,-271.3 -211.5,-272.3 -210.6,-272.6 -208.6,-272.9 -207.7,-273.5 -207.4,-273.9 
		-206.2,-275.3 -204.8,-276.6 -204,-277.6 -203.4,-278.2 -202,-281.1 -201.1,-282.3 -200.8,-283 -200.8,-283.3 -200.5,-284.1 
		-199.9,-285.4 -199.9,-286 -199.6,-287.3 -199,-288.3 -198.5,-289.5 -198.5,-289.8 -199,-289.2 -199.9,-287.3 -200.5,-286.4 
		-200.5,-285.4 -200.8,-283.3 -201.1,-283.3 -199.9,-288.3 -199,-289.5 -199,-289.8 -198.8,-290.5 -197,-292.4 -196.7,-292.4 
		-195.5,-293 -194.2,-293 -193.9,-293.5 -193.9,-293.8 -193.3,-294.5 -193,-294.5 -192.1,-293.8 -190.4,-293.5 -188.3,-294.5 
		-186.9,-295.1 -186.3,-295.1 -185.2,-295.8 -184,-296.1 -183.4,-296.7 -182.6,-296.7 -182.3,-297 -183.2,-297 -183.4,-297 
		-184,-296.7 -184.3,-296.7 -184,-297.7 -183.4,-297.7 -182.3,-297.7 	"/>
	<polygon opacity="0.25" fill="none" stroke="#6E6E6E" stroke-width="5" stroke-linejoin="round" stroke-miterlimit="8" points="
		-407,219.9 -414.2,273.3 -408.5,276.1 -390.8,285.2 -391.6,286.1 -392.2,286.4 -393.6,289.3 -395.4,291.5 -397.1,293.7 
		-397.4,294.1 -399.5,295.9 -401.1,297.7 -401.1,298.1 -402,299.3 -403.2,300.3 -403.2,300.9 -403.5,301.2 -405.5,303.5 -409,307.5 
		-409.3,308.4 -411.9,311 -415.7,315.6 -419.7,321 -421.7,322.5 -422.9,324.1 -427.9,328.8 -428.6,329.8 -429.5,330.4 -431.3,332.5 
		-432.4,333.8 -434.5,335.7 -434.5,336 -435.4,337 -435.7,337.9 -437.1,339.2 -437.6,340.1 -439.7,343.2 -442.3,345.7 -444.9,348.6 
		-446.1,350.4 -446.9,350.7 -447.2,350.7 -492.7,319.1 -491.9,293.4 -492.1,292.8 -509.5,278 -512.3,254.5 -505.4,238.8 -504,229 
		-503.7,228.2 -517.3,232.2 -540.4,226 -543.1,219.9 -552.6,197.4 -483.2,120.3 -482,119 -407.3,136.6 -424.9,177.3 -416.3,191.2 
		-407,219.1 	"/>
	<polygon opacity="0.25" fill="none" stroke="#6E6E6E" stroke-width="5" stroke-linejoin="round" stroke-miterlimit="8" points="
		-738.6,288.2 -724.8,314.5 -723.9,315.8 -721,322.1 -722.7,335.5 -723.9,367.3 -723.9,369.4 -723.9,380.4 -723.9,382.3 
		-735.8,383.6 -753.4,381.7 -759.2,381.3 -763.3,405.9 -763.3,406.4 -764.9,417.1 -765.2,419.3 -773.1,466.7 -826.6,467.3 
		-841.9,519 -872.1,521.6 -872.1,485.2 -872.1,467 -872.1,439.4 -872.1,400.5 -849.4,376.1 -848,374.8 -810.9,317 -807.8,311.7 
		-807.5,311.4 -806.9,310.8 -806.6,310.5 -805.2,309.2 -804.9,308.3 -804.9,307.3 -805.2,307.3 -804.9,306.4 -803.7,304.4 
		-803.1,304.4 -803.1,304.1 -802.8,303.3 -801.2,303.3 -800.9,303 -798.9,300.7 -798,298.9 -797.1,298.5 -796.2,297.6 -795.9,297 
		-795.1,297 -794.5,297 -791.3,297 -787.5,297 -783.5,296.6 -780.3,296.6 -778.9,296.6 -775.4,296 -773.1,295.7 -772,295.7 
		-769.9,295.4 -767.8,295.4 -767,294.7 -766.1,295.4 -764,295.4 -763.3,294.7 -762.4,294.7 -761.8,294.4 -760.9,294.4 -760.1,293.9 
		-759.2,293.9 -756.2,292.6 -754.3,291.3 -753.4,291.3 -752.5,290.7 -752,290.7 -751.4,290.7 -750.5,290.4 -750.2,290.4 
		-749.3,290.4 -748.5,290.4 -743.9,290.4 -743.3,290.4 -742.7,290.1 -741.5,289.1 -740.6,288.5 -739.5,287.5 -738.9,287.2 	"/>
	<polygon opacity="0.25" fill="none" stroke="#6E6E6E" stroke-width="5" stroke-linejoin="round" stroke-miterlimit="8" points="
		-540.4,225.9 -517.2,232.1 -503.6,228.1 -503.9,228.9 -505.3,238.7 -512.3,254.4 -509.4,277.9 -492.1,292.7 -491.8,293.3 
		-492.7,319 -503.9,326.2 -513.4,343.1 -515.5,346.3 -518.1,348.8 -519.3,350.9 -519.3,351.5 -519.3,351.8 -519.6,352.5 
		-519.6,352.8 -519.6,353.1 -519.6,353.8 -520.2,353.8 -520.2,354.1 -520.2,354.7 -520.2,355 -520.5,355 -520.5,355.7 -520.5,356 
		-520.5,356.3 -521,356.3 -521,356.9 -521,357.2 -522.4,363.2 -523,363.5 -524.2,367.6 -569.3,371 -571.1,371.6 -579.8,370.7 
		-585.6,367.6 -598.6,366.6 -605.8,366.3 -606.1,343.4 -606.4,333 -604.4,321.2 -607.8,305.1 -607.8,304.5 -612.8,279.1 
		-613.1,277.9 -618.6,244.1 -618.9,239.6 -591.7,240.6 -590.5,239 -585.9,234.3 -552.6,197.3 -543,219.8 	"/>
	<polygon opacity="0.25" fill="none" stroke="#6E6E6E" stroke-width="5" stroke-linejoin="round" stroke-miterlimit="8" points="
		-732.6,504 -712.6,535.7 -712,536.6 -706.9,544.1 -706.3,545.1 -694.1,563.9 -695,564.2 -696.4,565.4 -696.4,566 -696.7,566.3 
		-700.4,570.4 -702.8,572.7 -704.5,574.8 -708.5,579.8 -710.3,582.1 -712.6,584.5 -714.1,586.4 -715,587 -716.4,588.6 -717.5,590.5 
		-749.7,591.5 -750.3,590.5 -756.9,560.1 -757.5,557.9 -771.1,514.7 -778.6,515.3 -787.3,515.6 -791.7,515.6 -842,519 -826.7,467.3 
		-773.2,466.7 -769.1,469.3 -768.8,469.3 -768.8,469.9 -764.7,472 -761.3,475.5 -761,476.1 -760.4,476.4 -760.1,476.7 -759.8,476.7 
		-759.8,477.4 -759.2,477.4 -759.2,477.7 -758.9,477.7 -758.9,478.3 -758.4,478.7 -758.1,478.7 -758.1,479 -757.5,479 -757.5,479.6 
		-757.2,479.6 -757.2,479.9 -756.9,479.9 -756.9,480.6 -756.3,480.6 -756.3,480.8 -756,480.8 -756,481.4 -755.4,481.4 -755.4,481.7 
		-755.1,481.7 -755.1,482 -754.6,482 -754.6,482.7 -754.4,482.7 -754.4,483 -754.1,483 -753.5,483.6 -753.2,483.9 -752.6,483.9 
		-752.6,484.6 -752.3,484.6 -752.3,484.9 -752,484.9 -752,485.2 -751.4,485.2 -751.4,485.8 -751.1,485.8 -751.1,486.1 -750.6,486.8 
		-750.3,486.8 -750.3,487.1 -749.7,487.1 -749.7,487.4 -749.4,487.4 -749.4,488 -749.1,488 -749.1,488.4 -748.5,488.4 -748.5,489 
		-748.2,489 -748.2,489.3 -747.6,489.3 -747.6,490 -747.3,490 -746.7,490.2 -746.7,490.5 -746.5,490.5 -746.2,491.1 -745.6,491.4 
		-745.3,492.1 -744.8,492.4 -744.5,493 -743.9,493.3 -743.6,493.6 -743.3,493.6 -743.3,494.3 -742.8,494.3 -742.8,494.6 
		-742.5,494.6 -742.5,495.2 -741.9,495.2 -741.9,495.5 -741.6,495.5 -741.6,495.9 -741.3,495.9 -737.8,499.6 -734.1,502.1 	"/>
	<path opacity="0.25" fill="none" stroke="#6E6E6E" stroke-width="5" stroke-linejoin="round" stroke-miterlimit="8" d="
		M-750.3,590.6l0.6,1l32.2-1l-2.3,2.5l-0.6,1l-2.3,2.2l-1.5,2.5l-0.6,0.3l-0.6,0.3l-0.9,1.9l-2,2.2l-2.9,3.8l-1.5,1.3l-0.3,0.3
		l-5.5,6.9l-0.6,0.6l-2.6,2.9l-0.3,0.3l-0.9,1l-2.1,1.9l-1.8,1.9l-1.2,1.6l-1.5,1.6l-1.2,1.2l-0.9,0.3l-4.4,5l-1.8,1l-0.3,0.3
		l-1.5,1.3l-0.3,1l-1.2,1.9l-0.9,1.3v0.6l-0.6,0.6v0.6h-0.3v0.3h0.3v0.6h-0.3l-0.3,0.3l-0.6-0.3h-0.3l-0.9,0.3l-0.9,0.6l-1.7,2.5
		l-0.9,1l-0.3,0.3v0.6v0.3l0.3,0.6l0.6,0.3l-0.6,0.3v0.6h-0.3v0.3l-0.3-0.3l0.3-1h-0.3h-0.6l-0.3,0.3v0.6h-0.6l-0.3,1l-0.6,0.3
		l-1.2,1l-0.9,1l-0.3,1l-0.3,0.3l-0.6,1.3l-2.1,1.6l-0.3,0.9l-0.6,0.3l-0.9,1l-0.3,0.3l-0.9,1.3l-0.3,0.6v0.3v0.6h-0.6l-1.2,1.3
		l-0.3,1.3l-0.6,0.6l-1.8,1.6l-0.3,0.6v0.3v0.6v0.3h-0.9h-0.3v1l-0.9,0.3v1l-0.9,1l-0.3,0.3l-0.6,0.6l-0.9,1l-0.3,1l-1.2,1.3l-1.5,1
		h-0.3h-0.3l-0.6,0.3l-1.2,0.6h-0.6h-0.6h-1.5h-0.9l-0.3,0.6h-0.3l-0.6-0.6v-0.6l0.6-1.9l0.6-1.3v-0.3v-1l1.5-1.2v-1h-0.6v0.3h-0.3
		v1l-0.9,0.9l-0.9,1.9l-0.3,0.3h-0.6h-0.3h-0.3h-0.6h-1.2l-0.6-1l-0.3-0.3l0.9-3.2v-1l-0.6-0.6h-0.3v0.6v0.3l-0.3,3.2l-0.6,1
		l0.6,0.6l0.3,0.6l0.3,0.6h0.6h0.3l1.5-0.6h0.6h0.6v0.6v1.3v0.6v0.3l0.3,0.3l0.6,0.6h0.3l0.9-0.6l0.9-0.3v0.3l0.3,0.6v0.3l-0.9,1.9
		l-0.3,0.3v1v0.6h-0.9l-0.9,0.6l-0.3,1l-0.6,0.6l-0.3,1.6l-0.3,0.9l-0.9,1l-0.6,0.3l-1.2,1l-0.3,0.6v0.3h-0.6l-0.3-0.3v-0.6l0.3-1.3
		v-1l-0.9-0.9v-0.3l0.6-2.9v-0.3l-0.6-0.3v-0.6l-1.2-1.3l-0.9-0.6h-0.9h-0.3h-0.6v0.6l0.6,0.3h0.3l0.6-0.3h0.3l0.6,0.3l0.3,1l0.9,1
		l0.3,0.3l-0.3,1.9v1.9v0.3v0.6l0.3,0.3v1v1v1h0.9v0.3v0.3l-1.2,1.9v0.6v0.6v0.6l-0.9,1l-0.3,0.6l-1.5,2.5v0.3l-0.3,0.3l-1.2,0.9
		l-0.6,1.6l-0.3,0.6l-0.6,0.6l-0.3,0.3v0.6l0.3,0.3l1.5-1.3h0.3v0.3v0.6l-0.9,0.3v0.6l-0.9,0.3l-0.6,0.3v-0.3h0.3l-0.3-0.3l-0.6,0.3
		h-0.3l-0.6-0.3l-0.3-0.6v-0.3l-0.6-0.6v-1v0.4l-0.6-0.3h-0.9l-0.6-0.6l-0.9-0.3v-0.9l-0.3,0.3l-2.1-0.3l-1.2,1.3l-0.9,0.6l-1.2,0.6
		l-1.5,1.6l-0.3,1l-0.6,0.6l-0.3,1.6l0.9-0.9l0.3-0.9v-0.3l0.6-1l2-1.9l0.9-1l1.5-0.9h0.6l1.2,0.6l0.9,0.3l0.3,0.6l1.5,0.3v0.3v0.6
		l0.3,1.9l0.3,1.6v0.9l-0.6,0.9l-0.9,1.9l-1.5,2.5l-2.1,3.2l-1.5,1.9v0.3v0.6l-1.5,1.6l-0.6,1.9l-1.5,1.9l-0.3,1.3l-0.6,1l-2.1,3.5
		l-2.1,3.2l-0.9,1h-0.3l-0.3,0.9l-0.9,1.3l-0.6,1h0.6l0.3,0.3l-0.3,0.6l-0.6,0.3l-0.3-0.3h-0.6l-0.3,0.3l-0.3,0.9v0.3h-0.6v-4.7
		l-37.7-58.3v-48.6v-15.7v-93.1l30.1-2.5l50.4-3.5h4.4l8.7-0.3l7.5-0.6l13.7,43.2l0.6,2.2L-750.3,590.6z M-762.1,644.5l-0.9,1h-0.3
		v-0.6h0.3h0.6v-0.6h0.3l0.3-0.6v0.6L-762.1,644.5z M-777.8,664.9v0.6h-0.9h-0.3v-0.6h0.3v-0.3l-0.3-0.3h0.3l0.9-0.6l0.3-1h0.6v0.6
		v0.3l-0.9,1V664.9z M-782.4,671.8l-0.3,0.3v-0.3l0.3-1l0.6-0.6l0.9-0.3l0.3-0.3h0.3l-0.3,0.3l-0.9,0.3l-0.3,1L-782.4,671.8z
		 M-783.5,672.7h-0.3v-0.6l0.6-0.3v0.3v0.6H-783.5z M-784.7,674.9l-0.6,1h-0.3v-0.6l0.3-0.3l0.6-0.6l0.3,0.6L-784.7,674.9
		L-784.7,674.9z M-788.2,679l-0.9,0.6l-0.6,1l-0.6,0.6l-0.3,0.3h-0.6l-0.3,0.3v1l-0.3,0.6l-0.6-0.6l0.6-0.3v-0.6l0.3-0.3v-0.3
		l1.2-0.6v-0.3l0.6-1h0.6v-1h0.6l0.3-0.3l0.9-0.6l1.2-1.6l0.6,0.3l-0.6,0.3l-0.6,1l-0.9,0.6L-788.2,679z M-793.3,685v-0.3l0.3-0.3
		v0.3L-793.3,685z M-793.9,686.8l-0.3,1l-0.3-0.3v-0.6h0.3v-0.3V686h0.3v0.6V686.8z M-799.2,693.1h-0.3l-0.6-0.3h-0.3l0.3-0.6h0.6
		l0.3-0.3l0.3-1l0.6-0.6h0.3v-0.4h0.6l-0.6,0.3v0.6v0.3h-0.3v0.6l-0.6,0.3h-0.3v0.6h0.3L-799.2,693.1z M-802.3,697.5l-0.9,0.6v-0.6
		l0.9-0.3l0.3-0.6l0.3,0.6l-0.3,0.3H-802.3z M-806.7,703.8h-0.3h-0.6l0.6-0.3l0.9-0.9l0.3-0.9h0.6h0.3l-0.3,0.3v0.6l-0.9,0.9
		L-806.7,703.8z"/>
	<polygon opacity="0.25" fill="none" stroke="#6E6E6E" stroke-width="5" stroke-linejoin="round" stroke-miterlimit="8" points="
		-274.3,38.9 -263.5,51.7 -264.4,52.9 -267,57 -269.1,59.6 -269.9,61.1 -271,62.7 -272.2,64.6 -273.1,65.8 -274.8,68.7 -276,70 
		-279.1,76.2 -279.7,76.5 -281.5,78.4 -282.9,81.5 -283.8,83.7 -284.7,84.6 -285.9,86.5 -286.7,87.8 -287,88.7 -287.6,89 
		-287.9,90.6 -288.4,90.9 -289.3,92.8 -289.3,93.1 -291.3,96.6 -291.3,97.2 -291.6,97.5 -292.2,98.2 -293.4,100.6 -293.7,101.2 
		-294.5,102.5 -294.8,103.5 -294.8,104.7 -295.4,106 -296.6,110 -297.5,111 -297.6,112.9 -298.5,114.4 -299.1,115.4 -299.4,116.4 
		-300.3,118.5 -301.4,121.3 -303.2,126.9 -303.2,127.9 -303.5,128.8 -303.5,132 -304.1,133.6 -303.5,134.5 -303.5,135.5 
		-303.5,136.7 -303.5,137.3 -305.3,142 -305.6,143.9 -306.1,144.6 -307,146.1 -307.2,147 -310.1,154.5 -310.7,155.2 -311.9,157.7 
		-313,159.6 -313.3,160.9 -314.8,163.1 -315.1,163.1 -316.3,165.8 -316.8,166.8 -317.9,169 -319.1,171.2 -319.7,171.5 -321.1,175.2 
		-324.1,179.7 -324.6,180 -328.6,187.2 -329.2,187.5 -331.6,192.1 -332.7,195.3 -333.3,196.3 -334.2,196.9 -338.5,203.8 
		-339.4,205.1 -341.4,207.3 -342,207.6 -342,208.2 -342,208.5 -342.3,209.2 -344,211.3 -349.2,218.6 -349.2,218.9 -349.8,218.9 
		-352.7,223.2 -353.3,224.8 -353.3,225.1 -354.1,225.4 -354.7,226.4 -354.7,227 -357.6,230.4 -359,232.3 -359.9,234.5 -360.5,234.5 
		-361.7,236.8 -362.9,238.6 -363.9,240.8 -365.7,243.3 -367.7,247.4 -368.3,249.2 -368.9,250.5 -371.5,255.6 -371.8,255.9 
		-371.8,256.9 -372.6,258 -373.5,259.9 -375.5,263.1 -376.4,264 -376.7,265.3 -378.5,267.7 -379.3,269.6 -380.2,271.5 -381.1,272.5 
		-381.9,274.7 -383.9,277.1 -386.3,280 -388.9,282.2 -389.8,283.2 -390.9,284.8 -391.1,285.3 -408.9,276.2 -414.6,273.5 
		-407.4,220.1 -407.4,219.2 -416.7,191.3 -425.3,177.5 -407.7,136.7 -482.4,119.1 -457.1,90.9 -424.5,54.8 -410.5,39.5 -410.2,39.5 
		-344.3,50.8 -342.3,49.5 -307.2,27.9 -305.6,27.9 -296.3,28.8 -290.4,31.7 -278.6,37.9 	"/>
	<polygon opacity="0.25" fill="none" stroke="#6E6E6E" stroke-width="5" stroke-linejoin="round" stroke-miterlimit="8" points="
		-300.3,-62.4 -295.5,-52.6 -291.6,-49.6 -287.6,-46.4 -287.4,-46.1 -284.4,-44.2 -283.9,-44.2 -283.9,-43.9 -283.6,-43.9 
		-283,-43.2 -282.7,-43.2 -282.7,-42.9 -282.4,-42.9 -281.8,-42.3 -281.5,-42.3 -280.9,-42 -280.6,-42 -280.6,-41.4 -280.3,-41.4 
		-279.7,-41.1 -276.6,-38.9 -272.5,-38.9 -272,-38.9 -271.7,-38.9 -271.1,-38.9 -270.8,-38.9 -270.2,-38.9 -269.9,-38.9 
		-269.7,-38.9 -269.7,-38.3 -269.1,-38.3 -268.8,-38.3 -268.2,-38.3 -268,-38.3 -267.4,-38.3 -267.1,-38.3 -266.8,-38.3 
		-266.2,-38.3 -265.9,-38.3 -265.3,-38.3 -265,-38.3 -264.4,-38.3 -260.3,-38.3 -253.4,-34.5 -252.2,-29.8 -251.7,-29.5 
		-251.7,-29.2 -251.7,-28.5 -251.7,-28.2 -251.4,-28.2 -251.4,-27.6 -251.4,-26.6 -251.1,-26.3 -248.8,-19.1 -245.6,-24.4 
		-242.7,-29.2 -234.6,-27.6 -225.3,-19.1 -225.3,-18.8 -225.9,-18.8 -226.2,-18.2 -226.8,-18.2 -227.1,-17.5 -227.1,-16.6 
		-227.1,-16 -227.4,-15.6 -227.4,-14.4 -227.4,-13.5 -228,-12.6 -228.3,-12.3 -228.9,-9.1 -229.7,-8.1 -230,-8.1 -230,-7.5 
		-232.6,-5.3 -233.7,-4.3 -234,-4.1 -234.9,-3.8 -236.6,-2.8 -237.8,-1.9 -239,-1.3 -241.6,1.3 -242.4,2.5 -242.7,2.5 -244.5,5.3 
		-245.6,6.2 -247.7,8.8 -247.7,9.4 -248.3,9.4 -248.5,9.4 -249.4,8.8 -248.8,9.4 -248.5,9.7 -249.4,11 -250.3,11.9 -250.6,13.5 
		-251.1,15 -251.1,17.9 -251.4,20.1 -251.1,20.4 -251.1,21 -251.1,21.3 -250.6,22 -250.6,22.3 -250.3,22.3 -249.4,22.3 -249.4,22.6 
		-249.7,23.3 -249.7,23.6 -249.4,24.1 -250.3,25.4 -249.7,25.7 -250.3,27.3 -251.1,27.6 -251.7,28.9 -252.2,29.8 -253.1,30.4 
		-253.1,30.7 -253.4,31.1 -254,32.6 -254.3,33.2 -254.3,35.1 -254.6,36 -254.6,37 -256.1,39.5 -258.4,44.2 -259,44.8 -259.3,45.8 
		-260.3,48.6 -262.4,51.7 -273.1,38.9 -277.5,37.9 -289.3,31.7 -295.2,28.9 -304.4,27.9 -306.2,27.9 -341.2,49.6 -343.2,50.8 
		-409.2,39.5 -409.5,39.5 -379.4,6.2 -383.1,6.2 -384.3,6.2 -382.8,4.4 -369.5,-9.7 -375,-12.3 -339.1,-53.6 -327.2,-53.6 
		-302.4,-80.9 -301.2,-67.8 	"/>
	<polygon opacity="0.25" fill="none" stroke="#6E6E6E" stroke-width="5" stroke-linejoin="round" stroke-miterlimit="8" points="
		-329.3,-246 -328.4,-246 -324.4,-245 -323,-244.4 -322.7,-244.1 -320.9,-243.7 -319.7,-242.8 -318,-242.2 -316.8,-241.2 
		-314.9,-240.9 -314,-240.9 -311.6,-230.5 -308.1,-214.5 -306.2,-205.8 -305.9,-189.5 -305.3,-173.1 -304.1,-113.9 -338,-111.7 
		-339.1,-111.7 -373,-108.5 -374.4,-108.5 -414.4,-105.7 -441.9,-103.8 -444.3,-103.5 -455.3,-103.2 -460.1,-102.2 -463.3,-104.8 
		-463.3,-105.4 -463.9,-105.4 -464.2,-105.7 -464.8,-105.7 -464.8,-106.4 -465.1,-106.4 -465.1,-106.7 -465.6,-106.7 -465.6,-106.9 
		-465.9,-106.9 -466.2,-107.5 -466.8,-107.9 -467.1,-107.9 -467.1,-108.5 -467.6,-108.5 -467.6,-108.8 -467.9,-108.8 -468.2,-109.4 
		-468.8,-109.4 -468.8,-109.8 -469.1,-109.8 -469.1,-110.1 -469.7,-110.1 -470,-110.7 -470.6,-111 -470.9,-111 -470.9,-111.7 
		-471.2,-111.7 -471.2,-112 -471.8,-112 -472,-112.3 -472.6,-112.9 -472.9,-112.9 -472.9,-113.2 -473.5,-113.2 -473.5,-113.9 
		-473.8,-113.9 -473.8,-114.2 -474.1,-114.2 -474.7,-114.2 -474.7,-114.8 -474.9,-114.8 -474.9,-115.1 -475.4,-115.1 -475.4,-115.4 
		-475.7,-115.4 -476,-116.1 -476.6,-116.3 -476.9,-116.3 -476.9,-116.9 -477.5,-116.9 -477.5,-117.3 -477.8,-117.3 -478.4,-117.9 
		-478.7,-118.2 -479,-118.2 -479,-118.5 -479.5,-118.5 -479.5,-119.2 -479.8,-119.2 -480.4,-119.5 -480.7,-119.5 -480.7,-120.1 
		-481.3,-120.1 -481.3,-120.4 -481.6,-120.4 -481.9,-121.1 -482.5,-121.4 -482.8,-121.4 -482.8,-121.7 -483.4,-121.7 -483.4,-122.3 
		-483.6,-122.3 -483.6,-122.6 -484.2,-122.6 -484.4,-123.3 -484.7,-123.3 -484.7,-123.6 -485.3,-123.6 -485.3,-123.9 -485.6,-123.9 
		-485.6,-124.6 -486.2,-124.6 -486.5,-124.6 -486.5,-124.9 -486.8,-124.9 -486.8,-125.5 -487.3,-125.5 -487.3,-125.7 -487.6,-125.7 
		-488.2,-126.4 -488.5,-126.7 -489.1,-126.7 -489.1,-127 -489.4,-127 -489.4,-127.6 -489.7,-127.6 -490.3,-127.9 -490.6,-127.9 
		-490.6,-128.6 -491.1,-128.6 -491.1,-128.9 -491.4,-128.9 -492,-129.5 -492.3,-129.8 -492.6,-130.2 -493.2,-130.2 -493.2,-130.8 
		-493.5,-130.8 -493.5,-131.1 -494,-131.1 -494.3,-131.8 -494.6,-132.1 -495.1,-132.1 -495.1,-132.4 -495.4,-132.4 -495.4,-133 
		-496,-133 -496.3,-133.3 -496.9,-133.3 -496.9,-134 -497.2,-134 -497.2,-134.3 -497.5,-134.3 -497.5,-134.8 -498.1,-134.8 
		-498.4,-135.1 -499,-135.1 -499,-135.5 -499.2,-135.5 -499.2,-136.1 -499.8,-136.1 -499.8,-136.4 -500.1,-136.4 -500.4,-137 
		-501,-137 -501,-137.4 -501.3,-137.4 -501.3,-138 -501.9,-138 -502.2,-138.3 -502.7,-138.6 -502.9,-139.2 -503.2,-139.2 
		-503.2,-139.6 -503.8,-139.6 -503.8,-140.2 -504.1,-140.2 -504.7,-140.5 -505,-140.8 -505.3,-140.8 -505.3,-141.5 -505.9,-141.5 
		-505.9,-141.8 -506.2,-141.8 -506.7,-142.4 -507,-142.4 -507,-142.7 -507.6,-142.7 -507.6,-143.4 -507.9,-143.4 -508.2,-143.7 
		-508.8,-144 -509.1,-144 -509.1,-144.5 -509.7,-144.5 -509.7,-144.9 -510,-144.9 -510,-145.5 -510.6,-145.5 -510.9,-145.5 
		-510.9,-145.8 -511.1,-145.8 -511.1,-146.4 -511.7,-146.4 -511.7,-146.8 -512,-146.8 -512.5,-147.1 -512.8,-147.1 -512.8,-147.7 
		-513.1,-147.7 -513.1,-148 -513.7,-148 -513.7,-148.7 -514,-148.7 -514.5,-149 -514.8,-149.6 -515.4,-149.6 -515.4,-149.9 
		-515.7,-150.3 -518.6,-152.5 -516.9,-205.1 -516.6,-205.1 -516,-204.8 -512.5,-204.2 -511.7,-204.2 -507.6,-205.1 -505,-205.8 
		-502.7,-205.8 -502.2,-205.8 -501,-204.8 -499.2,-203.6 -499,-203.6 -498.4,-202.9 -496.9,-200.4 -495.1,-198.9 -494.6,-198.6 
		-493.2,-198.6 -492.3,-198.6 -491.4,-198.3 -490.6,-198.3 -490.3,-198.3 -487.6,-198.3 -484.7,-199.5 -484.4,-199.5 -482.8,-200.4 
		-478.7,-201.7 -477.8,-201.7 -476.6,-201.7 -475.7,-202 -474.9,-202 -474.1,-202.6 -472.6,-202.9 -470.9,-204.2 -469.7,-204.8 
		-468.8,-205.8 -468.2,-205.8 -467.1,-206.1 -465.9,-207 -465.1,-207 -464.2,-208 -463.9,-208 -463.1,-208.3 -462.8,-209 
		-461.9,-209.3 -461,-209.5 -460.4,-210.1 -460.1,-210.4 -459.9,-211.1 -458.4,-211.4 -458.1,-212 -457.2,-212.6 -456.9,-213.3 
		-456.1,-214.2 -455.3,-214.5 -454.4,-214.5 -454.4,-215.2 -454.1,-215.2 -453.5,-215.8 -452,-215.8 -451.5,-215.8 -451.2,-216.8 
		-450.3,-216.8 -449.4,-217.4 -449.1,-217.7 -448.5,-218 -448.5,-218.9 -448.2,-219.5 -447.7,-219.5 -447.1,-219.5 -445.4,-219.8 
		-444.6,-220.5 -443.4,-220.8 -441.9,-221.1 -441.6,-222.1 -441.3,-222.7 -441.3,-223.6 -440.7,-224.3 -440.4,-224.3 -439,-225.9 
		-438.7,-226.2 -438.7,-227.1 -438.4,-227.5 -435.6,-228.3 -433.8,-229.3 -432.1,-229.6 -432.1,-230.2 -430.9,-231.2 -429.7,-231.5 
		-428.6,-232.4 -427.2,-232.4 -425.7,-233.7 -424,-234.3 -422.2,-234.7 -421.3,-235.6 -420.5,-235.6 -419.3,-235.9 -417.9,-235.6 
		-417.1,-235.9 -416.5,-235.9 -415.6,-235.9 -414.4,-236.5 -413.2,-236.5 -411.2,-235.9 -410.3,-235.9 -410,-235.6 -409.5,-235.3 
		-408.4,-234.3 -407.2,-232.8 -406.3,-232.4 -404.9,-231.5 -403.7,-231.2 -402.2,-229.6 -401.6,-229.6 -401.6,-229.3 -400.8,-229.3 
		-399.7,-229.3 -398.5,-229.6 -395,-231.2 -393.5,-231.5 -392.7,-232.1 -391.5,-231.5 -389.8,-231.2 -388.1,-231.2 -386.9,-231.2 
		-384.9,-231.5 -384.9,-232.1 -384.3,-232.1 -384,-232.1 -382.8,-231.5 -380.9,-231.2 -379.4,-231.5 -378.2,-231.2 -377.1,-231.5 
		-375.6,-231.5 -374.4,-232.1 -373.3,-232.1 -372.2,-232.4 -371.6,-232.4 -371.3,-232.1 -370.1,-232.4 -369.3,-232.1 -367.8,-232.4 
		-366.3,-233.7 -365.5,-234.3 -365.2,-234.7 -364.6,-235.6 -364.3,-235.9 -363.7,-235.9 -362.9,-236.9 -362.3,-237.7 -361.8,-238 
		-358.5,-238.7 -357.7,-239 -356.8,-239.9 -356.5,-239.9 -355.9,-240.9 -355.6,-240.9 -354.7,-241.2 -354.4,-242.2 -353.6,-243.1 
		-351.6,-243.1 -351.6,-243.7 -351,-244.1 -350.2,-244.1 -349,-244.1 -346.1,-244.1 -345.2,-244.1 -344.3,-244.4 -342.4,-246 
		-341.5,-246.3 -340.9,-246.3 -340.3,-246.3 -338.3,-246 -336.2,-246 -335,-246.3 -333.4,-247.1 -332.2,-247.1 -331.6,-247.1 	"/>
	<polygon opacity="0.25" fill="none" stroke="#6E6E6E" stroke-width="5" stroke-linejoin="round" stroke-miterlimit="8" points="
		-463.4,371 -463.7,371.6 -466.9,375.1 -466.9,375.8 -467.7,376.1 -469.8,378.8 -472.7,381.7 -476.1,385.5 -477.3,386.8 
		-479.3,388.9 -482.3,391.1 -482.6,391.7 -484,392.7 -485.1,393.3 -487.4,395.8 -488.9,396.5 -489.8,397.3 -491.8,399.5 
		-493.3,401.4 -495.8,403.3 -496.1,403.6 -496.7,404.3 -496.7,404.9 -497,405.6 -497.6,405.6 -498.2,405.9 -498.7,406.7 -499,408.6 
		-499.9,409.6 -501.7,410.8 -502,410.8 -502.5,411.8 -503.9,412.7 -504.8,413.4 -506.6,415.8 -507.7,417.1 -507.7,417.4 
		-508.3,417.4 -508.3,418.3 -508.9,418.7 -510.4,419.6 -511.2,420.6 -511.2,421.2 -511.5,421.8 -511.8,422.5 -512.6,423.7 
		-513.5,424.3 -514.6,424.9 -515.5,425.8 -518.2,428.7 -519.6,430.9 -520.2,430.9 -521.4,431.9 -523,432.8 -524.5,434.3 
		-525.1,434.3 -527.1,436.2 -527.4,436.2 -528.9,437.1 -531.7,438.7 -531.7,439.4 -532,439.4 -532.9,439.7 -533.2,439.7 
		-533.8,440.3 -534,440.6 -534.6,440.6 -534.9,440.6 -537,442.5 -539.6,444.3 -541.8,445.6 -542.4,445.9 -543,446.5 -543.9,447.5 
		-544.5,447.5 -544.8,447.8 -545.4,447.8 -546.8,448.8 -548.9,449.1 -558.1,450 -560.1,450.3 -563,451.3 -567.1,449.1 -567.1,445 
		-566.8,413.4 -566.8,413 -566.8,412.7 -566.2,408 -567.1,407.4 -568.7,404.3 -576.1,392.7 -576.6,392.7 -576.6,392 -576.6,391.7 
		-576.9,391.7 -576.9,391.1 -577.4,391.1 -577.4,390.8 -577.4,390.1 -577.7,390.1 -577.7,389.8 -578,389.8 -578,389.5 -578.6,388.9 
		-578.6,388.6 -578.9,387.9 -579.5,387.6 -579.5,387.4 -579.8,387.4 -581.8,383.6 -582.7,379.2 -583.6,376.1 -583.6,375.8 
		-583.6,375.1 -583.9,375.1 -583.9,374.8 -585.6,367.6 -579.8,370.7 -571.1,371.6 -569.3,371 -524.2,367.6 -523,363.5 -522.4,363.2 
		-521.1,357.3 -521.1,357 -521.1,356.3 -520.5,356.3 -520.5,356 -520.5,355.7 -520.5,355.1 -520.2,355.1 -520.2,354.7 -520.2,354.1 
		-520.2,353.8 -519.6,353.8 -519.6,353.2 -519.6,352.8 -519.6,352.5 -519.3,351.9 -519.3,351.6 -519.3,350.9 -518.2,348.8 
		-515.5,346.3 -513.5,343.1 -503.9,326.2 -492.7,319 -447.2,350.6 -446.9,350.6 -448,351.9 -449.2,353.2 -451.8,356.3 -452.1,357 
		-456,361 -458.2,364.1 -458.8,364.5 -461.1,368.6 	"/>
	<polygon opacity="0.25" fill="none" stroke="#6E6E6E" stroke-width="5" stroke-linejoin="round" stroke-miterlimit="8" points="
		-575.7,466.7 -575.7,466.7 -576,466.7 -576.6,466.7 -576.9,466.7 -577.7,467 -578.8,468.3 -580.6,468.9 -580.9,468.9 -581.8,469.9 
		-582.4,469.9 -583,469.9 -583.8,470.2 -584.4,470.5 -585.3,471.2 -585.9,471.4 -586.5,472 -587.8,473.3 -588.4,473.3 -590.4,474.5 
		-592.2,476.1 -593.4,476.4 -595.1,477.7 -596,478.3 -596.2,478.3 -598.5,480.6 -603.2,483 -603.8,483 -606.9,485.8 -607.2,486.2 
		-607.8,486.8 -607.8,487.1 -608.7,487.1 -609.3,488.1 -610.1,488.4 -611.9,490 -612.8,490.2 -613.6,490.2 -614.5,491.1 
		-615.6,492.1 -616.8,493.7 -617.1,493.7 -617.9,493.7 -619.7,495.6 -620.6,495.9 -621.7,497.5 -622.6,497.8 -623.8,499.1 
		-624.3,499.1 -624.6,499.6 -625.4,499.9 -625.7,500.5 -627.5,502.1 -631.3,505.3 -632.4,506.2 -634.4,508.1 -635.3,509 
		-637.9,510.6 -638.2,511.2 -639.4,512.5 -640.8,513.4 -643.1,515.7 -644.8,517.6 -645.1,517.9 -645.1,518.7 -648.9,521.6 
		-650.7,523.1 -651,523.8 -651,524.1 -651.3,524.7 -651,525.4 -651.3,525.4 -652,525.4 -652.9,526 -657,529.4 -657,530 
		-657.9,530.7 -659.4,532.6 -659.4,533.2 -659.9,532.6 -660.5,533.2 -661.9,534.8 -663.3,535.7 -663.6,535.7 -664.8,536.9 
		-664.8,537.5 -664.5,537.9 -664.8,538.5 -665.7,538.5 -666.5,538.5 -667.7,539.7 -669.5,541 -669.8,541 -671.4,542.3 -672.3,543.2 
		-672.6,543.9 -674.1,544.5 -674.9,545.1 -676.1,546 -677,546.9 -677.9,547.6 -678.1,549.2 -678.4,549.5 -680.4,551.4 -682.7,552.3 
		-683.3,553.3 -684.8,554.6 -687.1,556.7 -689.6,559.2 -689.6,559.8 -691.7,561.7 -692.6,562.4 -693.5,563.3 -694,564 -706.2,545.1 
		-706.8,544.2 -712,536.7 -712.6,535.7 -732.5,504 -709,491.4 -708.5,491.1 -689.9,481.4 -689.6,480.8 -669.2,472 -667.4,471.4 
		-628.4,452.9 -614.7,446 -615,445 -615.6,441.3 -615.6,440.7 -615.6,440.4 -615.6,439.8 -615.6,439.4 -615.6,438.8 -615.6,438.5 
		-615.6,438.2 -615.9,437.5 -615.9,437.2 -615.9,436.6 -615.9,436.3 -615.9,436 -615.9,435.3 -615.9,435 -615.9,434.4 -615.9,434.1 
		-616.5,433.5 -616.5,433.2 -616.5,432.9 -616.5,432.2 -616.5,431.9 -616.5,431.3 -616.5,431 -616.8,426.5 -616.5,421.3 
		-614.7,411.2 -614.7,410.9 -614.5,405.9 -615.6,401.2 -614.7,396.5 -614.7,396.2 -614.7,395.9 -614.5,395.9 -614.5,395.2 
		-614.5,394.9 -614.5,394.3 -614.5,394 -613.9,393.3 -613.9,393 -613.9,392.7 -613.9,392.1 -613.9,391.8 -613.6,391.1 -613.6,390.8 
		-613.6,390.2 -613.6,389.9 -613.6,389.6 -613.1,389.6 -613.1,388.9 -613.1,388.6 -613.1,388 -613.1,387.6 -611.9,382.7 
		-613.6,373.9 -613.6,373.3 -613.6,373 -613.6,372.6 -614.5,367.7 -605.8,366.4 -598.5,366.7 -585.6,367.7 -583.8,374.8 
		-583.8,375.2 -583.5,375.2 -583.5,375.8 -583.5,376.1 -582.7,379.2 -581.8,383.6 -579.7,387.4 -579.4,387.4 -579.4,387.6 
		-578.8,388 -578.6,388.6 -578.6,388.9 -578,389.6 -578,389.9 -577.7,389.9 -577.7,390.2 -577.4,390.2 -577.4,390.8 -577.4,391.1 
		-576.9,391.1 -576.9,391.8 -576.6,391.8 -576.6,392.1 -576.6,392.7 -576,392.7 -568.7,404.3 -567.1,407.4 -566.2,408 -566.8,412.8 
		-566.8,413.1 -566.8,413.4 -567.1,445 -567.1,449.2 -563,451.4 -564.1,453.2 -564.1,453.5 -564.4,453.5 -564.4,454.1 -565,454.1 
		-565,454.5 -565.3,454.5 -565.3,455.1 -565.3,455.4 -565.9,455.4 -565.9,456 -566.2,456 -566.2,456.4 -566.8,456.4 -566.8,456.7 
		-566.8,457.3 -567.1,457.3 -567.1,457.6 -567.3,457.6 -567.3,458.2 -567.9,458.2 -567.9,458.6 -567.9,458.9 -568.1,458.9 
		-568.1,459.5 -568.7,459.5 -568.7,459.8 -569,459.8 -569,460.5 -569.3,460.8 -571.9,464.5 -572.2,464.8 -572.8,464.8 -573.7,465.1 
		-574.6,466.1 -575.7,466.1 	"/>
	<polygon opacity="0.25" fill="none" stroke="#6E6E6E" stroke-width="5" stroke-linejoin="round" stroke-miterlimit="8" points="
		-463.3,-104.8 -460.1,-102.2 -455.3,-103.2 -444.3,-103.5 -441.9,-103.8 -414.4,-105.7 -374.4,-108.5 -373,-108.5 -339.1,-111.6 
		-337.9,-111.6 -304.1,-113.9 -302.4,-80.9 -327.2,-53.6 -339.1,-53.6 -375,-12.3 -369.5,-9.7 -382.8,4.4 -384.3,6.2 -448.2,6.2 
		-441.9,-36.7 -449.1,-51.4 -454.4,-51.7 -454.4,-53.6 -505.9,-56.8 -503.8,-69.9 -508.8,-103.5 -515.7,-150.2 -515.4,-149.9 
		-515.4,-149.6 -514.9,-149.6 -514.6,-149 -514,-148.6 -513.7,-148.6 -513.7,-148 -513.1,-148 -513.1,-147.7 -512.8,-147.7 
		-512.8,-147.1 -512.5,-147.1 -512,-146.7 -511.7,-146.7 -511.7,-146.4 -511.1,-146.4 -511.1,-145.8 -510.9,-145.8 -510.9,-145.5 
		-510.6,-145.5 -510,-145.5 -510,-144.8 -509.7,-144.8 -509.7,-144.5 -509.1,-144.5 -509.1,-144 -508.8,-144 -508.2,-143.7 
		-507.9,-143.3 -507.6,-143.3 -507.6,-142.7 -507,-142.7 -507,-142.4 -506.7,-142.4 -506.2,-141.8 -505.9,-141.8 -505.9,-141.5 
		-505.3,-141.5 -505.3,-140.8 -505,-140.8 -504.7,-140.5 -504.1,-140.2 -503.8,-140.2 -503.8,-139.6 -503.2,-139.6 -503.2,-139.2 
		-502.9,-139.2 -502.8,-138.6 -502.2,-138.3 -501.9,-138 -501.3,-138 -501.3,-137.3 -501,-137.3 -501,-137 -500.4,-137 
		-500.1,-136.4 -499.8,-136.4 -499.8,-136.1 -499.3,-136.1 -499.3,-135.4 -499,-135.4 -499,-135.1 -498.4,-135.1 -498.1,-134.8 
		-497.5,-134.8 -497.5,-134.3 -497.2,-134.3 -497.2,-134 -496.9,-134 -496.9,-133.3 -496.3,-133.3 -496,-133 -495.4,-133 
		-495.4,-132.4 -495.1,-132.4 -495.1,-132 -494.6,-132 -494.3,-131.7 -494,-131.1 -493.5,-131.1 -493.5,-130.8 -493.2,-130.8 
		-493.2,-130.1 -492.6,-130.1 -492.3,-129.8 -492,-129.5 -491.4,-128.9 -491.1,-128.9 -491.1,-128.6 -490.6,-128.6 -490.6,-127.9 
		-490.3,-127.9 -489.7,-127.6 -489.4,-127.6 -489.4,-127 -489.1,-127 -489.1,-126.7 -488.5,-126.7 -488.2,-126.3 -487.6,-125.7 
		-487.3,-125.7 -487.3,-125.5 -486.8,-125.5 -486.8,-124.8 -486.5,-124.8 -486.5,-124.5 -486.2,-124.5 -485.6,-124.5 -485.6,-123.9 
		-485.3,-123.9 -485.3,-123.6 -484.7,-123.6 -484.7,-123.3 -484.4,-123.3 -484.2,-122.6 -483.6,-122.6 -483.6,-122.3 -483.4,-122.3 
		-483.4,-121.7 -482.8,-121.7 -482.8,-121.4 -482.5,-121.4 -481.9,-121.1 -481.6,-120.4 -481.3,-120.4 -481.3,-120.1 -480.7,-120.1 
		-480.7,-119.5 -480.4,-119.5 -479.8,-119.2 -479.5,-119.2 -479.5,-118.5 -479,-118.5 -479,-118.2 -478.7,-118.2 -478.4,-117.9 
		-477.8,-117.3 -477.5,-117.3 -477.5,-116.9 -476.9,-116.9 -476.9,-116.3 -476.6,-116.3 -476,-116.1 -475.7,-115.4 -475.4,-115.4 
		-475.4,-115.1 -474.9,-115.1 -474.9,-114.8 -474.7,-114.8 -474.7,-114.2 -474.1,-114.2 -473.8,-114.2 -473.8,-113.9 -473.5,-113.9 
		-473.5,-113.2 -472.9,-113.2 -472.9,-112.9 -472.6,-112.9 -472,-112.3 -471.8,-112 -471.2,-112 -471.2,-111.6 -470.9,-111.6 
		-470.9,-111 -470.6,-111 -470,-110.7 -469.7,-110.1 -469.1,-110.1 -469.1,-109.7 -468.8,-109.7 -468.8,-109.4 -468.2,-109.4 
		-467.9,-108.8 -467.6,-108.8 -467.6,-108.5 -467.1,-108.5 -467.1,-107.8 -466.8,-107.8 -466.2,-107.5 -465.9,-106.9 -465.6,-106.9 
		-465.6,-106.7 -465.1,-106.7 -465.1,-106.4 -464.8,-106.4 -464.8,-105.7 -464.2,-105.7 -463.9,-105.4 -463.3,-105.4 	"/>
	<polygon opacity="0.25" fill="none" stroke="#6E6E6E" stroke-width="5" stroke-linejoin="round" stroke-miterlimit="8" points="
		-448.2,6.2 -449.7,6.2 -449.7,5.6 -454.9,4.1 -456.9,3.2 -458.1,2.5 -465.6,0 -466.7,-0.6 -474.8,-3.8 -476,-4.1 -477.7,-4.4 
		-478.6,-5 -482.4,-6.3 -483.6,-6.6 -485.3,-7.2 -485.6,-7.5 -487.3,-8.1 -487.6,-8.5 -492,-9.7 -495.1,-10.7 -496,-11.3 
		-498.9,-12.3 -500.4,-12.9 -501.8,-13.5 -502.7,-13.8 -504.7,-14.4 -505.8,-14.7 -508.8,-15.7 -511.1,-16.6 -512.4,-17.6 
		-513,-17.6 -514.5,-17.9 -514.8,-18.2 -515.7,-18.2 -517.4,-18.8 -524.3,-21.4 -525.5,-22 -526.7,-22.3 -531.3,-24.1 -534.2,-25.1 
		-535.9,-25.4 -542.3,-28.3 -542.9,-28.3 -543.8,-28.3 -546.7,-29.5 -551,-31.4 -552.4,-31.7 -553.6,-31.7 -554.8,-32.6 
		-555.6,-32.6 -559.3,-33.9 -568.1,-37 -569.2,-37.7 -571.5,-38.3 -573,-38.3 -576.2,-39.9 -581.1,-41.5 -582.2,-42.3 -584.9,-42.9 
		-589.5,-44.5 -589.8,-44.5 -590.1,-45.2 -593.6,-46.1 -598.7,-48.3 -601.7,-48.7 -603.4,-49.6 -604.3,-49.9 -605.2,-50.6 
		-610.3,-52.4 -611.2,-52.7 -611.2,-93.8 -601.7,-135.5 -598.7,-139.6 -596.7,-141.8 -582.2,-159.4 -526.4,-154 -526.1,-154 
		-518.6,-152.5 -515.7,-150.3 -508.8,-103.6 -503.8,-69.9 -505.8,-56.8 -454.4,-53.6 -454.4,-51.7 -449.1,-51.4 -441.9,-36.7 	"/>
	<g opacity="0.25">
		<text transform="matrix(1 0 0 1 -850.0123 625.4833)" fill="#FFFFFF" font-family="'HelveticaNeue'" font-size="16.7037">Lower</text>
	</g>
	<g opacity="0.25">
		<text transform="matrix(1 0 0 1 -803.4156 625.4833)" fill="#FFFFFF" font-family="'HelveticaNeue'" font-size="16.7037">J</text>
		<text transform="matrix(1 0 0 1 -794.7086 625.4833)" fill="#FFFFFF" font-family="'HelveticaNeue'" font-size="16.7037">ub</text>
		<text transform="matrix(1 0 0 1 -775.6138 625.4833)" fill="#FFFFFF" font-family="'HelveticaNeue'" font-size="16.7037">a</text>
	</g>
	<path opacity="0.25" fill="none" stroke="#808080" stroke-width="5" stroke-miterlimit="8" d="M-738.6,511.8"/>
	<path opacity="0.25" fill="none" stroke="#808080" stroke-width="5" stroke-miterlimit="8" d="M-501.3,492.5"/>
	<path opacity="0.25" fill="none" stroke="#808080" stroke-width="5" stroke-miterlimit="8" d="M-761.9,623.5"/>
	<path opacity="0.25" fill="none" stroke="#808080" stroke-width="5" stroke-miterlimit="8" d="M-557.2,322.8"/>
	<path opacity="0.25" fill="none" stroke="#808080" stroke-width="5" stroke-miterlimit="8" d="M-716.4,418.3"/>
	<path opacity="0.25" fill="none" stroke="#808080" stroke-width="5" stroke-miterlimit="8" d="M-681.6,536.4"/>
	<g>
		<g>
			<text transform="matrix(1 0 0 1 -544.3228 470.0009)" font-family="'HelveticaNeue'" font-size="10.2986">M</text>
			<text transform="matrix(1 0 0 1 -535.3218 470.0009)" font-family="'HelveticaNeue'" font-size="10.2986">og</text>
			<text transform="matrix(1 0 0 1 -523.5464 470.0009)" font-family="'HelveticaNeue'" font-size="10.2986">a</text>
			<text transform="matrix(1 0 0 1 -518.0074 470.0009)" font-family="'HelveticaNeue'" font-size="10.2986">dishu</text>
		</g>
		<path fill="#203864" d="M-567.2,463.2c0-5.1,4.7-9.4,10.5-9.4c5.8,0,10.5,4.2,10.5,9.4c0,5.2-4.7,9.4-10.5,9.4
			C-562.4,472.6-567.2,468.4-567.2,463.2z"/>
		<path fill="none" stroke="#7F7F7F" stroke-width="1.02" stroke-miterlimit="8" d="M-567.2,463.2c0-5.1,4.7-9.4,10.5-9.4
			c5.8,0,10.5,4.2,10.5,9.4c0,5.2-4.7,9.4-10.5,9.4C-562.4,472.6-567.2,468.4-567.2,463.2z"/>
		<polygon fill="#FFFFFF" points="-562.3,460.6 -557.4,460.6 -555.8,456 -554.2,460.6 -549.3,460.6 -553.3,463.4 -551.7,468 
			-555.8,465.1 -559.8,468 -558.3,463.4 		"/>
		<g>
			<text transform="matrix(1 0 0 1 -715.2535 424.0351)" font-family="'HelveticaNeue'" font-size="16.7037">Ba</text>
			<text transform="matrix(1 0 0 1 -694.774 424.0351)" font-family="'HelveticaNeue'" font-size="16.7037">y</text>
		</g>
		<g>
			<text transform="matrix(1 0 0 1 -815.1832 504.536)" font-family="'HelveticaNeue'" font-size="13.6895">Mi</text>
			<text transform="matrix(1 0 0 1 -800.2437 504.536)" font-family="'HelveticaNeue'" font-size="13.6895">d</text>
			<text transform="matrix(1 0 0 1 -792.1304 504.536)" font-family="'HelveticaNeue'" font-size="13.6895">d</text>
			<text transform="matrix(1 0 0 1 -784.1158 504.536)" font-family="'HelveticaNeue'" font-size="13.6895">l</text>
			<text transform="matrix(1 0 0 1 -781.0484 504.536)" font-family="'HelveticaNeue'" font-size="13.6895">e</text>
			<text transform="matrix(1 0 0 1 -773.7281 504.536)" font-family="'HelveticaNeue'" font-size="13.6895"> </text>
			<text transform="matrix(1 0 0 1 -769.7711 504.536)" font-family="'HelveticaNeue'" font-size="13.6895">J</text>
			<text transform="matrix(1 0 0 1 -762.6461 504.536)" font-family="'HelveticaNeue'" font-size="13.6895">u</text>
			<text transform="matrix(1 0 0 1 -755.1275 504.536)" font-family="'HelveticaNeue'" font-size="13.6895">b</text>
			<text transform="matrix(1 0 0 1 -747.0152 504.536)" font-family="'HelveticaNeue'" font-size="13.6895">a</text>
		</g>
		<g>
			<text transform="matrix(1 0 0 1 -495.2164 388.4901)" font-family="'HelveticaNeue'" font-size="16.7037">Sha</text>
			<text transform="matrix(1 0 0 1 -466.1285 388.4901)" font-family="'HelveticaNeue'" font-size="16.7037">b</text>
			<text transform="matrix(1 0 0 1 -456.2359 388.4901)" font-family="'HelveticaNeue'" font-size="16.7037">el</text>
			<text transform="matrix(1 0 0 1 -443.5689 388.4901)" font-family="'HelveticaNeue'" font-size="16.7037">l</text>
			<text transform="matrix(1 0 0 1 -439.8101 388.4901)" font-family="'HelveticaNeue'" font-size="16.7037">e</text>
		</g>
		<g>
			<text transform="matrix(1 0 0 1 -502.4117 248.4559)" font-family="'HelveticaNeue'" font-size="16.7037">G</text>
			<text transform="matrix(1 0 0 1 -489.7515 248.4559)" font-family="'HelveticaNeue'" font-size="16.7037">a</text>
			<text transform="matrix(1 0 0 1 -480.7447 248.4559)" font-family="'HelveticaNeue'" font-size="16.7037">lg</text>
			<text transform="matrix(1 0 0 1 -467.3882 248.4559)" font-family="'HelveticaNeue'" font-size="16.7037">a</text>
			<text transform="matrix(1 0 0 1 -458.3873 248.4559)" font-family="'HelveticaNeue'" font-size="16.7037">duu</text>
			<text transform="matrix(1 0 0 1 -429.9888 248.4559)" font-family="'HelveticaNeue'" font-size="16.7037">d</text>
		</g>
		<g>
			<text transform="matrix(1 0 0 1 -382.6451 117.1327)" font-family="'HelveticaNeue'" font-size="16.7037">M</text>
			<text transform="matrix(1 0 0 1 -368.0992 117.1327)" font-family="'HelveticaNeue'" font-size="16.7037">u</text>
			<text transform="matrix(1 0 0 1 -358.897 117.1327)" font-family="'HelveticaNeue'" font-size="16.7037">du</text>
			<text transform="matrix(1 0 0 1 -339.7066 117.1327)" font-family="'HelveticaNeue'" font-size="16.7037">g</text>
		</g>
		<g>
			<text transform="matrix(1 0 0 1 -327.2027 -12.2101)" font-family="'HelveticaNeue'" font-size="16.7037">Nuga</text>
			<text transform="matrix(1 0 0 1 -287.3306 -12.2101)" font-family="'HelveticaNeue'" font-size="16.7037">a</text>
			<text transform="matrix(1 0 0 1 -278.3248 -12.2101)" font-family="'HelveticaNeue'" font-size="16.7037">l</text>
		</g>
		<g>
			<text transform="matrix(1 0 0 1 -236.69 -212.6554)" font-family="'HelveticaNeue'" font-size="16.7037">B</text>
			<text transform="matrix(1 0 0 1 -225.2125 -212.6554)" font-family="'HelveticaNeue'" font-size="16.7037">a</text>
			<text transform="matrix(1 0 0 1 -216.2105 -212.6554)" font-family="'HelveticaNeue'" font-size="16.7037">ri</text>
		</g>
		<g>
			<text transform="matrix(1 0 0 1 -396.4468 -144.3331)" font-family="'HelveticaNeue'" font-size="16.7037">Sana</text>
			<text transform="matrix(1 0 0 1 -358.355 -144.3331)" font-family="'HelveticaNeue'" font-size="16.7037">a</text>
			<text transform="matrix(1 0 0 1 -349.3511 -144.3331)" font-family="'HelveticaNeue'" font-size="16.7037">g</text>
		</g>
		<g>
			<text transform="matrix(1 0 0 1 -452.2076 -73.3741)" font-family="'HelveticaNeue'" font-size="16.7037">S</text>
			<text transform="matrix(1 0 0 1 -441.4234 -73.3741)" font-family="'HelveticaNeue'" font-size="16.7037">o</text>
			<text transform="matrix(1 0 0 1 -431.7261 -73.3741)" font-family="'HelveticaNeue'" font-size="16.7037">o</text>
			<text transform="matrix(1 0 0 1 -422.1314 -73.3741)" font-family="'HelveticaNeue'" font-size="16.7037">l</text>
		</g>
		<g>
			<text transform="matrix(1 0 0 1 -674.9273 -123.2315)" font-family="'HelveticaNeue'" font-size="16.7037">Wo</text>
			<text transform="matrix(1 0 0 1 -649.7945 -123.2315)" font-family="'HelveticaNeue'" font-size="16.7037">q</text>
			<text transform="matrix(1 0 0 1 -639.9 -123.2315)" font-family="'HelveticaNeue'" font-size="16.7037">o</text>
			<text transform="matrix(1 0 0 1 -630.3043 -123.2315)" font-family="'HelveticaNeue'" font-size="16.7037">o</text>
			<text transform="matrix(1 0 0 1 -620.8062 -123.2315)" font-family="'HelveticaNeue'" font-size="16.7037">yi</text>
		</g>
		<g>
			<text transform="matrix(1 0 0 1 -674.9273 -103.1388)" font-family="'HelveticaNeue'" font-size="16.7037">G</text>
			<text transform="matrix(1 0 0 1 -662.2613 -103.1388)" font-family="'HelveticaNeue'" font-size="16.7037">a</text>
			<text transform="matrix(1 0 0 1 -653.2574 -103.1388)" font-family="'HelveticaNeue'" font-size="16.7037">lbeed</text>
		</g>
		<g>
			<text transform="matrix(1 0 0 1 -725.1636 -205.2442)" font-family="'HelveticaNeue'" font-size="16.7037">A</text>
			<text transform="matrix(1 0 0 1 -714.2789 -205.2442)" font-family="'HelveticaNeue'" font-size="16.7037">w</text>
			<text transform="matrix(1 0 0 1 -701.6138 -205.2442)" font-family="'HelveticaNeue'" font-size="16.7037">d</text>
			<text transform="matrix(1 0 0 1 -691.8199 -205.2442)" font-family="'HelveticaNeue'" font-size="16.7037">al</text>
		</g>
		<g>
			<text transform="matrix(1 0 0 1 -692.1451 531.8329)" font-family="'HelveticaNeue'" font-size="16.7037">Lower S</text>
			<text transform="matrix(1 0 0 1 -630.605 531.8329)" font-family="'HelveticaNeue'" font-size="16.7037">h</text>
			<text transform="matrix(1 0 0 1 -621.4039 531.8329)" font-family="'HelveticaNeue'" font-size="16.7037">abel</text>
			<text transform="matrix(1 0 0 1 -589.8414 531.8329)" font-family="'HelveticaNeue'" font-size="16.7037">l</text>
			<text transform="matrix(1 0 0 1 -586.0836 531.8329)" font-family="'HelveticaNeue'" font-size="16.7037">e</text>
		</g>
		<g>
			<text transform="matrix(1 0 0 1 -572.0396 322.0116)" font-family="'HelveticaNeue'" font-size="16.7037">Hir</text>
			<text transform="matrix(1 0 0 1 -550.6675 322.0116)" font-family="'HelveticaNeue'" font-size="16.7037">a</text>
			<text transform="matrix(1 0 0 1 -541.6636 322.0116)" font-family="'HelveticaNeue'" font-size="16.7037">an</text>
		</g>
		<g>
			<text transform="matrix(1 0 0 1 -810.9547 363.331)" font-family="'HelveticaNeue'" font-size="16.7037">Gedo</text>
		</g>
		<g>
			<text transform="matrix(1 0 0 1 -574.1578 -73.2052)" font-family="'HelveticaNeue'" font-size="16.7037">T</text>
			<text transform="matrix(1 0 0 1 -564.5601 -73.2052)" font-family="'HelveticaNeue'" font-size="16.7037">o</text>
			<text transform="matrix(1 0 0 1 -554.9605 -73.2052)" font-family="'HelveticaNeue'" font-size="16.7037">g</text>
			<text transform="matrix(1 0 0 1 -545.3629 -73.2052)" font-family="'HelveticaNeue'" font-size="16.7037">dh</text>
			<text transform="matrix(1 0 0 1 -526.1705 -73.2052)" font-family="'HelveticaNeue'" font-size="16.7037">eer</text>
		</g>
		<path fill="none" stroke="#808080" stroke-width="0.48" stroke-miterlimit="8" d="M-702.8,282.1"/>
		<g>
			<text transform="matrix(1 0 0 1 -717.5142 285.5468)" font-family="'HelveticaNeue'" font-size="16.7037">B</text>
			<text transform="matrix(1 0 0 1 -706.0367 285.5468)" font-family="'HelveticaNeue'" font-size="16.7037">a</text>
			<text transform="matrix(1 0 0 1 -697.0328 285.5468)" font-family="'HelveticaNeue'" font-size="16.7037">k</text>
			<text transform="matrix(1 0 0 1 -688.3267 285.5468)" font-family="'HelveticaNeue'" font-size="16.7037">o</text>
			<text transform="matrix(1 0 0 1 -678.73 285.5468)" font-family="'HelveticaNeue'" font-size="16.7037">o</text>
			<text transform="matrix(1 0 0 1 -669.1324 285.5468)" font-family="'HelveticaNeue'" font-size="16.7037">l</text>
		</g>
		<g>
			<text transform="matrix(1 0 0 1 -548.0914 388.4901)" font-family="'HelveticaNeue'" font-size="16.7037">Mid</text>
			<text transform="matrix(1 0 0 1 -519.8912 388.4901)" font-family="'HelveticaNeue'" font-size="16.7037">d</text>
			<text transform="matrix(1 0 0 1 -510.0953 388.4901)" font-family="'HelveticaNeue'" font-size="16.7037">le </text>
		</g>
		<g>
			<text transform="matrix(1 0 0 1 -541.4742 460.37)" font-family="'HelveticaNeue'" font-size="16.7037">B</text>
			<text transform="matrix(1 0 0 1 -529.9957 460.37)" font-family="'HelveticaNeue'" font-size="16.7037">a</text>
			<text transform="matrix(1 0 0 1 -520.9947 460.37)" font-family="'HelveticaNeue'" font-size="16.7037">n</text>
			<text transform="matrix(1 0 0 1 -511.6949 460.37)" font-family="'HelveticaNeue'" font-size="16.7037">adir</text>
		</g>
	</g>
	<path opacity="0.25" fill="none" stroke="#808080" stroke-width="5" stroke-miterlimit="8" d="M-524.1-66.8"/>
</g>
</svg>
