<?xml version="1.0" encoding="utf-8"?>
<!-- Generator: Adobe Illustrator 21.1.0, SVG Export Plug-In . SVG Version: 6.00 Build 0)  -->
<svg version="1.1" id="Layer_1" xmlns="http://www.w3.org/2000/svg" xmlns:xlink="http://www.w3.org/1999/xlink" x="0px" y="0px"
	 viewBox="0 0 164 202.5" style="enable-background:new 0 0 164 202.5;" xml:space="preserve">
<g>
	<g transform="translate(-5634.000000, -7113.000000)">
		<g transform="translate(5634.000000, 7113.000000)">
			<path d="M163.8,3.4c0-1.7-1.4-3-3-3H3.3c-1.6,0-3,1.3-3,3v7.4c0,1.6,1.4,3,3,3h157.5c1.6,0,3-1.4,3-3V3.4z"/>
			<path d="M163.8,32.6c0-1.6-1.4-3-3-3H3.3c-1.6,0-3,1.4-3,3V40c0,1.7,1.4,3,3,3h157.5c1.6,0,3-1.3,3-3V32.6z"/>
			<path d="M163.8,62.9c0-1.6-1.4-3-3-3H3.3c-1.6,0-3,1.4-3,3v7.4c0,1.6,1.4,3,3,3h157.5c1.6,0,3-1.4,3-3V62.9z"/>
			<path d="M163.8,92.1c0-1.7-1.4-3-3-3H3.3c-1.6,0-3,1.3-3,3v7.4c0,1.6,1.4,3,3,3h157.5c1.6,0,3-1.4,3-3V92.1z"/>
			<path d="M163.8,121.6c0-1.7-1.4-3-3-3H3.3c-1.6,0-3,1.3-3,3v7.4c0,1.7,1.4,3,3,3h157.5c1.6,0,3-1.3,3-3V121.6z"/>
			<path d="M125.2,150.9c0-1.6-1.3-3-3-3H45.1c-1.7,0-3,1.4-3,3v7.4c0,1.7,1.3,3,3,3h77.1c1.7,0,3-1.3,3-3V150.9z"/>
		</g>
	</g>
</g>
</svg>
