<?xml version="1.0" encoding="utf-8"?>
<!-- Generator: Adobe Illustrator 22.0.1, SVG Export Plug-In . SVG Version: 6.00 Build 0)  -->
<svg version="1.1" id="Layer_1" xmlns="http://www.w3.org/2000/svg" xmlns:xlink="http://www.w3.org/1999/xlink" x="0px" y="0px"
	 viewBox="0 0 57.1 61.9" style="enable-background:new 0 0 57.1 61.9;" xml:space="preserve">
<style type="text/css">
	.st0{fill:#000E4A;}
</style>
<path class="st0" d="M48.4,44.9L43,49.5l0.3,3L41,54.3v1l-5.7,5.9l-5.1,0.8l-1.2-2.5l-2.2-3.7l-0.7-4l-2.3-3.9l1.4-5
	c0,0-0.2-3.2-0.3-3.5c-0.1-0.3-3.8-6.4-3.8-6.4l0.9-3.4l-3-1.2l-1.9-1.9c0,0-4.8,1.3-5,1.4C12,27.8,7.3,28,7.3,28l-3.2-2.3L0,18.6
	l1.1-2.9l1.7-6.1l4.5-3.9l4.1-5c0,0,3,0.5,3.1,0.4C14.8,1,21.3,0,21.3,0l1.2,2.6l7.8,3.2l1.6-2.1L37,5.1L39,4.5l2.4,0l0.6,1.1
	l-0.1,2.1l-1.5-1.5l4.4,9l1.4,0.6l1.1,2.1l2.4,1.8l2.1,2.8l5.6-1.6c0,0-1.9,6.2-2.1,6.4C55,27.5,50,32.6,50,32.6l-2.8,4.4L48.4,44.9
	z M54.2,44.8l-2.7,1.4l-0.5,3l-1.3,2.1l0.5,2.8l2.2-0.1l4.1-8.4l-0.7-2.9L54.2,44.8z"/>
</svg>
