<?xml version="1.0" encoding="UTF-8" standalone="no"?>
<svg
   xmlns:dc="http://purl.org/dc/elements/1.1/"
   xmlns:cc="http://creativecommons.org/ns#"
   xmlns:rdf="http://www.w3.org/1999/02/22-rdf-syntax-ns#"
   xmlns:svg="http://www.w3.org/2000/svg"
   xmlns="http://www.w3.org/2000/svg"
   xmlns:sodipodi="http://sodipodi.sourceforge.net/DTD/sodipodi-0.dtd"
   xmlns:inkscape="http://www.inkscape.org/namespaces/inkscape"
   viewBox="0 0 282.44357 67.86425"
   height="67.86425"
   width="282.44357"
   xml:space="preserve"
   version="1.1"
   id="svg2"
   inkscape:version="0.91 r13725"
   sodipodi:docname="UNHCR-visibility-horizontal-Blue-PMS-v2015.svg"
   style="shape-rendering:crispEdges"><sodipodi:namedview
     pagecolor="#ffffff"
     bordercolor="#666666"
     borderopacity="1"
     objecttolerance="10"
     gridtolerance="10"
     guidetolerance="10"
     inkscape:pageopacity="0"
     inkscape:pageshadow="2"
     inkscape:window-width="1920"
     inkscape:window-height="1005"
     id="namedview53"
     showgrid="false"
     showborder="false"
     inkscape:zoom="0.94785406"
     inkscape:cx="151.77496"
     inkscape:cy="33.931625"
     inkscape:window-x="-9"
     inkscape:window-y="-9"
     inkscape:window-maximized="1"
     inkscape:current-layer="svg2"
     fit-margin-top="0"
     fit-margin-left="0"
     fit-margin-right="0"
     fit-margin-bottom="0" /><metadata
     id="metadata8"><rdf:RDF><cc:Work
         rdf:about=""><dc:format>image/svg+xml</dc:format><dc:type
           rdf:resource="http://purl.org/dc/dcmitype/StillImage" /><dc:title></dc:title></cc:Work></rdf:RDF></metadata><defs
     id="defs6"><clipPath
       id="clipPath18"
       clipPathUnits="userSpaceOnUse"><path
         id="path20"
         d="m 0,0 2861,0 0,1144.51 -2861,0 L 0,0 Z"
         inkscape:connector-curvature="0" /></clipPath></defs><g
     transform="matrix(1.25,0,0,-1.25,-37.600186,105.46388)"
     id="g10"><g
       transform="scale(0.1,0.1)"
       id="g12"><g
         id="g14"><g
           clip-path="url(#clipPath18)"
           id="g16"><path
             id="path22"
             style="fill:#1d5fad;fill-opacity:1;fill-rule:nonzero;stroke:none"
             d="m 631.094,476.383 c 6.398,0 5.566,3.633 5.566,10.422 l 0,33.019 c 0,6.821 -0.617,8.981 3.262,8.981 13.57,0 17.281,1.258 17.281,13.34 l 0,122.691 c 0,33.418 -23.59,27.879 -30.223,40.09 -9.457,16.508 17.653,16.508 7.793,52.269 -2.5,8.118 -8.851,13.118 -21.089,13.118 -12.262,0 -18.633,-5 -21.114,-13.118 -9.828,-35.761 17.313,-35.761 7.852,-52.269 -6.68,-12.211 -30.231,-6.672 -30.231,-40.09 l 0,-122.691 c 0,-12.082 3.653,-13.34 17.282,-13.34 3.808,0 3.218,-2.16 3.218,-8.981 l 0,-33.019 c 0,-6.789 -0.82,-10.422 5.61,-10.422 l 34.793,0"
             inkscape:connector-curvature="0" /><path
             id="path24"
             style="fill:#1d5fad;fill-opacity:1;fill-rule:nonzero;stroke:none"
             d="m 523.691,742.5 c -12.07,-12.84 -31.132,-42.82 -18.679,-67.711 25.297,-9.738 23.359,80.172 54.91,78.633 C 575.5,739 555.25,696.57 548.988,677.922 541.211,654.891 535,606.66 520.199,583.328 507.781,563.84 517.09,502.719 513.18,481.699 c -10.469,-10.5 -38.918,-3.078 -50.981,-1.121 0,24.113 -3.148,43.172 -7,81.723 -0.379,7.769 -8.57,126.879 -1.949,141.289 13.629,29.988 87.961,87.18 98.129,98.101 8.902,9.719 40.43,42.02 52.512,42.02 8.531,-5.852 3.488,-19.461 1.57,-24.91 -12.07,-29.981 -64.25,-59.551 -81.77,-76.301"
             inkscape:connector-curvature="0" /><path
             id="path26"
             style="fill:#1d5fad;fill-opacity:1;fill-rule:nonzero;stroke:none"
             d="m 705.078,742.5 c 11.649,-12.84 30.762,-42.82 18.66,-67.711 -25.679,-9.738 -23.711,80.172 -55.281,78.633 -15.141,-14.422 5.07,-56.852 11.313,-75.5 7.789,-23.031 14.027,-71.262 28.769,-94.594 12.109,-19.488 3.109,-80.609 6.617,-101.629 10.934,-10.5 38.934,-3.078 51.391,-1.121 0,24.113 2.742,43.172 6.621,81.723 0.77,7.769 8.949,126.879 2.34,141.289 -13.61,29.988 -87.949,87.18 -98.07,98.101 -9.321,9.719 -40.5,42.02 -52.579,42.02 -8.902,-5.852 -3.472,-19.461 -1.531,-24.91 12.078,-29.981 64.231,-59.551 81.75,-76.301"
             inkscape:connector-curvature="0" /><path
             id="path28"
             style="fill:#1d5fad;fill-opacity:1;fill-rule:nonzero;stroke:none"
             d="m 415.57,782.867 c -6.617,-6.258 -21.476,-10.527 -31.597,-24.129 -3.891,7.371 6.23,25.289 18.328,35.821 8.953,7.449 26.531,19.519 31.551,20.671 3.921,-8.96 -10.098,-22.632 -18.282,-32.363"
             inkscape:connector-curvature="0" /><path
             id="path30"
             style="fill:#1d5fad;fill-opacity:1;fill-rule:nonzero;stroke:none"
             d="m 394.887,734.102 c -11.282,-10.481 -23.36,-14.801 -39,-33.93 -6.621,23.039 -5.051,43.316 -1.961,56.976 5.492,17.911 14.441,37.832 29.679,44.051 -3.128,-10.148 -8.238,-24.168 -9.386,-43.301 -6.602,-26.136 -10.543,-26.91 -8.961,-30.418 1.527,0 10.109,13.661 20.66,24.18 12.5,12.461 28.059,15.219 38.199,22.61 -1.519,-5.051 -10.48,-21.032 -29.23,-40.168"
             inkscape:connector-curvature="0" /><path
             id="path32"
             style="fill:#1d5fad;fill-opacity:1;fill-rule:nonzero;stroke:none"
             d="m 339.934,626.074 c -15.219,27.313 -16.789,47.203 -17.981,70.242 0.801,15.961 8.602,53 20.293,58.45 -3.512,-33.508 5.5,-36.629 1.949,-64.321 0,-1.55 -3.922,-30.429 -3.922,-31.98 4.692,0.769 0.422,26.543 53.813,63.57 -11.641,-20.277 -6.231,-26.519 -27.301,-53.449 -24.539,-24.18 -28.051,-47.93 -26.851,-42.512"
             inkscape:connector-curvature="0" /><path
             id="path34"
             style="fill:#1d5fad;fill-opacity:1;fill-rule:nonzero;stroke:none"
             d="m 361.379,600.316 c -11.344,-16.371 -9.391,-24.55 -12.113,-32.328 -26.95,15.578 -57.328,77.571 -46.047,108.391 7.047,-23.383 16.777,-28.453 23.808,-47.961 12.102,-29.25 10.18,-38.199 17.942,-44.852 -1.571,15.211 3.5,33.161 8.617,46.422 7.41,11.309 13.199,26.129 18.711,31.207 5.832,-21.488 1.531,-39.019 -10.918,-60.879"
             inkscape:connector-curvature="0" /><path
             id="path36"
             style="fill:#1d5fad;fill-opacity:1;fill-rule:nonzero;stroke:none"
             d="m 385.555,547.285 c 0,-23.777 -4.321,-34.32 -6.262,-51.847 -46.422,15.187 -70.609,68.23 -70.609,94.359 14.07,-31.973 34.718,-31.57 61.679,-76.832 2.321,17.18 -4.718,4.312 -5.48,36.66 0.762,33.941 7.801,35.133 8.941,56.16 8.617,-9.34 11.731,-46.808 11.731,-58.5"
             inkscape:connector-curvature="0" /><path
             id="path38"
             style="fill:#1d5fad;fill-opacity:1;fill-rule:nonzero;stroke:none"
             d="m 424.121,479.848 c 3.539,-17.551 5.07,-38.239 7.832,-53.461 -26.5,9.75 -33.18,2.351 -64.73,22.25 -14.461,7.812 -40.192,40.543 -38.582,63.98 31.172,-34.73 36.621,-30.847 51.839,-43.687 14.032,-11.332 25.321,-28.102 35.512,-25.782 0.738,9.372 -23.031,29.668 -19.929,88.149 6.238,-6.598 23.39,-33.117 28.058,-51.449"
             inkscape:connector-curvature="0" /><path
             id="path40"
             style="fill:#1d5fad;fill-opacity:1;fill-rule:nonzero;stroke:none"
             d="m 476.789,436.137 c 8.18,-11.68 6.258,-16.75 27.328,-40.918 -5.121,-2.34 -35.097,-10.153 -55.051,-10.953 -13.199,0 -60.019,12.492 -75.597,44.472 26.89,-14.422 27.301,-10.922 63.148,-18.722 25.762,-5.848 44.082,-14.028 51.11,-13.258 -1.559,3.5 -21.418,11.711 -35.09,28.859 -13.68,18.328 -10.547,39 -22.668,54.231 8.219,2.34 40.187,-35.129 46.82,-43.711"
             inkscape:connector-curvature="0" /><path
             id="path42"
             style="fill:#1d5fad;fill-opacity:1;fill-rule:nonzero;stroke:none"
             d="m 811.004,782.867 c 6.242,-6.258 21.461,-10.527 31.211,-24.129 4.281,7.371 -6.211,25.289 -18.328,35.821 -8.524,7.449 -26.121,19.519 -31.621,20.671 -3.879,-8.96 10.148,-22.632 18.738,-32.363"
             inkscape:connector-curvature="0" /><path
             id="path44"
             style="fill:#1d5fad;fill-opacity:1;fill-rule:nonzero;stroke:none"
             d="m 831.691,734.102 c 10.918,-10.481 23.028,-14.801 38.579,-33.93 6.66,23.039 5.082,43.316 2.019,56.976 -5.07,17.911 -14.461,37.832 -29.68,44.051 3.539,-10.148 8.2,-24.168 9.371,-43.301 6.622,-26.136 10.532,-26.91 8.969,-30.418 -1.551,0 -10.14,13.661 -20.699,24.18 -12.051,12.461 -27.699,15.219 -38.191,22.61 1.57,-5.051 10.921,-21.032 29.632,-40.168"
             inkscape:connector-curvature="0" /><path
             id="path46"
             style="fill:#1d5fad;fill-opacity:1;fill-rule:nonzero;stroke:none"
             d="m 886.305,626.074 c 15.597,27.313 16.718,47.203 17.949,70.242 -0.82,15.961 -8.621,53 -19.91,58.45 3.109,-33.508 -5.86,-36.629 -1.961,-64.321 0,-1.55 3.531,-30.429 3.531,-31.98 -4.301,0.769 -0.422,26.543 -53.449,63.57 11.328,-20.277 5.84,-26.519 26.93,-53.449 24.949,-24.18 28.058,-47.93 26.91,-42.512"
             inkscape:connector-curvature="0" /><path
             id="path48"
             style="fill:#1d5fad;fill-opacity:1;fill-rule:nonzero;stroke:none"
             d="m 865.199,600.316 c 10.973,-16.371 9,-24.55 11.731,-32.328 26.929,15.578 57.711,77.571 46.011,108.391 -6.632,-23.383 -16.761,-28.453 -23.382,-47.961 -12.481,-29.25 -10.559,-38.199 -17.95,-44.852 1.539,15.211 -3.91,33.161 -8.98,46.422 -7.008,11.309 -13.231,26.129 -18.731,31.207 -5.449,-21.488 -1.57,-39.019 11.301,-60.879"
             inkscape:connector-curvature="0" /><path
             id="path50"
             style="fill:#1d5fad;fill-opacity:1;fill-rule:nonzero;stroke:none"
             d="m 840.66,547.285 c 0,-23.777 4.641,-34.32 6.629,-51.847 46.051,15.187 70.602,68.23 70.602,94.359 -14.461,-31.973 -34.743,-31.57 -62.012,-76.832 -2.348,17.18 4.641,4.312 5.441,36.66 -0.8,33.941 -7.789,35.133 -8.992,56.16 -8.527,-9.34 -11.668,-46.808 -11.668,-58.5"
             inkscape:connector-curvature="0" /><path
             id="path52"
             style="fill:#1d5fad;fill-opacity:1;fill-rule:nonzero;stroke:none"
             d="m 802.063,479.848 c -3.532,-17.551 -4.692,-38.239 -7.411,-53.461 26.129,9.75 32.762,2.351 64.321,22.25 14.441,7.812 40.59,40.543 39.019,63.98 -31.211,-34.73 -37.039,-30.847 -51.84,-43.687 -14.07,-11.332 -25.769,-28.102 -35.929,-25.782 -0.77,9.372 23.011,29.668 20.3,88.149 -6.64,-6.598 -23.808,-33.117 -28.46,-51.449"
             inkscape:connector-curvature="0" /><path
             id="path54"
             style="fill:#1d5fad;fill-opacity:1;fill-rule:nonzero;stroke:none"
             d="m 749.383,436.137 c -7.82,-11.68 -5.879,-16.75 -27.289,-40.918 5.441,-2.34 35.101,-10.153 55.39,-10.953 12.86,0 59.668,12.492 75.231,44.472 -26.852,-14.422 -27.289,-10.922 -63.141,-18.722 -25.761,-5.848 -43.691,-14.028 -51.07,-13.258 1.531,3.5 21.781,11.711 35.101,28.859 13.618,18.328 10.508,39 22.969,54.231 -8.539,2.34 -40.519,-35.129 -47.191,-43.711"
             inkscape:connector-curvature="0" /><path
             id="path56"
             style="fill:#1d5fad;fill-opacity:1;fill-rule:nonzero;stroke:none"
             d="m 546.605,326.18 -7.808,3.898 c 0,0 49.59,60.449 134.558,55.762 85.024,-4.68 79.18,-24.59 124.782,-21.442 5.082,0.379 -3.879,-6.269 -3.879,-6.269 0,0 -44.473,-17.109 -99.461,1.59 -54.609,18.711 -90.109,30.039 -148.192,-33.539"
             inkscape:connector-curvature="0" /><path
             id="path58"
             style="fill:#1d5fad;fill-opacity:1;fill-rule:nonzero;stroke:none"
             d="m 681.121,326.18 7.859,3.898 c 0,0 -49.16,60.449 -134.171,55.762 -85.411,-4.68 -79.559,-24.59 -125.18,-21.442 -5.078,0.379 3.883,-6.269 3.883,-6.269 0,0 44.429,-17.109 99.449,1.59 54.961,18.711 90.48,30.039 148.16,-33.539"
             inkscape:connector-curvature="0" /><path
             id="path60"
             style="fill:#1d5fad;fill-opacity:1;fill-rule:nonzero;stroke:none"
             d="m 1283.86,589.172 c 0,-81.481 -44.01,-120.582 -133.71,-120.582 -89.74,0 -134.18,39.101 -134.18,120.582 l 0,180.219 90.53,0 0,-160.063 c 0,-30.019 0,-67.5 44.04,-67.5 42.8,0 42.8,37.481 42.8,67.5 l 0,160.063 90.52,0 0,-180.219"
             inkscape:connector-curvature="0" /><path
             id="path62"
             style="fill:#1d5fad;fill-opacity:1;fill-rule:nonzero;stroke:none"
             d="m 1338.18,769.395 92.57,0 85.6,-157.168 0.81,0 0,157.168 85.59,0 0,-293.782 -88.05,0 -90.11,160.461 -0.83,0 0,-160.461 -85.58,0 0,293.782"
             inkscape:connector-curvature="0" /><path
             id="path64"
             style="fill:#1d5fad;fill-opacity:1;fill-rule:nonzero;stroke:none"
             d="m 1658.32,769.395 90.53,0 0,-102.04 84.78,0 0,102.04 90.52,0 0,-293.782 -90.52,0 0,116.442 -84.78,0 0,-116.442 -90.53,0 0,293.782"
             inkscape:connector-curvature="0" /><path
             id="path66"
             style="fill:#1d5fad;fill-opacity:1;fill-rule:nonzero;stroke:none"
             d="m 2155.82,659.938 c -1.65,10.71 -9.88,43.199 -47.35,43.199 -42.38,0 -55.94,-41.121 -55.94,-80.629 0,-39.492 13.56,-80.672 55.94,-80.672 30.48,0 42.41,21.41 47.77,48.973 l 88.87,0 c 0,-59.243 -48.15,-122.211 -134.15,-122.211 -95.05,0 -148.97,67.078 -148.97,153.91 0,92.59 58.45,153.879 148.97,153.879 80.64,-0.391 125.11,-42.789 132.9,-116.449 l -88.04,0"
             inkscape:connector-curvature="0" /><path
             id="path68"
             style="fill:#1d5fad;fill-opacity:1;fill-rule:nonzero;stroke:none"
             d="m 2282.95,475.613 90.53,0 0,102.442 48.19,0 c 35.77,0 38.23,-29.223 40.71,-57.211 1.21,-15.219 2.86,-30.442 7.41,-45.231 l 90.54,0 c -8.26,13.571 -8.64,48.532 -9.9,62.93 -3.29,36.629 -18.5,63.789 -43.21,73.262 30.05,11.117 44.05,43.199 44.05,73.648 0,55.57 -44.48,83.942 -95.89,83.942 l -172.43,0 0,-293.782 m 90.53,223.852 42.4,0 c 34.58,0 44.86,-10.703 44.86,-29.242 0,-26.301 -23.07,-29.211 -39.92,-29.211 l -47.34,0 0,58.453"
             inkscape:connector-curvature="0" /><path
             id="path70"
             style="fill:#1d5fad;fill-opacity:1;fill-rule:nonzero;stroke:none"
             d="m 1045.43,408.066 -29.51,0 0,18.211 80.66,0 0,-18.211 -29.51,0 0,-80.242 -21.64,0 0,80.242"
             inkscape:connector-curvature="0" /><path
             id="path72"
             style="fill:#1d5fad;fill-opacity:1;fill-rule:nonzero;stroke:none"
             d="m 1103.33,426.277 19.59,0 0,-37.089 0.39,0 c 4.99,8 13.53,11.847 20.84,11.847 20.81,0 26.06,-11.719 26.06,-29.359 l 0,-43.852 -19.6,0 0,40.274 c 0,11.718 -3.42,17.507 -12.52,17.507 -10.62,0 -15.17,-5.929 -15.17,-20.41 l 0,-37.371 -19.59,0 0,98.453"
             inkscape:connector-curvature="0" /><path
             id="path74"
             style="fill:#1d5fad;fill-opacity:1;fill-rule:nonzero;stroke:none"
             d="m 1230.03,371.125 c -1.79,9.93 -6.07,15.16 -15.58,15.16 -12.4,0 -16,-9.66 -16.26,-15.16 l 31.84,0 m -31.84,-12.398 c 0.55,-12.422 6.61,-18.059 17.5,-18.059 7.88,0 14.2,4.809 15.44,9.238 l 17.24,0 c -5.52,-16.84 -17.24,-24.011 -33.37,-24.011 -22.45,0 -36.4,15.453 -36.4,37.511 0,21.371 14.77,37.629 36.4,37.629 24.27,0 35.99,-20.39 34.63,-42.308 l -51.44,0"
             inkscape:connector-curvature="0" /><path
             id="path76"
             style="fill:#1d5fad;fill-opacity:1;fill-rule:nonzero;stroke:none"
             d="m 1376.75,365.047 c 0,-26.609 -15.72,-39.547 -42.05,-39.547 -26.47,0 -41.92,12.809 -41.92,39.547 l 0,61.23 21.65,0 0,-61.23 c 0,-10.75 2.76,-21.359 20.27,-21.359 15.44,0 20.4,6.761 20.4,21.359 l 0,61.23 21.65,0 0,-61.23"
             inkscape:connector-curvature="0" /><path
             id="path78"
             style="fill:#1d5fad;fill-opacity:1;fill-rule:nonzero;stroke:none"
             d="m 1391.23,426.277 21.51,0 41.09,-66.05 0.27,0 0,66.05 20.27,0 0,-98.453 -21.65,0 -40.95,65.903 -0.28,0 0,-65.903 -20.26,0 0,98.453"
             inkscape:connector-curvature="0" /><path
             id="path80"
             style="fill:#1d5fad;fill-opacity:1;fill-rule:nonzero;stroke:none"
             d="m 1521.53,327.82 21.65,0 0,38.493 21.64,0 c 10.89,0 14.9,-4.559 16.41,-14.891 1.1,-7.871 0.83,-17.391 3.45,-23.602 l 21.65,0 c -3.86,5.543 -3.73,17.121 -4.14,23.313 -0.69,9.93 -3.71,20.258 -14.34,23.019 l 0,0.282 c 10.89,4.41 15.58,13.109 15.58,24.679 0,14.879 -11.16,27.16 -28.82,27.16 l -53.08,0 0,-98.453 m 21.65,81.633 23.71,0 c 9.64,0 14.89,-4.152 14.89,-13.652 0,-9.93 -5.25,-14.059 -14.89,-14.059 l -23.71,0 0,27.711"
             inkscape:connector-curvature="0" /><path
             id="path82"
             style="fill:#1d5fad;fill-opacity:1;fill-rule:nonzero;stroke:none"
             d="m 1684.08,358.727 c 1.39,21.921 -10.34,42.308 -34.6,42.308 -21.65,0 -36.4,-16.258 -36.4,-37.629 0,-22.058 13.93,-37.519 36.4,-37.519 16.14,0 27.84,7.179 33.37,24.019 l -17.23,0 c -1.26,-4.429 -7.6,-9.238 -15.44,-9.238 -10.89,0 -16.97,5.641 -17.52,18.059 l 51.42,0 m -51.42,12.402 c 0.28,5.5 3.85,15.156 16.27,15.156 9.51,0 13.79,-5.226 15.59,-15.156 l -31.86,0"
             inkscape:connector-curvature="0" /><path
             id="path84"
             style="fill:#1d5fad;fill-opacity:1;fill-rule:nonzero;stroke:none"
             d="m 1696.99,386.027 -11.73,0 0,13.09 11.73,0 0,5.512 c 0,12.547 7.85,21.648 23.84,21.648 3.45,0 7.04,-0.422 10.33,-0.558 l 0,-14.621 c -2.32,0.281 -4.67,0.429 -7.17,0.429 -5.22,0 -7.43,-2.211 -7.43,-8.14 l 0,-4.27 13.51,0 0,-13.09 -13.51,0 0,-58.199 -19.57,0 0,58.199"
             inkscape:connector-curvature="0" /><path
             id="path86"
             style="fill:#1d5fad;fill-opacity:1;fill-rule:nonzero;stroke:none"
             d="m 1803.02,327.82 -18.62,0 0,9.942 -0.42,0 c -4.97,-7.989 -13.51,-11.871 -21.78,-11.871 -20.81,0 -26.06,11.742 -26.06,29.382 l 0,43.84 19.58,0 0,-40.25 c 0,-11.73 3.44,-17.519 12.55,-17.519 10.61,0 15.16,5.929 15.16,20.41 l 0,37.359 19.59,0 0,-71.293"
             inkscape:connector-curvature="0" /><path
             id="path88"
             style="fill:#1d5fad;fill-opacity:1;fill-rule:nonzero;stroke:none"
             d="m 1883.38,399.117 -18.62,0 0,-9.519 -0.26,0 c -4.69,8.277 -11.85,11.437 -21.25,11.437 -19.98,0 -30.6,-16.808 -30.6,-35.277 0,-19.582 9.1,-35.863 30.48,-35.863 8.54,0 17.1,3.601 21.37,11.031 l 0.26,0 0,-9.379 c 0.15,-10.199 -4.82,-17.641 -15.7,-17.641 -6.89,0 -12.82,2.489 -14.63,9.789 l -19.43,0 c 0.95,-16.257 17.36,-22.898 31.44,-22.898 32.81,0 36.94,19.871 36.94,31.59 l 0,66.73 m -35.3,-54.461 c -11.99,0 -15.84,11.16 -15.84,21.36 0,10.609 4.81,20.269 15.84,20.269 12.69,0 16.68,-10.328 16.68,-21.91 0,-10.207 -5.5,-19.719 -16.68,-19.719"
             inkscape:connector-curvature="0" /><path
             id="path90"
             style="fill:#1d5fad;fill-opacity:1;fill-rule:nonzero;stroke:none"
             d="m 1964.19,358.727 c 1.37,21.921 -10.35,42.308 -34.62,42.308 -21.64,0 -36.4,-16.258 -36.4,-37.629 0,-22.058 13.94,-37.519 36.4,-37.519 16.14,0 27.86,7.179 33.37,24.019 l -17.23,0 c -1.26,-4.429 -7.59,-9.238 -15.45,-9.238 -10.89,0 -16.96,5.641 -17.5,18.059 l 51.43,0 m -51.43,12.402 c 0.26,5.5 3.85,15.156 16.26,15.156 9.52,0 13.79,-5.226 15.58,-15.156 l -31.84,0"
             inkscape:connector-curvature="0" /><path
             id="path92"
             style="fill:#1d5fad;fill-opacity:1;fill-rule:nonzero;stroke:none"
             d="m 2040.83,358.727 c 1.38,21.921 -10.34,42.308 -34.6,42.308 -21.65,0 -36.4,-16.258 -36.4,-37.629 0,-22.058 13.92,-37.519 36.4,-37.519 16.13,0 27.84,7.179 33.38,24.019 l -17.25,0 c -1.24,-4.429 -7.59,-9.238 -15.45,-9.238 -10.89,0 -16.95,5.641 -17.5,18.059 l 51.42,0 m -51.42,12.402 c 0.28,5.5 3.85,15.156 16.27,15.156 9.51,0 13.8,-5.226 15.57,-15.156 l -31.84,0"
             inkscape:connector-curvature="0" /><path
             id="path94"
             style="fill:#1d5fad;fill-opacity:1;fill-rule:nonzero;stroke:none"
             d="m 2082.33,327.82 21.91,0 7.74,21.934 36.8,0 7.45,-21.934 22.49,0 -36.83,98.453 -22.19,0 -37.37,-98.453 z m 48.12,74.192 0.27,0 12.41,-36.129 -25.5,0 12.82,36.129"
             inkscape:connector-curvature="0" /><path
             id="path96"
             style="fill:#1d5fad;fill-opacity:1;fill-rule:nonzero;stroke:none"
             d="m 2250.68,399.117 -18.6,0 0,-9.519 -0.29,0 c -4.69,8.277 -11.86,11.437 -21.23,11.437 -20,0 -30.62,-16.808 -30.62,-35.277 0,-19.582 9.11,-35.863 30.47,-35.863 8.55,0 17.12,3.601 21.38,11.031 l 0.29,0 0,-9.379 c 0.12,-10.199 -4.84,-17.641 -15.73,-17.641 -6.89,0 -12.82,2.489 -14.62,9.789 l -19.45,0 c 0.98,-16.257 17.4,-22.898 31.45,-22.898 32.8,0 36.95,19.871 36.95,31.59 l 0,66.73 m -35.3,-54.461 c -11.99,0 -15.86,11.16 -15.86,21.36 0,10.609 4.83,20.269 15.86,20.269 12.69,0 16.7,-10.328 16.7,-21.91 0,-10.207 -5.54,-19.719 -16.7,-19.719"
             inkscape:connector-curvature="0" /><path
             id="path98"
             style="fill:#1d5fad;fill-opacity:1;fill-rule:nonzero;stroke:none"
             d="m 2331.47,358.727 c 1.37,21.921 -10.33,42.308 -34.6,42.308 -21.66,0 -36.4,-16.258 -36.4,-37.629 0,-22.058 13.91,-37.519 36.4,-37.519 16.13,0 27.85,7.179 33.35,24.019 l -17.22,0 c -1.25,-4.429 -7.59,-9.238 -15.45,-9.238 -10.88,0 -16.96,5.641 -17.51,18.059 l 51.43,0 m -51.43,12.402 c 0.26,5.5 3.87,15.156 16.27,15.156 9.51,0 13.8,-5.226 15.58,-15.156 l -31.85,0"
             inkscape:connector-curvature="0" /><path
             id="path100"
             style="fill:#1d5fad;fill-opacity:1;fill-rule:nonzero;stroke:none"
             d="m 2340.01,399.117 18.61,0 0,-9.929 0.43,0 c 4.96,8 13.51,11.847 21.77,11.847 20.81,0 26.06,-11.719 26.06,-29.359 l 0,-43.852 -19.59,0 0,40.274 c 0,11.718 -3.43,17.507 -12.53,17.507 -10.62,0 -15.17,-5.929 -15.17,-20.41 l 0,-37.371 -19.58,0 0,71.293"
             inkscape:connector-curvature="0" /><path
             id="path102"
             style="fill:#1d5fad;fill-opacity:1;fill-rule:nonzero;stroke:none"
             d="m 2467.26,374.012 c -1.23,8 -6.34,12.269 -14.47,12.269 -12.54,0 -16.68,-12.668 -16.68,-23.148 0,-10.211 4,-22.473 16.26,-22.473 9.1,0 14.34,5.781 15.58,14.481 l 18.9,0 c -2.48,-18.899 -15.59,-29.25 -34.33,-29.25 -21.51,0 -35.99,15.179 -35.99,36.543 0,22.187 13.23,38.597 36.4,38.597 16.82,0 32.27,-8.82 33.5,-27.019 l -19.17,0"
             inkscape:connector-curvature="0" /><path
             id="path104"
             style="fill:#1d5fad;fill-opacity:1;fill-rule:nonzero;stroke:none"
             d="m 2530.56,318.879 c -4.28,-11.441 -11.04,-16.141 -24.55,-16.141 -4,0 -7.99,0.27 -12,0.68 l 0,16.141 c 3.73,-0.282 7.58,-0.84 11.45,-0.68 6.74,0.68 8.97,7.711 6.74,13.371 l -25.07,66.867 20.96,0 16.13,-48.808 0.28,0 15.57,48.808 20.28,0 -29.79,-80.238"
             inkscape:connector-curvature="0" /></g></g></g></g></svg>