<?xml version="1.0" encoding="UTF-8" standalone="no"?>
<svg
   xmlns:dc="http://purl.org/dc/elements/1.1/"
   xmlns:cc="http://creativecommons.org/ns#"
   xmlns:rdf="http://www.w3.org/1999/02/22-rdf-syntax-ns#"
   xmlns:svg="http://www.w3.org/2000/svg"
   xmlns="http://www.w3.org/2000/svg"
   xmlns:sodipodi="http://sodipodi.sourceforge.net/DTD/sodipodi-0.dtd"
   xmlns:inkscape="http://www.inkscape.org/namespaces/inkscape"
   version="1.0"
   width="79.714851mm"
   height="19.155691mm"
   id="svg2"
   inkscape:version="0.91 r13725"
   viewBox="0 0 79.714851 19.155691"
   sodipodi:docname="UNHCR-visibility-horizontal-WHITE-v2015ms.svg">
  <metadata
     id="metadata180">
    <rdf:RDF>
      <cc:Work
         rdf:about="">
        <dc:format>image/svg+xml</dc:format>
        <dc:type
           rdf:resource="http://purl.org/dc/dcmitype/StillImage" />
        <dc:title></dc:title>
      </cc:Work>
    </rdf:RDF>
  </metadata>
  <sodipodi:namedview
     pagecolor="#0072c6"
     bordercolor="#666666"
     borderopacity="1"
     objecttolerance="10"
     gridtolerance="10"
     guidetolerance="10"
     inkscape:pageopacity="0"
     inkscape:pageshadow="2"
     inkscape:window-width="1920"
     inkscape:window-height="1005"
     id="namedview178"
     inkscape:document-units="mm"
     showgrid="false"
     inkscape:zoom="1.1959167"
     inkscape:cx="150.10026"
     inkscape:cy="32.441431"
     inkscape:window-x="-9"
     inkscape:window-y="-9"
     inkscape:window-maximized="1"
     inkscape:current-layer="svg2"
     showborder="false"
     fit-margin-top="0"
     fit-margin-left="0"
     fit-margin-right="0"
     fit-margin-bottom="0" />
  <defs
     id="defs4">
    <clipPath
       clipPathUnits="userSpaceOnUse"
       id="clipEmfPath1">
      <path
         d="m -7.04995,-15.3749 303.67295,0 0,97.7243 -303.67295,0 z"
         id="path7"
         inkscape:connector-curvature="0" />
    </clipPath>
    <pattern
       id="EMFhbasepattern"
       patternUnits="userSpaceOnUse"
       width="6"
       height="6"
       x="0"
       y="0" />
  </defs>
  <path
     style="fill:none;stroke:none"
     clip-path="url(#clipEmfPath1)"
     d=""
     id="path10"
     inkscape:connector-curvature="0"
     transform="translate(0.00174763,0)" />
  <path
     style="fill:#ffffff;fill-opacity:1;fill-rule:nonzero;stroke:none"
     clip-path="url(#clipEmfPath1)"
     d="m 41.2497,45.8997 c 0.825,0 0.75,-0.45 0.75,-1.275 l 0,-4.125 c 0,-0.9 -0.075,-1.125 0.375,-1.125 1.725,0 2.175,-0.15 2.175,-1.65 l 0,-15.3749 c 0,-4.1999 -2.925,-3.4499 -3.75,-5.0249 -1.2,-2.025 2.175,-2.025 0.975,-6.525 -0.375,-0.97497 -1.125,-1.64997 -2.7,-1.64997 -1.5,0 -2.325,0.675 -2.625,1.64997 -1.2,4.5 2.175,4.5 0.975,6.525 -0.825,1.575 -3.7499,0.825 -3.7499,5.0249 l 0,15.3749 c 0,1.5 0.4499,1.65 2.1749,1.65 0.45,0 0.375,0.225 0.375,1.125 l 0,4.125 c 0,0.825 -0.075,1.275 0.675,1.275 l 4.35,0 z"
     id="path12"
     inkscape:connector-curvature="0"
     transform="matrix(0.28222222,0,0,0.28222222,0.00174763,0)" />
  <path
     style="fill:none;stroke:none"
     clip-path="url(#clipEmfPath1)"
     d=""
     id="path14"
     inkscape:connector-curvature="0"
     transform="translate(0.00174763,0)" />
  <path
     style="fill:#ffffff;fill-opacity:1;fill-rule:nonzero;stroke:none"
     clip-path="url(#clipEmfPath1)"
     d="m 27.8248,12.6749 c -1.5,1.575 -3.825,5.325 -2.325,8.4749 3.225,1.2 2.925,-10.0499 6.9,-9.8999 1.9499,1.875 -0.6,7.125 -1.35,9.4499 -0.975,2.925 -1.8,8.925 -3.6,11.85 -1.575,2.3999 -0.45,10.0499 -0.9,12.6749 -1.275,1.35 -4.875,0.375 -6.3749,0.15 0,-3 -0.375,-5.4 -0.9,-10.2 0,-0.975 -1.05,-15.8248 -0.225,-17.6248 C 20.7748,13.7999 30.0748,6.59995 31.3498,5.24996 32.3998,4.04997 36.3747,0 37.8747,0 c 1.05,0.749994 0.45,2.39998 0.225,3.14998 -1.5,3.67497 -8.0249,7.42492 -10.2749,9.52492 z"
     id="path16"
     inkscape:connector-curvature="0"
     transform="matrix(0.28222222,0,0,0.28222222,0.00174763,0)" />
  <path
     style="fill:none;stroke:none"
     clip-path="url(#clipEmfPath1)"
     d=""
     id="path18"
     inkscape:connector-curvature="0"
     transform="translate(0.00174763,0)" />
  <path
     style="fill:#ffffff;fill-opacity:1;fill-rule:nonzero;stroke:none"
     clip-path="url(#clipEmfPath1)"
     d="m 50.5496,12.6749 c 1.425,1.575 3.825,5.325 2.325,8.4749 -3.225,1.2 -3,-10.0499 -6.8999,-9.8999 -1.875,1.875 0.6,7.125 1.4249,9.4499 0.975,2.925 1.725,8.925 3.6,11.85 1.5,2.3999 0.375,10.0499 0.825,12.6749 1.35,1.35 4.8,0.375 6.375,0.15 0,-3 0.375,-5.4 0.825,-10.2 0.15,-0.975 1.125,-15.8248 0.3,-17.6248 C 57.5996,13.7999 48.3746,6.59995 47.0997,5.24996 45.8997,4.04997 41.9997,0 40.4997,0 c -1.125,0.749994 -0.45,2.39998 -0.15,3.14998 1.5,3.67497 8.0249,7.42492 10.1999,9.52492 z"
     id="path20"
     inkscape:connector-curvature="0"
     transform="matrix(0.28222222,0,0,0.28222222,0.00174763,0)" />
  <path
     style="fill:none;stroke:none"
     clip-path="url(#clipEmfPath1)"
     d=""
     id="path22"
     inkscape:connector-curvature="0"
     transform="translate(0.00174763,0)" />
  <path
     style="fill:#ffffff;fill-opacity:1;fill-rule:nonzero;stroke:none"
     clip-path="url(#clipEmfPath1)"
     d="m 14.3249,7.57494 c -0.825,0.825 -2.7,1.34999 -3.9,3.07496 -0.52497,-0.97497 0.75,-3.22495 2.25,-4.49995 1.125,-0.89999 3.3,-2.47498 3.975,-2.62498 0.45,1.125 -1.275,2.84998 -2.325,4.04997 z"
     id="path24"
     inkscape:connector-curvature="0"
     transform="matrix(0.28222222,0,0,0.28222222,0.00174763,0)" />
  <path
     style="fill:none;stroke:none"
     clip-path="url(#clipEmfPath1)"
     d=""
     id="path26"
     inkscape:connector-curvature="0"
     transform="translate(0.00174763,0)" />
  <path
     style="fill:#ffffff;fill-opacity:1;fill-rule:nonzero;stroke:none"
     clip-path="url(#clipEmfPath1)"
     d="m 11.7749,13.7249 c -1.425,1.275 -2.92497,1.8 -4.87495,4.2 -0.82499,-2.85 -0.675,-5.4 -0.225,-7.125 0.675,-2.24996 1.79999,-4.72494 3.67495,-5.47494 -0.37497,1.27499 -1.04997,2.99998 -1.19997,5.39994 -0.82499,3.3 -1.27499,3.375 -1.12499,3.825 0.225,0 1.27499,-1.725 2.62496,-3.075 1.575,-1.49997 3.525,-1.87497 4.8,-2.77496 -0.225,0.59999 -1.35,2.62496 -3.675,5.02496 z"
     id="path28"
     inkscape:connector-curvature="0"
     transform="matrix(0.28222222,0,0,0.28222222,0.00174763,0)" />
  <path
     style="fill:none;stroke:none"
     clip-path="url(#clipEmfPath1)"
     d=""
     id="path30"
     inkscape:connector-curvature="0"
     transform="translate(0.00174763,0)" />
  <path
     style="fill:#ffffff;fill-opacity:1;fill-rule:nonzero;stroke:none"
     clip-path="url(#clipEmfPath1)"
     d="m 4.87496,27.2248 c -1.87498,-3.45 -2.09998,-5.925 -2.24998,-8.7749 0.15,-2.025 1.12499,-6.675 2.54998,-7.35 -0.44999,4.2 0.675,4.575 0.225,8.025 0,0.225 -0.45,3.8249 -0.45,4.0499 0.6,-0.15 0,-3.2999 6.67494,-7.9499 -1.425,2.55 -0.75,3.3 -3.37496,6.6749 -3.07498,3 -3.52497,6 -3.37498,5.325 z"
     id="path32"
     inkscape:connector-curvature="0"
     transform="matrix(0.28222222,0,0,0.28222222,0.00174763,0)" />
  <path
     style="fill:none;stroke:none"
     clip-path="url(#clipEmfPath1)"
     d=""
     id="path34"
     inkscape:connector-curvature="0"
     transform="translate(0.00174763,0)" />
  <path
     style="fill:#ffffff;fill-opacity:1;fill-rule:nonzero;stroke:none"
     clip-path="url(#clipEmfPath1)"
     d="m 7.57494,30.4498 c -1.42499,2.025 -1.19999,3.075 -1.49998,4.0499 -3.37498,-1.9499 -7.19995,-9.7499 -5.774962,-13.5749 0.899992,2.925 2.099982,3.525 2.999982,6 1.49998,3.675 1.27499,4.725 2.24998,5.625 -0.225,-1.95 0.375,-4.2 1.04999,-5.85 0.89999,-1.425 1.64999,-3.225 2.32498,-3.9 0.75,2.7 0.225,4.875 -1.34999,7.65 z"
     id="path36"
     inkscape:connector-curvature="0"
     transform="matrix(0.28222222,0,0,0.28222222,0.00174763,0)" />
  <path
     style="fill:none;stroke:none"
     clip-path="url(#clipEmfPath1)"
     d=""
     id="path38"
     inkscape:connector-curvature="0"
     transform="translate(0.00174763,0)" />
  <path
     style="fill:#ffffff;fill-opacity:1;fill-rule:nonzero;stroke:none"
     clip-path="url(#clipEmfPath1)"
     d="m 10.5749,37.0497 c 0,3 -0.525,4.275 -0.74997,6.45 -5.84996,-1.875 -8.849937,-8.475 -8.849937,-11.7749 1.799987,3.9749 4.349967,3.9749 7.724947,9.5999 0.29999,-2.1 -0.6,-0.525 -0.675,-4.575 0.075,-4.1999 0.97499,-4.3499 1.12499,-6.9749 1.04997,1.125 1.42497,5.8499 1.42497,7.2749 z"
     id="path40"
     inkscape:connector-curvature="0"
     transform="matrix(0.28222222,0,0,0.28222222,0.00174763,0)" />
  <path
     style="fill:none;stroke:none"
     clip-path="url(#clipEmfPath1)"
     d=""
     id="path42"
     inkscape:connector-curvature="0"
     transform="translate(0.00174763,0)" />
  <path
     style="fill:#ffffff;fill-opacity:1;fill-rule:nonzero;stroke:none"
     clip-path="url(#clipEmfPath1)"
     d="m 15.4499,45.4497 c 0.375,2.2499 0.6,4.7999 0.975,6.7499 -3.375,-1.275 -4.2,-0.3 -8.09996,-2.85 -1.79999,-0.975 -5.02496,-5.0249 -4.87497,-7.9499 3.89998,4.35 4.57497,3.825 6.52496,5.475 1.72497,1.4249 3.14997,3.4499 4.42497,3.2249 0.075,-1.2 -2.85,-3.7499 -2.475,-11.0249 0.75,0.825 2.925,4.125 3.525,6.375 z"
     id="path44"
     inkscape:connector-curvature="0"
     transform="matrix(0.28222222,0,0,0.28222222,0.00174763,0)" />
  <path
     style="fill:none;stroke:none"
     clip-path="url(#clipEmfPath1)"
     d=""
     id="path46"
     inkscape:connector-curvature="0"
     transform="translate(0.00174763,0)" />
  <path
     style="fill:#ffffff;fill-opacity:1;fill-rule:nonzero;stroke:none"
     clip-path="url(#clipEmfPath1)"
     d="m 21.9748,50.9246 c 1.05,1.5 0.825,2.1 3.45,5.1 -0.675,0.3 -4.425,1.275 -6.8999,1.425 -1.65,0 -7.5,-1.575 -9.44997,-5.55 3.37497,1.8 3.44997,1.35 7.87497,2.325 3.225,0.75 5.5499,1.725 6.4499,1.65 -0.225,-0.45 -2.7,-1.5 -4.4249,-3.6 -1.725,-2.325 -1.35,-4.875 -2.85,-6.8249 1.05,-0.225 5.0249,4.4249 5.8499,5.4749 z"
     id="path48"
     inkscape:connector-curvature="0"
     transform="matrix(0.28222222,0,0,0.28222222,0.00174763,0)" />
  <path
     style="fill:none;stroke:none"
     clip-path="url(#clipEmfPath1)"
     d=""
     id="path50"
     inkscape:connector-curvature="0"
     transform="translate(0.00174763,0)" />
  <path
     style="fill:#ffffff;fill-opacity:1;fill-rule:nonzero;stroke:none"
     clip-path="url(#clipEmfPath1)"
     d="m 63.7495,7.57494 c 0.825,0.825 2.7,1.34999 3.9,3.07496 0.525,-0.97497 -0.75,-3.22495 -2.25,-4.49995 -1.05,-0.89999 -3.3,-2.47498 -3.975,-2.62498 -0.45,1.125 1.275,2.84998 2.325,4.04997 z"
     id="path52"
     inkscape:connector-curvature="0"
     transform="matrix(0.28222222,0,0,0.28222222,0.00174763,0)" />
  <path
     style="fill:none;stroke:none"
     clip-path="url(#clipEmfPath1)"
     d=""
     id="path54"
     inkscape:connector-curvature="0"
     transform="translate(0.00174763,0)" />
  <path
     style="fill:#ffffff;fill-opacity:1;fill-rule:nonzero;stroke:none"
     clip-path="url(#clipEmfPath1)"
     d="m 66.3745,13.7249 c 1.35,1.275 2.85,1.8 4.8,4.2 0.825,-2.85 0.675,-5.4 0.225,-7.125 -0.6,-2.24996 -1.8,-4.72494 -3.675,-5.47494 0.45,1.27499 1.05,2.99998 1.2,5.39994 0.825,3.3 1.275,3.375 1.125,3.825 -0.225,0 -1.275,-1.725 -2.625,-3.075 -1.5,-1.49997 -3.45,-1.87497 -4.8,-2.77496 0.225,0.59999 1.425,2.62496 3.75,5.02496 z"
     id="path56"
     inkscape:connector-curvature="0"
     transform="matrix(0.28222222,0,0,0.28222222,0.00174763,0)" />
  <path
     style="fill:none;stroke:none"
     clip-path="url(#clipEmfPath1)"
     d=""
     id="path58"
     inkscape:connector-curvature="0"
     transform="translate(0.00174763,0)" />
  <path
     style="fill:#ffffff;fill-opacity:1;fill-rule:nonzero;stroke:none"
     clip-path="url(#clipEmfPath1)"
     d="m 73.1995,27.2248 c 1.9499,-3.45 2.0999,-5.925 2.2499,-8.7749 -0.15,-2.025 -1.125,-6.675 -2.4749,-7.35 0.375,4.2 -0.75,4.575 -0.3,8.025 0,0.225 0.45,3.8249 0.45,4.0499 -0.525,-0.15 -0.075,-3.2999 -6.675,-7.9499 1.425,2.55 0.75,3.3 3.375,6.6749 3.15,3 3.525,6 3.375,5.325 z"
     id="path60"
     inkscape:connector-curvature="0"
     transform="matrix(0.28222222,0,0,0.28222222,0.00174763,0)" />
  <path
     style="fill:none;stroke:none"
     clip-path="url(#clipEmfPath1)"
     d=""
     id="path62"
     inkscape:connector-curvature="0"
     transform="translate(0.00174763,0)" />
  <path
     style="fill:#ffffff;fill-opacity:1;fill-rule:nonzero;stroke:none"
     clip-path="url(#clipEmfPath1)"
     d="m 70.5745,30.4498 c 1.35,2.025 1.125,3.075 1.425,4.0499 3.3749,-1.9499 7.1999,-9.7499 5.7749,-13.5749 -0.825,2.925 -2.1,3.525 -2.925,6 -1.5749,3.675 -1.3499,4.725 -2.2499,5.625 0.225,-1.95 -0.525,-4.2 -1.125,-5.85 -0.9,-1.425 -1.65,-3.225 -2.325,-3.9 -0.675,2.7 -0.225,4.875 1.425,7.65 z"
     id="path64"
     inkscape:connector-curvature="0"
     transform="matrix(0.28222222,0,0,0.28222222,0.00174763,0)" />
  <path
     style="fill:none;stroke:none"
     clip-path="url(#clipEmfPath1)"
     d=""
     id="path66"
     inkscape:connector-curvature="0"
     transform="translate(0.00174763,0)" />
  <path
     style="fill:#ffffff;fill-opacity:1;fill-rule:nonzero;stroke:none"
     clip-path="url(#clipEmfPath1)"
     d="m 67.4995,37.0497 c 0,3 0.525,4.275 0.825,6.45 5.775,-1.875 8.7749,-8.475 8.7749,-11.7749 -1.8,3.9749 -4.2749,3.9749 -7.7249,9.5999 -0.3,-2.1 0.6,-0.525 0.675,-4.575 -0.075,-4.1999 -0.975,-4.3499 -1.125,-6.9749 -1.05,1.125 -1.425,5.8499 -1.425,7.2749 z"
     id="path68"
     inkscape:connector-curvature="0"
     transform="matrix(0.28222222,0,0,0.28222222,0.00174763,0)" />
  <path
     style="fill:none;stroke:none"
     clip-path="url(#clipEmfPath1)"
     d=""
     id="path70"
     inkscape:connector-curvature="0"
     transform="translate(0.00174763,0)" />
  <path
     style="fill:#ffffff;fill-opacity:1;fill-rule:nonzero;stroke:none"
     clip-path="url(#clipEmfPath1)"
     d="m 62.6245,45.4497 c -0.375,2.2499 -0.525,4.7999 -0.9,6.7499 3.3,-1.275 4.125,-0.3 8.025,-2.85 1.8,-0.975 5.0999,-5.0249 4.8749,-7.9499 -3.8999,4.35 -4.5749,3.825 -6.4499,5.475 -1.8,1.4249 -3.225,3.4499 -4.5,3.2249 -0.075,-1.2 2.85,-3.7499 2.55,-11.0249 -0.825,0.825 -3,4.125 -3.6,6.375 z"
     id="path72"
     inkscape:connector-curvature="0"
     transform="matrix(0.28222222,0,0,0.28222222,0.00174763,0)" />
  <path
     style="fill:none;stroke:none"
     clip-path="url(#clipEmfPath1)"
     d=""
     id="path74"
     inkscape:connector-curvature="0"
     transform="translate(0.00174763,0)" />
  <path
     style="fill:#ffffff;fill-opacity:1;fill-rule:nonzero;stroke:none"
     clip-path="url(#clipEmfPath1)"
     d="m 56.0996,50.9246 c -0.975,1.5 -0.75,2.1 -3.45,5.1 0.675,0.3 4.425,1.275 6.9,1.425 1.6499,0 7.4999,-1.575 9.4499,-5.55 -3.375,1.8 -3.45,1.35 -7.875,2.325 -3.2249,0.75 -5.4749,1.725 -6.3749,1.65 0.15,-0.45 2.7,-1.5 4.35,-3.6 1.7249,-2.325 1.35,-4.875 2.8499,-6.8249 -1.05,-0.225 -5.0249,4.4249 -5.8499,5.4749 z"
     id="path76"
     inkscape:connector-curvature="0"
     transform="matrix(0.28222222,0,0,0.28222222,0.00174763,0)" />
  <path
     style="fill:none;stroke:none"
     clip-path="url(#clipEmfPath1)"
     d=""
     id="path78"
     inkscape:connector-curvature="0"
     transform="translate(0.00174763,0)" />
  <path
     style="fill:#ffffff;fill-opacity:1;fill-rule:nonzero;stroke:none"
     clip-path="url(#clipEmfPath1)"
     d="m 30.7498,64.7245 -0.975,-0.525 c 0,0 6.1499,-7.5749 16.7999,-6.9749 10.6499,0.6 9.8999,3.075 15.5998,2.7 0.6,-0.075 -0.525,0.75 -0.525,0.75 0,0 -5.5499,2.1749 -12.3749,-0.15 -6.8249,-2.4 -11.3249,-3.75 -18.5248,4.1999 z"
     id="path80"
     inkscape:connector-curvature="0"
     transform="matrix(0.28222222,0,0,0.28222222,0.00174763,0)" />
  <path
     style="fill:none;stroke:none"
     clip-path="url(#clipEmfPath1)"
     d=""
     id="path82"
     inkscape:connector-curvature="0"
     transform="translate(0.00174763,0)" />
  <path
     style="fill:#ffffff;fill-opacity:1;fill-rule:nonzero;stroke:none"
     clip-path="url(#clipEmfPath1)"
     d="m 47.5496,64.7245 0.975,-0.525 c 0,0 -6.1499,-7.5749 -16.7998,-6.9749 -10.65,0.6 -9.9,3.075 -15.5999,2.7 -0.675,-0.075 0.45,0.75 0.45,0.75 0,0 5.5499,2.1749 12.4499,-0.15 6.8999,-2.4 11.3249,-3.75 18.5248,4.1999 z"
     id="path84"
     inkscape:connector-curvature="0"
     transform="matrix(0.28222222,0,0,0.28222222,0.00174763,0)" />
  <path
     style="fill:none;stroke:none"
     clip-path="url(#clipEmfPath1)"
     d=""
     id="path86"
     inkscape:connector-curvature="0"
     transform="translate(0.00174763,0)" />
  <path
     style="fill:#ffffff;fill-opacity:1;fill-rule:nonzero;stroke:none"
     clip-path="url(#clipEmfPath1)"
     d="m 122.849,31.7998 c 0,10.1999 -5.475,15.0749 -16.65,15.0749 -11.2497,0 -16.7997,-4.875 -16.7997,-15.0749 l 0,-22.49987 11.3247,0 0,20.02487 c 0,3.75 0,8.3999 5.475,8.3999 5.4,0 5.4,-4.6499 5.4,-8.3999 l 0,-20.02487 11.25,0 0,22.49987 z"
     id="path88"
     inkscape:connector-curvature="0"
     transform="matrix(0.28222222,0,0,0.28222222,0.00174763,0)" />
  <path
     style="fill:none;stroke:none"
     clip-path="url(#clipEmfPath1)"
     d=""
     id="path90"
     inkscape:connector-curvature="0"
     transform="translate(0.00174763,0)" />
  <path
     style="fill:#ffffff;fill-opacity:1;fill-rule:nonzero;stroke:none"
     clip-path="url(#clipEmfPath1)"
     d="m 129.674,9.29993 11.55,0 10.725,19.64987 0.075,0 0,-19.64987 10.725,0 0,36.67477 -11.025,0 -11.25,-20.0249 -0.075,0 0,20.0249 -10.725,0 0,-36.67477 z"
     id="path92"
     inkscape:connector-curvature="0"
     transform="matrix(0.28222222,0,0,0.28222222,0.00174763,0)" />
  <path
     style="fill:none;stroke:none"
     clip-path="url(#clipEmfPath1)"
     d=""
     id="path94"
     inkscape:connector-curvature="0"
     transform="translate(0.00174763,0)" />
  <path
     style="fill:#ffffff;fill-opacity:1;fill-rule:nonzero;stroke:none"
     clip-path="url(#clipEmfPath1)"
     d="m 169.724,9.29993 11.25,0 0,12.74987 10.65,0 0,-12.74987 11.324,0 0,36.67477 -11.324,0 0,-14.5499 -10.65,0 0,14.5499 -11.25,0 0,-36.67477 z"
     id="path96"
     inkscape:connector-curvature="0"
     transform="matrix(0.28222222,0,0,0.28222222,0.00174763,0)" />
  <path
     style="fill:none;stroke:none"
     clip-path="url(#clipEmfPath1)"
     d=""
     id="path98"
     inkscape:connector-curvature="0"
     transform="translate(0.00174763,0)" />
  <path
     style="fill:#ffffff;fill-opacity:1;fill-rule:nonzero;stroke:none"
     clip-path="url(#clipEmfPath1)"
     d="m 231.898,22.9498 c -0.225,-1.35 -1.275,-5.3999 -5.925,-5.3999 -5.325,0 -6.975,5.1749 -6.975,10.1249 0,4.875 1.65,10.0499 6.975,10.0499 3.825,0 5.25,-2.7 5.925,-6.0749 l 11.175,0 c 0,7.3499 -6.075,15.2249 -16.8,15.2249 -11.85,0 -18.6,-8.4 -18.6,-19.1999 0,-11.6249 7.275,-19.27486 18.6,-19.27486 10.05,0.075 15.6,5.39996 16.575,14.54986 l -10.95,0 z"
     id="path100"
     inkscape:connector-curvature="0"
     transform="matrix(0.28222222,0,0,0.28222222,0.00174763,0)" />
  <path
     style="fill:none;stroke:none"
     clip-path="url(#clipEmfPath1)"
     d=""
     id="path102"
     inkscape:connector-curvature="0"
     transform="translate(0.00174763,0)" />
  <path
     style="fill:#ffffff;fill-opacity:1;fill-rule:nonzero;stroke:none"
     clip-path="url(#clipEmfPath1)"
     d="m 247.798,45.9747 11.25,0 0,-12.7499 6.075,0 c 4.425,0 4.725,3.5999 5.1,7.1249 0.15,1.875 0.3,3.825 0.9,5.625 l 11.325,0 c -1.05,-1.65 -1.125,-6 -1.275,-7.8 -0.375,-4.5749 -2.25,-8.0249 -5.4,-9.1499 3.75,-1.425 5.55,-5.4 5.55,-9.2249 0,-6.975 -5.55,-10.49997 -12,-10.49997 l -21.525,0 0,36.67477 m 11.25,-27.9748 5.325,0 c 4.35,0 5.625,1.35 5.625,3.6749 0,3.3 -2.925,3.675 -5.025,3.675 l -5.925,0 0,-7.3499 z"
     id="path104"
     inkscape:connector-curvature="0"
     transform="matrix(0.28222222,0,0,0.28222222,0.00174763,0)" />
  <path
     style="fill:none;stroke:none"
     clip-path="url(#clipEmfPath1)"
     d=""
     id="path106"
     inkscape:connector-curvature="0"
     transform="translate(0.00174763,0)" />
  <path
     style="fill:#ffffff;fill-opacity:1;fill-rule:nonzero;stroke:none"
     clip-path="url(#clipEmfPath1)"
     d="m 93.0743,54.4496 -3.675,0 0,-2.25 10.05,0 0,2.25 -3.675,0 0,10.0499 -2.7,0 0,-10.0499 z"
     id="path108"
     inkscape:connector-curvature="0"
     transform="matrix(0.28222222,0,0,0.28222222,0.00174763,0)" />
  <path
     style="fill:none;stroke:none"
     clip-path="url(#clipEmfPath1)"
     d=""
     id="path110"
     inkscape:connector-curvature="0"
     transform="translate(0.00174763,0)" />
  <path
     style="fill:#ffffff;fill-opacity:1;fill-rule:nonzero;stroke:none"
     clip-path="url(#clipEmfPath1)"
     d="m 100.349,52.1996 2.4,0 0,4.65 0.075,0 c 0.6,-1.05 1.65,-1.5 2.625,-1.5 2.55,0 3.225,1.425 3.225,3.675 l 0,5.4749 -2.475,0 0,-5.0249 c 0,-1.5 -0.375,-2.175 -1.575,-2.175 -1.275,0 -1.875,0.675 -1.875,2.55 l 0,4.6499 -2.4,0 0,-12.2999 z"
     id="path112"
     inkscape:connector-curvature="0"
     transform="matrix(0.28222222,0,0,0.28222222,0.00174763,0)" />
  <path
     style="fill:none;stroke:none"
     clip-path="url(#clipEmfPath1)"
     d=""
     id="path114"
     inkscape:connector-curvature="0"
     transform="translate(0.00174763,0)" />
  <path
     style="fill:#ffffff;fill-opacity:1;fill-rule:nonzero;stroke:none"
     clip-path="url(#clipEmfPath1)"
     d="m 116.174,59.0996 c -0.225,-1.275 -0.75,-1.95 -1.95,-1.95 -1.575,0 -2.025,1.2 -2.025,1.95 l 3.975,0 m -3.975,1.5 c 0.075,1.5749 0.825,2.2499 2.175,2.2499 0.975,0 1.725,-0.6 1.95,-1.125 l 2.1,0 c -0.675,2.1 -2.1,3 -4.125,3 -2.85,0 -4.575,-1.95 -4.575,-4.6499 0,-2.7 1.875,-4.725 4.575,-4.725 3,0 4.5,2.55 4.275,5.25 l -6.375,0 z"
     id="path116"
     inkscape:connector-curvature="0"
     transform="matrix(0.28222222,0,0,0.28222222,0.00174763,0)" />
  <path
     style="fill:none;stroke:none"
     clip-path="url(#clipEmfPath1)"
     d=""
     id="path118"
     inkscape:connector-curvature="0"
     transform="translate(0.00174763,0)" />
  <path
     style="fill:#ffffff;fill-opacity:1;fill-rule:nonzero;stroke:none"
     clip-path="url(#clipEmfPath1)"
     d="m 134.474,59.8496 c 0,3.2999 -1.95,4.9499 -5.25,4.9499 -3.3,0 -5.25,-1.65 -5.25,-4.9499 l 0,-7.65 2.7,0 0,7.65 c 0,1.3499 0.375,2.6249 2.55,2.6249 1.95,0 2.55,-0.825 2.55,-2.6249 l 0,-7.65 2.7,0 0,7.65 z"
     id="path120"
     inkscape:connector-curvature="0"
     transform="matrix(0.28222222,0,0,0.28222222,0.00174763,0)" />
  <path
     style="fill:none;stroke:none"
     clip-path="url(#clipEmfPath1)"
     d=""
     id="path122"
     inkscape:connector-curvature="0"
     transform="translate(0.00174763,0)" />
  <path
     style="fill:#ffffff;fill-opacity:1;fill-rule:nonzero;stroke:none"
     clip-path="url(#clipEmfPath1)"
     d="m 136.274,52.1996 2.7,0 5.175,8.25 0,0 0,-8.25 2.55,0 0,12.2999 -2.7,0 -5.1,-8.2499 -0.075,0 0,8.2499 -2.55,0 0,-12.2999 z"
     id="path124"
     inkscape:connector-curvature="0"
     transform="matrix(0.28222222,0,0,0.28222222,0.00174763,0)" />
  <path
     style="fill:none;stroke:none"
     clip-path="url(#clipEmfPath1)"
     d=""
     id="path126"
     inkscape:connector-curvature="0"
     transform="translate(0.00174763,0)" />
  <path
     style="fill:#ffffff;fill-opacity:1;fill-rule:nonzero;stroke:none"
     clip-path="url(#clipEmfPath1)"
     d="m 152.624,64.4995 2.7,0 0,-4.7999 2.7,0 c 1.35,0 1.875,0.525 2.025,1.7999 0.15,1.05 0.075,2.175 0.45,3 l 2.7,0 c -0.525,-0.675 -0.45,-2.175 -0.525,-2.925 -0.075,-1.2749 -0.45,-2.5499 -1.8,-2.8499 l 0,-0.075 c 1.35,-0.525 1.95,-1.65 1.95,-3.075 0,-1.875 -1.425,-3.375 -3.6,-3.375 l -6.6,0 0,12.2999 m 2.7,-10.1999 2.925,0 c 1.2,0 1.875,0.525 1.875,1.725 0,1.2 -0.675,1.725 -1.875,1.725 l -2.925,0 0,-3.45 z"
     id="path128"
     inkscape:connector-curvature="0"
     transform="matrix(0.28222222,0,0,0.28222222,0.00174763,0)" />
  <path
     style="fill:none;stroke:none"
     clip-path="url(#clipEmfPath1)"
     d=""
     id="path130"
     inkscape:connector-curvature="0"
     transform="translate(0.00174763,0)" />
  <path
     style="fill:#ffffff;fill-opacity:1;fill-rule:nonzero;stroke:none"
     clip-path="url(#clipEmfPath1)"
     d="m 172.874,60.5996 c 0.225,-2.7 -1.275,-5.25 -4.275,-5.25 -2.7,0 -4.575,2.025 -4.575,4.725 0,2.6999 1.725,4.6499 4.575,4.6499 2.025,0 3.45,-0.9 4.125,-3 l -2.1,0 c -0.15,0.525 -0.975,1.125 -1.95,1.125 -1.35,0 -2.1,-0.675 -2.175,-2.2499 l 6.375,0 m -6.375,-1.5 c 0,-0.75 0.45,-1.95 2.025,-1.95 1.2,0 1.725,0.675 1.95,1.95 l -3.975,0 z"
     id="path132"
     inkscape:connector-curvature="0"
     transform="matrix(0.28222222,0,0,0.28222222,0.00174763,0)" />
  <path
     style="fill:none;stroke:none"
     clip-path="url(#clipEmfPath1)"
     d=""
     id="path134"
     inkscape:connector-curvature="0"
     transform="translate(0.00174763,0)" />
  <path
     style="fill:#ffffff;fill-opacity:1;fill-rule:nonzero;stroke:none"
     clip-path="url(#clipEmfPath1)"
     d="m 174.524,57.2246 -1.5,0 0,-1.65 1.5,0 0,-0.675 c 0,-1.575 0.975,-2.7 3,-2.7 0.375,0 0.825,0 1.275,0.075 l 0,1.8 c -0.3,0 -0.6,-0.075 -0.9,-0.075 -0.675,0 -0.9,0.3 -0.9,1.05 l 0,0.525 1.65,0 0,1.65 -1.65,0 0,7.2749 -2.475,0 0,-7.2749 z"
     id="path136"
     inkscape:connector-curvature="0"
     transform="matrix(0.28222222,0,0,0.28222222,0.00174763,0)" />
  <path
     style="fill:none;stroke:none"
     clip-path="url(#clipEmfPath1)"
     d=""
     id="path138"
     inkscape:connector-curvature="0"
     transform="translate(0.00174763,0)" />
  <path
     style="fill:#ffffff;fill-opacity:1;fill-rule:nonzero;stroke:none"
     clip-path="url(#clipEmfPath1)"
     d="m 187.799,64.4995 -2.325,0 0,-1.275 -0.075,0 c -0.6,1.05 -1.725,1.5 -2.7,1.5 -2.625,0 -3.3,-1.5 -3.3,-3.675 l 0,-5.4749 2.475,0 0,5.025 c 0,1.4999 0.45,2.1749 1.575,2.1749 1.275,0 1.875,-0.75 1.875,-2.5499 l 0,-4.65 2.475,0 0,8.9249 z"
     id="path140"
     inkscape:connector-curvature="0"
     transform="matrix(0.28222222,0,0,0.28222222,0.00174763,0)" />
  <path
     style="fill:none;stroke:none"
     clip-path="url(#clipEmfPath1)"
     d=""
     id="path142"
     inkscape:connector-curvature="0"
     transform="translate(0.00174763,0)" />
  <path
     style="fill:#ffffff;fill-opacity:1;fill-rule:nonzero;stroke:none"
     clip-path="url(#clipEmfPath1)"
     d="m 197.849,55.5746 -2.325,0 0,1.2 -0.075,0 c -0.6,-1.05 -1.5,-1.425 -2.625,-1.425 -2.55,0 -3.825,2.1 -3.825,4.425 0,2.3999 1.125,4.4249 3.825,4.4249 1.05,0 2.1,-0.45 2.625,-1.35 l 0.075,0 0,1.2 c 0,1.275 -0.6,2.175 -2.025,2.175 -0.825,0 -1.575,-0.3 -1.8,-1.2 l -2.4,0 c 0.075,2.025 2.175,2.85 3.9,2.85 4.125,0 4.65,-2.475 4.65,-3.975 l 0,-8.3249 m -4.425,6.8249 c -1.5,0 -2.025,-1.425 -2.025,-2.6999 0,-1.35 0.6,-2.55 2.025,-2.55 1.575,0 2.1,1.35 2.1,2.775 0,1.2749 -0.75,2.4749 -2.1,2.4749 z"
     id="path144"
     inkscape:connector-curvature="0"
     transform="matrix(0.28222222,0,0,0.28222222,0.00174763,0)" />
  <path
     style="fill:none;stroke:none"
     clip-path="url(#clipEmfPath1)"
     d=""
     id="path146"
     inkscape:connector-curvature="0"
     transform="translate(0.00174763,0)" />
  <path
     style="fill:#ffffff;fill-opacity:1;fill-rule:nonzero;stroke:none"
     clip-path="url(#clipEmfPath1)"
     d="m 207.898,60.5996 c 0.225,-2.7 -1.275,-5.25 -4.275,-5.25 -2.699,0 -4.574,2.025 -4.574,4.725 0,2.6999 1.725,4.6499 4.574,4.6499 2.025,0 3.45,-0.9 4.125,-3 l -2.1,0 c -0.225,0.525 -0.975,1.125 -1.95,1.125 -1.349,0 -2.174,-0.675 -2.174,-2.2499 l 6.374,0 m -6.374,-1.5 c 0,-0.75 0.45,-1.95 2.024,-1.95 1.2,0 1.725,0.675 1.95,1.95 l -3.974,0 z"
     id="path148"
     inkscape:connector-curvature="0"
     transform="matrix(0.28222222,0,0,0.28222222,0.00174763,0)" />
  <path
     style="fill:none;stroke:none"
     clip-path="url(#clipEmfPath1)"
     d=""
     id="path150"
     inkscape:connector-curvature="0"
     transform="translate(0.00174763,0)" />
  <path
     style="fill:#ffffff;fill-opacity:1;fill-rule:nonzero;stroke:none"
     clip-path="url(#clipEmfPath1)"
     d="m 217.498,60.5996 c 0.15,-2.7 -1.275,-5.25 -4.35,-5.25 -2.7,0 -4.5,2.025 -4.5,4.725 0,2.6999 1.725,4.6499 4.5,4.6499 2.025,0 3.525,-0.9 4.2,-3 l -2.175,0 c -0.15,0.525 -0.9,1.125 -1.875,1.125 -1.425,0 -2.175,-0.675 -2.25,-2.2499 l 6.45,0 m -6.45,-1.5 c 0.075,-0.75 0.525,-1.95 2.025,-1.95 1.2,0 1.725,0.675 1.95,1.95 l -3.975,0 z"
     id="path152"
     inkscape:connector-curvature="0"
     transform="matrix(0.28222222,0,0,0.28222222,0.00174763,0)" />
  <path
     style="fill:none;stroke:none"
     clip-path="url(#clipEmfPath1)"
     d=""
     id="path154"
     inkscape:connector-curvature="0"
     transform="translate(0.00174763,0)" />
  <path
     style="fill:#ffffff;fill-opacity:1;fill-rule:nonzero;stroke:none"
     clip-path="url(#clipEmfPath1)"
     d="m 222.673,64.4995 2.775,0 0.975,-2.775 4.575,0 0.9,2.775 2.85,0 -4.65,-12.2999 -2.775,0 -4.65,12.2999 z m 6,-9.2999 0.075,0 1.575,4.5 -3.225,0 1.575,-4.5"
     id="path156"
     inkscape:connector-curvature="0"
     transform="matrix(0.28222222,0,0,0.28222222,0.00174763,0)" />
  <path
     style="fill:none;stroke:none"
     clip-path="url(#clipEmfPath1)"
     d=""
     id="path158"
     inkscape:connector-curvature="0"
     transform="translate(0.00174763,0)" />
  <path
     style="fill:#ffffff;fill-opacity:1;fill-rule:nonzero;stroke:none"
     clip-path="url(#clipEmfPath1)"
     d="m 243.748,55.5746 -2.325,0 0,1.2 -0.075,0 c -0.6,-1.05 -1.425,-1.425 -2.625,-1.425 -2.475,0 -3.825,2.1 -3.825,4.425 0,2.3999 1.125,4.4249 3.825,4.4249 1.05,0 2.1,-0.45 2.625,-1.35 l 0.075,0 0,1.2 c 0,1.275 -0.6,2.175 -1.95,2.175 -0.9,0 -1.65,-0.3 -1.875,-1.2 l -2.4,0 c 0.075,2.025 2.175,2.85 3.9,2.85 4.125,0 4.65,-2.475 4.65,-3.975 l 0,-8.3249 m -4.425,6.8249 c -1.5,0 -1.95,-1.425 -1.95,-2.6999 0,-1.35 0.6,-2.55 1.95,-2.55 1.575,0 2.1,1.35 2.1,2.775 0,1.2749 -0.675,2.4749 -2.1,2.4749 z"
     id="path160"
     inkscape:connector-curvature="0"
     transform="matrix(0.28222222,0,0,0.28222222,0.00174763,0)" />
  <path
     style="fill:none;stroke:none"
     clip-path="url(#clipEmfPath1)"
     d=""
     id="path162"
     inkscape:connector-curvature="0"
     transform="translate(0.00174763,0)" />
  <path
     style="fill:#ffffff;fill-opacity:1;fill-rule:nonzero;stroke:none"
     clip-path="url(#clipEmfPath1)"
     d="m 253.798,60.5996 c 0.225,-2.7 -1.275,-5.25 -4.275,-5.25 -2.7,0 -4.575,2.025 -4.575,4.725 0,2.6999 1.725,4.6499 4.575,4.6499 2.025,0 3.45,-0.9 4.125,-3 l -2.1,0 c -0.15,0.525 -0.975,1.125 -1.95,1.125 -1.35,0 -2.1,-0.675 -2.175,-2.2499 l 6.375,0 m -6.375,-1.5 c 0,-0.75 0.45,-1.95 2.025,-1.95 1.2,0 1.725,0.675 1.95,1.95 l -3.975,0 z"
     id="path164"
     inkscape:connector-curvature="0"
     transform="matrix(0.28222222,0,0,0.28222222,0.00174763,0)" />
  <path
     style="fill:none;stroke:none"
     clip-path="url(#clipEmfPath1)"
     d=""
     id="path166"
     inkscape:connector-curvature="0"
     transform="translate(0.00174763,0)" />
  <path
     style="fill:#ffffff;fill-opacity:1;fill-rule:nonzero;stroke:none"
     clip-path="url(#clipEmfPath1)"
     d="m 254.923,55.5746 2.325,0 0,1.275 0,0 c 0.675,-1.05 1.725,-1.5 2.775,-1.5 2.55,0 3.225,1.425 3.225,3.675 l 0,5.4749 -2.475,0 0,-5.0249 c 0,-1.5 -0.375,-2.175 -1.5,-2.175 -1.35,0 -1.95,0.675 -1.95,2.55 l 0,4.6499 -2.4,0 0,-8.9249 z"
     id="path168"
     inkscape:connector-curvature="0"
     transform="matrix(0.28222222,0,0,0.28222222,0.00174763,0)" />
  <path
     style="fill:none;stroke:none"
     clip-path="url(#clipEmfPath1)"
     d=""
     id="path170"
     inkscape:connector-curvature="0"
     transform="translate(0.00174763,0)" />
  <path
     style="fill:#ffffff;fill-opacity:1;fill-rule:nonzero;stroke:none"
     clip-path="url(#clipEmfPath1)"
     d="m 270.823,58.7246 c -0.15,-1.05 -0.825,-1.575 -1.8,-1.575 -1.575,0 -2.1,1.575 -2.1,2.925 0,1.2749 0.525,2.7749 2.025,2.7749 1.125,0 1.8,-0.675 1.95,-1.8 l 2.325,0 c -0.3,2.4 -1.95,3.675 -4.275,3.675 -2.7,0 -4.5,-1.875 -4.5,-4.5749 0,-2.775 1.65,-4.8 4.575,-4.8 2.1,0 4.05,1.125 4.2,3.375 l -2.4,0 z"
     id="path172"
     inkscape:connector-curvature="0"
     transform="matrix(0.28222222,0,0,0.28222222,0.00174763,0)" />
  <path
     style="fill:none;stroke:none"
     clip-path="url(#clipEmfPath1)"
     d=""
     id="path174"
     inkscape:connector-curvature="0"
     transform="translate(0.00174763,0)" />
  <path
     style="fill:#ffffff;fill-opacity:1;fill-rule:nonzero;stroke:none"
     clip-path="url(#clipEmfPath1)"
     d="m 278.698,65.6245 c -0.525,1.425 -1.35,2.025 -3.075,2.025 -0.45,0 -0.975,-0.075 -1.5,-0.15 l 0,-1.95 c 0.525,0 0.975,0.075 1.425,0.075 0.9,-0.075 1.125,-0.975 0.9,-1.725 l -3.15,-8.3249 2.625,0 2.025,6.0749 0,0 1.95,-6.0749 2.55,0 -3.75,10.0499 z"
     id="path176"
     inkscape:connector-curvature="0"
     transform="matrix(0.28222222,0,0,0.28222222,0.00174763,0)" />
</svg>
